<svg width="1280" height="720" viewBox="0 0 1280 720" fill="none" xmlns="http://www.w3.org/2000/svg">
<rect width="1280" height="720" fill="white"/>
<rect width="1280" height="70" fill="#2D28FF"/>
<path d="M162.818 29.3636V41H161.409V29.3636H162.818ZM166.803 35.75V41H165.462V32.2727H166.757V33.6364H166.871C167.075 33.1932 167.386 32.8371 167.803 32.5682C168.219 32.2955 168.757 32.1591 169.416 32.1591C170.007 32.1591 170.524 32.2803 170.967 32.5227C171.411 32.7614 171.755 33.125 172.001 33.6136C172.248 34.0985 172.371 34.7121 172.371 35.4545V41H171.03V35.5455C171.03 34.8598 170.852 34.3258 170.496 33.9432C170.14 33.5568 169.651 33.3636 169.03 33.3636C168.602 33.3636 168.219 33.4564 167.882 33.642C167.549 33.8277 167.286 34.0985 167.092 34.4545C166.899 34.8106 166.803 35.2424 166.803 35.75ZM174.821 41V32.2727H176.162V41H174.821ZM174.889 31.0909L176.276 28.4545H177.844L176.071 31.0909H174.889ZM182.163 41.1818C181.345 41.1818 180.641 40.9886 180.05 40.6023C179.459 40.2159 179.004 39.6837 178.686 39.0057C178.368 38.3277 178.209 37.553 178.209 36.6818C178.209 35.7955 178.372 35.0133 178.697 34.3352C179.027 33.6534 179.485 33.1212 180.072 32.7386C180.663 32.3523 181.353 32.1591 182.141 32.1591C182.754 32.1591 183.307 32.2727 183.8 32.5C184.292 32.7273 184.696 33.0455 185.01 33.4545C185.324 33.8636 185.519 34.3409 185.595 34.8864H184.254C184.152 34.4886 183.925 34.1364 183.572 33.8295C183.224 33.5189 182.754 33.3636 182.163 33.3636C181.641 33.3636 181.182 33.5 180.788 33.7727C180.398 34.0417 180.093 34.4223 179.874 34.9148C179.658 35.4034 179.55 35.9773 179.55 36.6364C179.55 37.3106 179.656 37.8977 179.868 38.3977C180.084 38.8977 180.387 39.286 180.777 39.5625C181.171 39.839 181.633 39.9773 182.163 39.9773C182.512 39.9773 182.828 39.9167 183.112 39.7955C183.396 39.6742 183.637 39.5 183.834 39.2727C184.031 39.0455 184.171 38.7727 184.254 38.4545H185.595C185.519 38.9697 185.332 39.4337 185.033 39.8466C184.737 40.2557 184.345 40.5814 183.857 40.8239C183.372 41.0625 182.807 41.1818 182.163 41.1818ZM187.555 41V32.2727H188.896V41H187.555ZM188.237 30.8182C187.976 30.8182 187.75 30.7292 187.561 30.5511C187.375 30.3731 187.283 30.1591 187.283 29.9091C187.283 29.6591 187.375 29.4451 187.561 29.267C187.75 29.089 187.976 29 188.237 29C188.499 29 188.722 29.089 188.908 29.267C189.097 29.4451 189.192 29.6591 189.192 29.9091C189.192 30.1591 189.097 30.3731 188.908 30.5511C188.722 30.7292 188.499 30.8182 188.237 30.8182ZM194.898 41.1818C194.11 41.1818 193.419 40.9943 192.824 40.6193C192.233 40.2443 191.771 39.7197 191.438 39.0455C191.108 38.3712 190.943 37.5833 190.943 36.6818C190.943 35.7727 191.108 34.9792 191.438 34.3011C191.771 33.6231 192.233 33.0966 192.824 32.7216C193.419 32.3466 194.11 32.1591 194.898 32.1591C195.686 32.1591 196.375 32.3466 196.966 32.7216C197.561 33.0966 198.023 33.6231 198.352 34.3011C198.686 34.9792 198.852 35.7727 198.852 36.6818C198.852 37.5833 198.686 38.3712 198.352 39.0455C198.023 39.7197 197.561 40.2443 196.966 40.6193C196.375 40.9943 195.686 41.1818 194.898 41.1818ZM194.898 39.9773C195.496 39.9773 195.989 39.8239 196.375 39.517C196.761 39.2102 197.047 38.8068 197.233 38.3068C197.419 37.8068 197.511 37.2652 197.511 36.6818C197.511 36.0985 197.419 35.5549 197.233 35.0511C197.047 34.5473 196.761 34.1402 196.375 33.8295C195.989 33.5189 195.496 33.3636 194.898 33.3636C194.299 33.3636 193.807 33.5189 193.42 33.8295C193.034 34.1402 192.748 34.5473 192.562 35.0511C192.377 35.5549 192.284 36.0985 192.284 36.6818C192.284 37.2652 192.377 37.8068 192.562 38.3068C192.748 38.8068 193.034 39.2102 193.42 39.517C193.807 39.8239 194.299 39.9773 194.898 39.9773Z" fill="white"/>
<path d="M221.409 41V29.3636H225.341C226.254 29.3636 227 29.5284 227.58 29.858C228.163 30.1837 228.595 30.625 228.875 31.1818C229.155 31.7386 229.295 32.3598 229.295 33.0455C229.295 33.7311 229.155 34.3542 228.875 34.9148C228.598 35.4754 228.17 35.9223 227.591 36.2557C227.011 36.5852 226.269 36.75 225.364 36.75H222.545V35.5H225.318C225.943 35.5 226.445 35.392 226.824 35.1761C227.203 34.9602 227.477 34.6686 227.648 34.3011C227.822 33.9299 227.909 33.5114 227.909 33.0455C227.909 32.5795 227.822 32.1629 227.648 31.7955C227.477 31.428 227.201 31.1402 226.818 30.9318C226.436 30.7197 225.928 30.6136 225.295 30.6136H222.818V41H221.409ZM231.384 41V32.2727H232.679V33.5909H232.77C232.929 33.1591 233.217 32.8087 233.634 32.5398C234.05 32.2708 234.52 32.1364 235.043 32.1364C235.141 32.1364 235.264 32.1383 235.412 32.142C235.56 32.1458 235.671 32.1515 235.747 32.1591V33.5227C235.702 33.5114 235.598 33.4943 235.435 33.4716C235.276 33.4451 235.107 33.4318 234.929 33.4318C234.505 33.4318 234.126 33.5208 233.793 33.6989C233.463 33.8731 233.202 34.1155 233.009 34.4261C232.819 34.733 232.724 35.0833 232.724 35.4773V41H231.384ZM240.616 41.1818C239.829 41.1818 239.137 40.9943 238.543 40.6193C237.952 40.2443 237.49 39.7197 237.156 39.0455C236.827 38.3712 236.662 37.5833 236.662 36.6818C236.662 35.7727 236.827 34.9792 237.156 34.3011C237.49 33.6231 237.952 33.0966 238.543 32.7216C239.137 32.3466 239.829 32.1591 240.616 32.1591C241.404 32.1591 242.094 32.3466 242.685 32.7216C243.279 33.0966 243.741 33.6231 244.071 34.3011C244.404 34.9792 244.571 35.7727 244.571 36.6818C244.571 37.5833 244.404 38.3712 244.071 39.0455C243.741 39.7197 243.279 40.2443 242.685 40.6193C242.094 40.9943 241.404 41.1818 240.616 41.1818ZM240.616 39.9773C241.215 39.9773 241.707 39.8239 242.094 39.517C242.48 39.2102 242.766 38.8068 242.952 38.3068C243.137 37.8068 243.23 37.2652 243.23 36.6818C243.23 36.0985 243.137 35.5549 242.952 35.0511C242.766 34.5473 242.48 34.1402 242.094 33.8295C241.707 33.5189 241.215 33.3636 240.616 33.3636C240.018 33.3636 239.526 33.5189 239.139 33.8295C238.753 34.1402 238.467 34.5473 238.281 35.0511C238.096 35.5549 238.003 36.0985 238.003 36.6818C238.003 37.2652 238.096 37.8068 238.281 38.3068C238.467 38.8068 238.753 39.2102 239.139 39.517C239.526 39.8239 240.018 39.9773 240.616 39.9773ZM249.913 41.1818C249.186 41.1818 248.544 40.9981 247.987 40.6307C247.43 40.2595 246.995 39.7367 246.68 39.0625C246.366 38.3845 246.209 37.5833 246.209 36.6591C246.209 35.7424 246.366 34.947 246.68 34.2727C246.995 33.5985 247.432 33.0777 247.993 32.7102C248.554 32.3428 249.201 32.1591 249.936 32.1591C250.504 32.1591 250.953 32.2538 251.283 32.4432C251.616 32.6288 251.87 32.8409 252.044 33.0795C252.222 33.3144 252.36 33.5076 252.459 33.6591H252.572V29.3636H253.913V41H252.618V39.6591H252.459C252.36 39.8182 252.22 40.0189 252.038 40.2614C251.857 40.5 251.597 40.714 251.26 40.9034C250.923 41.089 250.474 41.1818 249.913 41.1818ZM250.095 39.9773C250.633 39.9773 251.088 39.8371 251.459 39.5568C251.83 39.2727 252.112 38.8807 252.305 38.3807C252.499 37.8769 252.595 37.2955 252.595 36.6364C252.595 35.9848 252.5 35.4148 252.311 34.9261C252.122 34.4337 251.841 34.0511 251.47 33.7784C251.099 33.5019 250.641 33.3636 250.095 33.3636C249.527 33.3636 249.054 33.5095 248.675 33.8011C248.3 34.089 248.018 34.4811 247.828 34.9773C247.643 35.4697 247.55 36.0227 247.55 36.6364C247.55 37.2576 247.644 37.822 247.834 38.3295C248.027 38.8333 248.311 39.2348 248.686 39.5341C249.065 39.8295 249.535 39.9773 250.095 39.9773ZM262.055 37.4318V32.2727H263.396V41H262.055V39.5227H261.964C261.76 39.9659 261.442 40.3428 261.01 40.6534C260.578 40.9602 260.033 41.1136 259.374 41.1136C258.828 41.1136 258.343 40.9943 257.919 40.7557C257.495 40.5133 257.161 40.1496 256.919 39.6648C256.677 39.1761 256.555 38.5606 256.555 37.8182V32.2727H257.896V37.7273C257.896 38.3636 258.074 38.8712 258.43 39.25C258.79 39.6288 259.249 39.8182 259.805 39.8182C260.139 39.8182 260.478 39.733 260.822 39.5625C261.171 39.392 261.463 39.1307 261.697 38.7784C261.936 38.4261 262.055 37.9773 262.055 37.4318ZM269.648 32.2727V33.4091H265.125V32.2727H269.648ZM266.443 30.1818H267.784V38.5C267.784 38.8788 267.839 39.1629 267.949 39.3523C268.063 39.5379 268.206 39.6629 268.381 39.7273C268.559 39.7879 268.746 39.8182 268.943 39.8182C269.091 39.8182 269.212 39.8106 269.307 39.7955C269.402 39.7765 269.477 39.7614 269.534 39.75L269.807 40.9545C269.716 40.9886 269.589 41.0227 269.426 41.0568C269.263 41.0947 269.057 41.1136 268.807 41.1136C268.428 41.1136 268.057 41.0322 267.693 40.8693C267.333 40.7064 267.034 40.4583 266.795 40.125C266.561 39.7917 266.443 39.3712 266.443 38.8636V30.1818ZM275.116 41.1818C274.329 41.1818 273.637 40.9943 273.043 40.6193C272.452 40.2443 271.99 39.7197 271.656 39.0455C271.327 38.3712 271.162 37.5833 271.162 36.6818C271.162 35.7727 271.327 34.9792 271.656 34.3011C271.99 33.6231 272.452 33.0966 273.043 32.7216C273.637 32.3466 274.329 32.1591 275.116 32.1591C275.904 32.1591 276.594 32.3466 277.185 32.7216C277.779 33.0966 278.241 33.6231 278.571 34.3011C278.904 34.9792 279.071 35.7727 279.071 36.6818C279.071 37.5833 278.904 38.3712 278.571 39.0455C278.241 39.7197 277.779 40.2443 277.185 40.6193C276.594 40.9943 275.904 41.1818 275.116 41.1818ZM275.116 39.9773C275.715 39.9773 276.207 39.8239 276.594 39.517C276.98 39.2102 277.266 38.8068 277.452 38.3068C277.637 37.8068 277.73 37.2652 277.73 36.6818C277.73 36.0985 277.637 35.5549 277.452 35.0511C277.266 34.5473 276.98 34.1402 276.594 33.8295C276.207 33.5189 275.715 33.3636 275.116 33.3636C274.518 33.3636 274.026 33.5189 273.639 33.8295C273.253 34.1402 272.967 34.5473 272.781 35.0511C272.596 35.5549 272.503 36.0985 272.503 36.6818C272.503 37.2652 272.596 37.8068 272.781 38.3068C272.967 38.8068 273.253 39.2102 273.639 39.517C274.026 39.8239 274.518 39.9773 275.116 39.9773ZM287.3 34.2273L286.095 34.5682C286.019 34.3674 285.908 34.1723 285.76 33.983C285.616 33.7898 285.419 33.6307 285.169 33.5057C284.919 33.3807 284.599 33.3182 284.209 33.3182C283.675 33.3182 283.23 33.4413 282.874 33.6875C282.521 33.9299 282.345 34.2386 282.345 34.6136C282.345 34.947 282.466 35.2102 282.709 35.4034C282.951 35.5966 283.33 35.7576 283.845 35.8864L285.141 36.2045C285.921 36.3939 286.502 36.6837 286.885 37.0739C287.268 37.4602 287.459 37.9583 287.459 38.5682C287.459 39.0682 287.315 39.5152 287.027 39.9091C286.743 40.303 286.345 40.6136 285.834 40.8409C285.322 41.0682 284.728 41.1818 284.05 41.1818C283.16 41.1818 282.423 40.9886 281.839 40.6023C281.256 40.2159 280.887 39.6515 280.732 38.9091L282.004 38.5909C282.125 39.0606 282.355 39.4129 282.692 39.6477C283.033 39.8826 283.478 40 284.027 40C284.652 40 285.148 39.8674 285.516 39.6023C285.887 39.3333 286.072 39.0114 286.072 38.6364C286.072 38.3333 285.966 38.0795 285.754 37.875C285.542 37.6667 285.216 37.5114 284.777 37.4091L283.322 37.0682C282.523 36.8788 281.936 36.5852 281.561 36.1875C281.19 35.786 281.004 35.2841 281.004 34.6818C281.004 34.1894 281.143 33.7538 281.419 33.375C281.699 32.9962 282.08 32.6989 282.561 32.483C283.046 32.267 283.595 32.1591 284.209 32.1591C285.072 32.1591 285.75 32.3485 286.243 32.7273C286.739 33.1061 287.091 33.6061 287.3 34.2273Z" fill="white"/>
<path d="M316.324 32.7102C316.278 32.2519 316.083 31.8958 315.739 31.642C315.394 31.3883 314.926 31.2614 314.335 31.2614C313.934 31.2614 313.595 31.3182 313.318 31.4318C313.042 31.5417 312.83 31.6951 312.682 31.892C312.538 32.089 312.466 32.3125 312.466 32.5625C312.458 32.7708 312.502 32.9527 312.597 33.108C312.695 33.2633 312.83 33.3977 313 33.5114C313.17 33.6212 313.367 33.7178 313.591 33.8011C313.814 33.8807 314.053 33.9489 314.307 34.0057L315.352 34.2557C315.86 34.3693 316.326 34.5208 316.75 34.7102C317.174 34.8996 317.542 35.1326 317.852 35.4091C318.163 35.6856 318.403 36.0114 318.574 36.3864C318.748 36.7614 318.837 37.1913 318.841 37.6761C318.837 38.3883 318.655 39.0057 318.295 39.5284C317.939 40.0473 317.424 40.4508 316.75 40.7386C316.08 41.0227 315.271 41.1648 314.324 41.1648C313.384 41.1648 312.566 41.0208 311.869 40.733C311.176 40.4451 310.634 40.0189 310.244 39.4545C309.858 38.8864 309.655 38.1837 309.636 37.3466H312.017C312.044 37.7367 312.155 38.0625 312.352 38.3239C312.553 38.5814 312.82 38.7765 313.153 38.9091C313.491 39.0379 313.871 39.1023 314.295 39.1023C314.712 39.1023 315.074 39.0417 315.381 38.9205C315.691 38.7992 315.932 38.6307 316.102 38.4148C316.273 38.1989 316.358 37.9508 316.358 37.6705C316.358 37.4091 316.28 37.1894 316.125 37.0114C315.973 36.8333 315.75 36.6818 315.455 36.5568C315.163 36.4318 314.805 36.3182 314.381 36.2159L313.114 35.8977C312.133 35.6591 311.358 35.286 310.79 34.7784C310.222 34.2708 309.939 33.5871 309.943 32.7273C309.939 32.0227 310.127 31.4072 310.506 30.8807C310.888 30.3542 311.413 29.9432 312.08 29.6477C312.746 29.3523 313.504 29.2045 314.352 29.2045C315.216 29.2045 315.97 29.3523 316.614 29.6477C317.261 29.9432 317.765 30.3542 318.125 30.8807C318.485 31.4072 318.67 32.017 318.682 32.7102H316.324ZM324.393 41.1705C323.511 41.1705 322.748 40.983 322.104 40.608C321.464 40.2292 320.969 39.7027 320.621 39.0284C320.272 38.3504 320.098 37.5644 320.098 36.6705C320.098 35.7689 320.272 34.9811 320.621 34.3068C320.969 33.6288 321.464 33.1023 322.104 32.7273C322.748 32.3485 323.511 32.1591 324.393 32.1591C325.276 32.1591 326.037 32.3485 326.678 32.7273C327.321 33.1023 327.818 33.6288 328.166 34.3068C328.515 34.9811 328.689 35.7689 328.689 36.6705C328.689 37.5644 328.515 38.3504 328.166 39.0284C327.818 39.7027 327.321 40.2292 326.678 40.608C326.037 40.983 325.276 41.1705 324.393 41.1705ZM324.405 39.2955C324.806 39.2955 325.142 39.1818 325.411 38.9545C325.679 38.7235 325.882 38.4091 326.018 38.0114C326.159 37.6136 326.229 37.161 326.229 36.6534C326.229 36.1458 326.159 35.6932 326.018 35.2955C325.882 34.8977 325.679 34.5833 325.411 34.3523C325.142 34.1212 324.806 34.0057 324.405 34.0057C324 34.0057 323.659 34.1212 323.382 34.3523C323.109 34.5833 322.903 34.8977 322.763 35.2955C322.626 35.6932 322.558 36.1458 322.558 36.6534C322.558 37.161 322.626 37.6136 322.763 38.0114C322.903 38.4091 323.109 38.7235 323.382 38.9545C323.659 39.1818 324 39.2955 324.405 39.2955ZM330.308 41V29.3636H332.729V33.7386H332.803C332.909 33.5038 333.062 33.2652 333.263 33.0227C333.467 32.7765 333.732 32.572 334.058 32.4091C334.388 32.2424 334.797 32.1591 335.286 32.1591C335.922 32.1591 336.509 32.3258 337.047 32.6591C337.585 32.9886 338.015 33.4867 338.337 34.1534C338.659 34.8163 338.82 35.6477 338.82 36.6477C338.82 37.6212 338.662 38.4432 338.348 39.1136C338.037 39.7803 337.613 40.286 337.075 40.6307C336.541 40.9716 335.943 41.142 335.28 41.142C334.81 41.142 334.411 41.0644 334.081 40.9091C333.755 40.7538 333.488 40.5587 333.28 40.3239C333.071 40.0852 332.912 39.8447 332.803 39.6023H332.695V41H330.308ZM332.678 36.6364C332.678 37.1553 332.75 37.608 332.893 37.9943C333.037 38.3807 333.246 38.6818 333.518 38.8977C333.791 39.1098 334.123 39.2159 334.513 39.2159C334.907 39.2159 335.24 39.108 335.513 38.892C335.786 38.6723 335.992 38.3693 336.132 37.983C336.276 37.5928 336.348 37.1439 336.348 36.6364C336.348 36.1326 336.278 35.6894 336.138 35.3068C335.998 34.9242 335.791 34.625 335.518 34.4091C335.246 34.1932 334.911 34.0852 334.513 34.0852C334.119 34.0852 333.786 34.1894 333.513 34.3977C333.244 34.6061 333.037 34.9015 332.893 35.2841C332.75 35.6667 332.678 36.1174 332.678 36.6364ZM340.435 41V32.2727H342.781V33.7955H342.872C343.031 33.2538 343.298 32.8447 343.673 32.5682C344.048 32.2879 344.48 32.1477 344.969 32.1477C345.09 32.1477 345.221 32.1553 345.361 32.1705C345.501 32.1856 345.624 32.2064 345.73 32.233V34.3807C345.616 34.3466 345.459 34.3163 345.259 34.2898C345.058 34.2633 344.874 34.25 344.707 34.25C344.351 34.25 344.033 34.3277 343.753 34.483C343.476 34.6345 343.257 34.8466 343.094 35.1193C342.935 35.392 342.855 35.7064 342.855 36.0625V41H340.435ZM350.553 41.1705C349.655 41.1705 348.882 40.9886 348.234 40.625C347.59 40.2576 347.094 39.7386 346.746 39.0682C346.397 38.3939 346.223 37.5966 346.223 36.6761C346.223 35.7784 346.397 34.9905 346.746 34.3125C347.094 33.6345 347.585 33.1061 348.217 32.7273C348.854 32.3485 349.6 32.1591 350.456 32.1591C351.032 32.1591 351.568 32.2519 352.064 32.4375C352.564 32.6193 353 32.8939 353.371 33.2614C353.746 33.6288 354.037 34.0909 354.246 34.6477C354.454 35.2008 354.558 35.8485 354.558 36.5909V37.2557H347.189V35.7557H352.28C352.28 35.4072 352.204 35.0985 352.053 34.8295C351.901 34.5606 351.691 34.3504 351.422 34.1989C351.157 34.0436 350.848 33.9659 350.496 33.9659C350.128 33.9659 349.803 34.0511 349.518 34.2216C349.238 34.3883 349.018 34.6136 348.859 34.8977C348.7 35.178 348.619 35.4905 348.615 35.8352V37.2614C348.615 37.6932 348.695 38.0663 348.854 38.3807C349.017 38.6951 349.246 38.9375 349.541 39.108C349.837 39.2784 350.187 39.3636 350.592 39.3636C350.861 39.3636 351.107 39.3258 351.331 39.25C351.554 39.1742 351.746 39.0606 351.905 38.9091C352.064 38.7576 352.185 38.572 352.268 38.3523L354.507 38.5C354.393 39.0379 354.161 39.5076 353.808 39.9091C353.46 40.3068 353.009 40.6174 352.456 40.8409C351.907 41.0606 351.272 41.1705 350.553 41.1705ZM362.261 35.9545V41H359.841V32.2727H362.148V33.8125H362.25C362.443 33.3049 362.767 32.9034 363.222 32.608C363.676 32.3087 364.227 32.1591 364.875 32.1591C365.481 32.1591 366.009 32.2917 366.46 32.5568C366.911 32.822 367.261 33.2008 367.511 33.6932C367.761 34.1818 367.886 34.7652 367.886 35.4432V41H365.466V35.875C365.47 35.3409 365.333 34.9242 365.057 34.625C364.78 34.322 364.4 34.1705 363.915 34.1705C363.589 34.1705 363.301 34.2405 363.051 34.3807C362.805 34.5208 362.612 34.7254 362.472 34.9943C362.335 35.2595 362.265 35.5795 362.261 35.9545ZM373.737 41.1705C372.855 41.1705 372.091 40.983 371.447 40.608C370.807 40.2292 370.313 39.7027 369.964 39.0284C369.616 38.3504 369.442 37.5644 369.442 36.6705C369.442 35.7689 369.616 34.9811 369.964 34.3068C370.313 33.6288 370.807 33.1023 371.447 32.7273C372.091 32.3485 372.855 32.1591 373.737 32.1591C374.62 32.1591 375.381 32.3485 376.021 32.7273C376.665 33.1023 377.161 33.6288 377.51 34.3068C377.858 34.9811 378.033 35.7689 378.033 36.6705C378.033 37.5644 377.858 38.3504 377.51 39.0284C377.161 39.7027 376.665 40.2292 376.021 40.608C375.381 40.983 374.62 41.1705 373.737 41.1705ZM373.749 39.2955C374.15 39.2955 374.485 39.1818 374.754 38.9545C375.023 38.7235 375.226 38.4091 375.362 38.0114C375.502 37.6136 375.572 37.161 375.572 36.6534C375.572 36.1458 375.502 35.6932 375.362 35.2955C375.226 34.8977 375.023 34.5833 374.754 34.3523C374.485 34.1212 374.15 34.0057 373.749 34.0057C373.343 34.0057 373.002 34.1212 372.726 34.3523C372.453 34.5833 372.247 34.8977 372.107 35.2955C371.97 35.6932 371.902 36.1458 371.902 36.6534C371.902 37.161 371.97 37.6136 372.107 38.0114C372.247 38.4091 372.453 38.7235 372.726 38.9545C373.002 39.1818 373.343 39.2955 373.749 39.2955ZM372.868 31.1477L374.072 28.5625H376.311L374.578 31.1477H372.868ZM386.868 34.7614L384.652 34.8977C384.614 34.7083 384.533 34.5379 384.408 34.3864C384.283 34.2311 384.118 34.108 383.913 34.017C383.713 33.9223 383.472 33.875 383.192 33.875C382.817 33.875 382.5 33.9545 382.243 34.1136C381.985 34.2689 381.857 34.4773 381.857 34.7386C381.857 34.947 381.94 35.1231 382.107 35.267C382.273 35.411 382.559 35.5265 382.964 35.6136L384.544 35.9318C385.393 36.1061 386.025 36.3864 386.442 36.7727C386.858 37.1591 387.067 37.6667 387.067 38.2955C387.067 38.8674 386.898 39.3693 386.561 39.8011C386.228 40.233 385.769 40.5701 385.186 40.8125C384.607 41.0511 383.938 41.1705 383.18 41.1705C382.025 41.1705 381.105 40.9299 380.419 40.4489C379.737 39.964 379.338 39.3049 379.22 38.4716L381.601 38.3466C381.673 38.6989 381.847 38.9678 382.124 39.1534C382.4 39.3352 382.754 39.4261 383.186 39.4261C383.61 39.4261 383.951 39.3447 384.209 39.1818C384.47 39.0152 384.603 38.8011 384.607 38.5398C384.603 38.3201 384.51 38.1402 384.328 38C384.146 37.8561 383.866 37.7462 383.487 37.6705L381.976 37.3693C381.124 37.1989 380.489 36.9034 380.072 36.483C379.66 36.0625 379.453 35.5265 379.453 34.875C379.453 34.3144 379.605 33.8314 379.908 33.4261C380.214 33.0208 380.644 32.7083 381.197 32.4886C381.754 32.2689 382.406 32.1591 383.152 32.1591C384.254 32.1591 385.122 32.392 385.754 32.858C386.391 33.3239 386.762 33.9583 386.868 34.7614Z" fill="white"/>
<g clip-path="url(#clip0_1_68)">
<path d="M1119.47 31.7924L1115.72 28.7331V23.8404C1115.72 23.2894 1115.27 22.8411 1114.72 22.8411H1112.36C1111.81 22.8411 1111.36 23.2894 1111.36 23.8404V25.1791L1106.34 21.0913C1105.98 20.7957 1105.5 20.6328 1105 20.6328C1104.49 20.6328 1104.02 20.7947 1103.66 21.0888L1090.53 31.7923C1089.93 32.2784 1089.97 32.7018 1090.04 32.9109C1090.11 33.1196 1090.35 33.4697 1091.12 33.4697H1092.92V47.5454C1092.92 48.55 1093.73 49.3671 1094.73 49.3671H1100.41C1101.41 49.3671 1102.18 48.5669 1102.18 47.5454V41.7732C1102.18 41.2785 1102.64 40.828 1103.14 40.828H1106.95C1107.43 40.828 1107.82 41.2521 1107.82 41.7732V47.5454C1107.82 48.5329 1108.67 49.3671 1109.68 49.3671H1115.27C1116.27 49.3671 1117.08 48.5499 1117.08 47.5454V33.4697H1118.88C1119.65 33.4697 1119.89 33.1196 1119.96 32.9109C1120.03 32.7018 1120.07 32.2784 1119.47 31.7924Z" fill="white"/>
</g>
<path d="M170.986 100.565C170.918 99.8778 170.625 99.3437 170.108 98.9631C169.591 98.5824 168.889 98.392 168.003 98.392C167.401 98.392 166.892 98.4773 166.477 98.6477C166.063 98.8125 165.744 99.0426 165.523 99.3381C165.307 99.6335 165.199 99.9688 165.199 100.344C165.188 100.656 165.253 100.929 165.395 101.162C165.543 101.395 165.744 101.597 166 101.767C166.256 101.932 166.551 102.077 166.886 102.202C167.222 102.321 167.58 102.423 167.96 102.509L169.528 102.884C170.29 103.054 170.989 103.281 171.625 103.565C172.261 103.849 172.813 104.199 173.278 104.614C173.744 105.028 174.105 105.517 174.361 106.08C174.622 106.642 174.756 107.287 174.761 108.014C174.756 109.082 174.483 110.009 173.943 110.793C173.409 111.571 172.636 112.176 171.625 112.608C170.619 113.034 169.406 113.247 167.986 113.247C166.577 113.247 165.349 113.031 164.304 112.599C163.264 112.168 162.452 111.528 161.866 110.682C161.287 109.83 160.983 108.776 160.955 107.52H164.526C164.565 108.105 164.733 108.594 165.028 108.986C165.33 109.372 165.73 109.665 166.23 109.864C166.736 110.057 167.307 110.153 167.943 110.153C168.568 110.153 169.111 110.062 169.571 109.881C170.037 109.699 170.398 109.446 170.653 109.122C170.909 108.798 171.037 108.426 171.037 108.006C171.037 107.614 170.92 107.284 170.688 107.017C170.46 106.75 170.125 106.523 169.682 106.335C169.244 106.148 168.707 105.977 168.071 105.824L166.17 105.347C164.699 104.989 163.537 104.429 162.685 103.668C161.832 102.906 161.409 101.881 161.415 100.591C161.409 99.5341 161.69 98.6108 162.259 97.821C162.832 97.0312 163.619 96.4148 164.619 95.9716C165.619 95.5284 166.756 95.3068 168.028 95.3068C169.324 95.3068 170.455 95.5284 171.42 95.9716C172.392 96.4148 173.148 97.0312 173.688 97.821C174.227 98.6108 174.506 99.5256 174.523 100.565H170.986ZM183.09 113.256C181.766 113.256 180.621 112.974 179.656 112.412C178.695 111.844 177.954 111.054 177.431 110.043C176.908 109.026 176.647 107.847 176.647 106.506C176.647 105.153 176.908 103.972 177.431 102.96C177.954 101.943 178.695 101.153 179.656 100.591C180.621 100.023 181.766 99.7386 183.09 99.7386C184.414 99.7386 185.556 100.023 186.516 100.591C187.482 101.153 188.227 101.943 188.749 102.96C189.272 103.972 189.533 105.153 189.533 106.506C189.533 107.847 189.272 109.026 188.749 110.043C188.227 111.054 187.482 111.844 186.516 112.412C185.556 112.974 184.414 113.256 183.09 113.256ZM183.107 110.443C183.71 110.443 184.212 110.273 184.616 109.932C185.019 109.585 185.323 109.114 185.528 108.517C185.738 107.92 185.843 107.241 185.843 106.48C185.843 105.719 185.738 105.04 185.528 104.443C185.323 103.847 185.019 103.375 184.616 103.028C184.212 102.682 183.71 102.509 183.107 102.509C182.499 102.509 181.988 102.682 181.573 103.028C181.164 103.375 180.854 103.847 180.644 104.443C180.44 105.04 180.337 105.719 180.337 106.48C180.337 107.241 180.44 107.92 180.644 108.517C180.854 109.114 181.164 109.585 181.573 109.932C181.988 110.273 182.499 110.443 183.107 110.443ZM191.962 113V95.5455H195.593V102.108H195.704C195.863 101.756 196.093 101.398 196.394 101.034C196.701 100.665 197.099 100.358 197.587 100.114C198.082 99.8636 198.695 99.7386 199.428 99.7386C200.383 99.7386 201.263 99.9886 202.07 100.489C202.877 100.983 203.522 101.73 204.005 102.73C204.488 103.724 204.729 104.972 204.729 106.472C204.729 107.932 204.494 109.165 204.022 110.17C203.556 111.17 202.92 111.929 202.113 112.446C201.312 112.957 200.414 113.213 199.42 113.213C198.715 113.213 198.116 113.097 197.621 112.864C197.133 112.631 196.732 112.338 196.42 111.986C196.107 111.628 195.869 111.267 195.704 110.903H195.542V113H191.962ZM195.516 106.455C195.516 107.233 195.624 107.912 195.84 108.491C196.056 109.071 196.369 109.523 196.778 109.847C197.187 110.165 197.684 110.324 198.269 110.324C198.86 110.324 199.36 110.162 199.769 109.838C200.178 109.509 200.488 109.054 200.698 108.474C200.914 107.889 201.022 107.216 201.022 106.455C201.022 105.699 200.917 105.034 200.707 104.46C200.496 103.886 200.187 103.437 199.778 103.114C199.369 102.79 198.866 102.628 198.269 102.628C197.678 102.628 197.178 102.784 196.769 103.097C196.366 103.409 196.056 103.852 195.84 104.426C195.624 105 195.516 105.676 195.516 106.455ZM207.152 113V99.9091H210.672V102.193H210.808C211.047 101.381 211.447 100.767 212.01 100.352C212.572 99.9318 213.22 99.7216 213.953 99.7216C214.135 99.7216 214.331 99.733 214.541 99.7557C214.751 99.7784 214.936 99.8097 215.095 99.8494V103.071C214.925 103.02 214.689 102.974 214.388 102.935C214.087 102.895 213.811 102.875 213.561 102.875C213.027 102.875 212.55 102.991 212.129 103.224C211.714 103.452 211.385 103.77 211.141 104.179C210.902 104.588 210.783 105.06 210.783 105.594V113H207.152ZM222.329 113.256C220.982 113.256 219.823 112.983 218.852 112.438C217.886 111.886 217.141 111.108 216.619 110.102C216.096 109.091 215.835 107.895 215.835 106.514C215.835 105.168 216.096 103.986 216.619 102.969C217.141 101.952 217.877 101.159 218.826 100.591C219.781 100.023 220.9 99.7386 222.184 99.7386C223.048 99.7386 223.852 99.8778 224.596 100.156C225.346 100.429 225.999 100.841 226.556 101.392C227.119 101.943 227.556 102.636 227.869 103.472C228.181 104.301 228.337 105.273 228.337 106.386V107.384H217.283V105.134H224.92C224.92 104.611 224.806 104.148 224.579 103.744C224.352 103.341 224.036 103.026 223.633 102.798C223.235 102.565 222.772 102.449 222.244 102.449C221.692 102.449 221.204 102.577 220.778 102.832C220.357 103.082 220.028 103.42 219.789 103.847C219.55 104.267 219.428 104.736 219.423 105.253V107.392C219.423 108.04 219.542 108.599 219.781 109.071C220.025 109.543 220.369 109.906 220.812 110.162C221.255 110.418 221.781 110.545 222.388 110.545C222.792 110.545 223.161 110.489 223.496 110.375C223.832 110.261 224.119 110.091 224.357 109.864C224.596 109.636 224.778 109.358 224.903 109.028L228.261 109.25C228.09 110.057 227.741 110.761 227.212 111.364C226.69 111.96 226.013 112.426 225.184 112.761C224.36 113.091 223.408 113.256 222.329 113.256ZM239.892 105.432V113H236.261V99.9091H239.722V102.219H239.875C240.165 101.457 240.651 100.855 241.332 100.412C242.014 99.9631 242.841 99.7386 243.812 99.7386C244.722 99.7386 245.514 99.9375 246.19 100.335C246.866 100.733 247.392 101.301 247.767 102.04C248.142 102.773 248.33 103.648 248.33 104.665V113H244.699V105.312C244.705 104.511 244.5 103.886 244.085 103.438C243.67 102.983 243.099 102.756 242.372 102.756C241.884 102.756 241.452 102.861 241.077 103.071C240.707 103.281 240.418 103.588 240.207 103.991C240.003 104.389 239.898 104.869 239.892 105.432ZM257.106 113.256C255.782 113.256 254.637 112.974 253.671 112.412C252.711 111.844 251.969 111.054 251.447 110.043C250.924 109.026 250.663 107.847 250.663 106.506C250.663 105.153 250.924 103.972 251.447 102.96C251.969 101.943 252.711 101.153 253.671 100.591C254.637 100.023 255.782 99.7386 257.106 99.7386C258.43 99.7386 259.572 100.023 260.532 100.591C261.498 101.153 262.242 101.943 262.765 102.96C263.288 103.972 263.549 105.153 263.549 106.506C263.549 107.847 263.288 109.026 262.765 110.043C262.242 111.054 261.498 111.844 260.532 112.412C259.572 112.974 258.43 113.256 257.106 113.256ZM257.123 110.443C257.725 110.443 258.228 110.273 258.631 109.932C259.035 109.585 259.339 109.114 259.543 108.517C259.754 107.92 259.859 107.241 259.859 106.48C259.859 105.719 259.754 105.04 259.543 104.443C259.339 103.847 259.035 103.375 258.631 103.028C258.228 102.682 257.725 102.509 257.123 102.509C256.515 102.509 256.004 102.682 255.589 103.028C255.18 103.375 254.87 103.847 254.66 104.443C254.455 105.04 254.353 105.719 254.353 106.48C254.353 107.241 254.455 107.92 254.66 108.517C254.87 109.114 255.18 109.585 255.589 109.932C256.004 110.273 256.515 110.443 257.123 110.443ZM255.802 98.2216L257.609 94.3438H260.967L258.367 98.2216H255.802ZM276.802 103.642L273.478 103.847C273.421 103.562 273.299 103.307 273.112 103.08C272.924 102.847 272.677 102.662 272.37 102.526C272.069 102.384 271.708 102.312 271.288 102.312C270.725 102.312 270.251 102.432 269.864 102.67C269.478 102.903 269.285 103.216 269.285 103.608C269.285 103.92 269.41 104.185 269.66 104.401C269.91 104.616 270.339 104.79 270.947 104.92L273.316 105.398C274.589 105.659 275.538 106.08 276.163 106.659C276.788 107.239 277.1 108 277.1 108.943C277.1 109.801 276.847 110.554 276.342 111.202C275.842 111.849 275.154 112.355 274.279 112.719C273.41 113.077 272.407 113.256 271.271 113.256C269.538 113.256 268.157 112.895 267.129 112.173C266.106 111.446 265.506 110.457 265.33 109.207L268.901 109.02C269.009 109.548 269.271 109.952 269.685 110.23C270.1 110.503 270.631 110.639 271.279 110.639C271.915 110.639 272.427 110.517 272.813 110.273C273.205 110.023 273.404 109.702 273.41 109.31C273.404 108.98 273.265 108.71 272.992 108.5C272.719 108.284 272.299 108.119 271.731 108.006L269.464 107.554C268.185 107.298 267.234 106.855 266.609 106.224C265.989 105.594 265.68 104.79 265.68 103.812C265.68 102.972 265.907 102.247 266.362 101.639C266.822 101.031 267.467 100.562 268.296 100.233C269.131 99.9034 270.109 99.7386 271.228 99.7386C272.881 99.7386 274.183 100.088 275.131 100.787C276.086 101.486 276.643 102.437 276.802 103.642Z" fill="black"/>
<defs>
<clipPath id="clip0_1_68">
<rect width="30" height="30" fill="white" transform="translate(1090 20)"/>
</clipPath>
</defs>
</svg>
