<svg width="1280" height="720" viewBox="0 0 1280 720" fill="none" xmlns="http://www.w3.org/2000/svg">
<rect width="1280" height="720" fill="white"/>
<rect width="1280" height="70" fill="#2D28FF"/>
<path d="M162.818 29.3636V41H161.409V29.3636H162.818ZM166.803 35.75V41H165.462V32.2727H166.757V33.6364H166.871C167.075 33.1932 167.386 32.8371 167.803 32.5682C168.219 32.2955 168.757 32.1591 169.416 32.1591C170.007 32.1591 170.524 32.2803 170.967 32.5227C171.411 32.7614 171.755 33.125 172.001 33.6136C172.248 34.0985 172.371 34.7121 172.371 35.4545V41H171.03V35.5455C171.03 34.8598 170.852 34.3258 170.496 33.9432C170.14 33.5568 169.651 33.3636 169.03 33.3636C168.602 33.3636 168.219 33.4564 167.882 33.642C167.549 33.8277 167.286 34.0985 167.092 34.4545C166.899 34.8106 166.803 35.2424 166.803 35.75ZM174.821 41V32.2727H176.162V41H174.821ZM174.889 31.0909L176.276 28.4545H177.844L176.071 31.0909H174.889ZM182.163 41.1818C181.345 41.1818 180.641 40.9886 180.05 40.6023C179.459 40.2159 179.004 39.6837 178.686 39.0057C178.368 38.3277 178.209 37.553 178.209 36.6818C178.209 35.7955 178.372 35.0133 178.697 34.3352C179.027 33.6534 179.485 33.1212 180.072 32.7386C180.663 32.3523 181.353 32.1591 182.141 32.1591C182.754 32.1591 183.307 32.2727 183.8 32.5C184.292 32.7273 184.696 33.0455 185.01 33.4545C185.324 33.8636 185.519 34.3409 185.595 34.8864H184.254C184.152 34.4886 183.925 34.1364 183.572 33.8295C183.224 33.5189 182.754 33.3636 182.163 33.3636C181.641 33.3636 181.182 33.5 180.788 33.7727C180.398 34.0417 180.093 34.4223 179.874 34.9148C179.658 35.4034 179.55 35.9773 179.55 36.6364C179.55 37.3106 179.656 37.8977 179.868 38.3977C180.084 38.8977 180.387 39.286 180.777 39.5625C181.171 39.839 181.633 39.9773 182.163 39.9773C182.512 39.9773 182.828 39.9167 183.112 39.7955C183.396 39.6742 183.637 39.5 183.834 39.2727C184.031 39.0455 184.171 38.7727 184.254 38.4545H185.595C185.519 38.9697 185.332 39.4337 185.033 39.8466C184.737 40.2557 184.345 40.5814 183.857 40.8239C183.372 41.0625 182.807 41.1818 182.163 41.1818ZM187.555 41V32.2727H188.896V41H187.555ZM188.237 30.8182C187.976 30.8182 187.75 30.7292 187.561 30.5511C187.375 30.3731 187.283 30.1591 187.283 29.9091C187.283 29.6591 187.375 29.4451 187.561 29.267C187.75 29.089 187.976 29 188.237 29C188.499 29 188.722 29.089 188.908 29.267C189.097 29.4451 189.192 29.6591 189.192 29.9091C189.192 30.1591 189.097 30.3731 188.908 30.5511C188.722 30.7292 188.499 30.8182 188.237 30.8182ZM194.898 41.1818C194.11 41.1818 193.419 40.9943 192.824 40.6193C192.233 40.2443 191.771 39.7197 191.438 39.0455C191.108 38.3712 190.943 37.5833 190.943 36.6818C190.943 35.7727 191.108 34.9792 191.438 34.3011C191.771 33.6231 192.233 33.0966 192.824 32.7216C193.419 32.3466 194.11 32.1591 194.898 32.1591C195.686 32.1591 196.375 32.3466 196.966 32.7216C197.561 33.0966 198.023 33.6231 198.352 34.3011C198.686 34.9792 198.852 35.7727 198.852 36.6818C198.852 37.5833 198.686 38.3712 198.352 39.0455C198.023 39.7197 197.561 40.2443 196.966 40.6193C196.375 40.9943 195.686 41.1818 194.898 41.1818ZM194.898 39.9773C195.496 39.9773 195.989 39.8239 196.375 39.517C196.761 39.2102 197.047 38.8068 197.233 38.3068C197.419 37.8068 197.511 37.2652 197.511 36.6818C197.511 36.0985 197.419 35.5549 197.233 35.0511C197.047 34.5473 196.761 34.1402 196.375 33.8295C195.989 33.5189 195.496 33.3636 194.898 33.3636C194.299 33.3636 193.807 33.5189 193.42 33.8295C193.034 34.1402 192.748 34.5473 192.562 35.0511C192.377 35.5549 192.284 36.0985 192.284 36.6818C192.284 37.2652 192.377 37.8068 192.562 38.3068C192.748 38.8068 193.034 39.2102 193.42 39.517C193.807 39.8239 194.299 39.9773 194.898 39.9773Z" fill="white"/>
<path d="M221.011 41V29.3636H225.602C226.485 29.3636 227.237 29.5322 227.858 29.8693C228.479 30.2027 228.953 30.6667 229.278 31.2614C229.608 31.8523 229.773 32.5341 229.773 33.3068C229.773 34.0795 229.606 34.7614 229.273 35.3523C228.939 35.9432 228.456 36.4034 227.824 36.733C227.195 37.0625 226.434 37.2273 225.54 37.2273H222.614V35.2557H225.142C225.616 35.2557 226.006 35.1742 226.312 35.0114C226.623 34.8447 226.854 34.6155 227.006 34.3239C227.161 34.0284 227.239 33.6894 227.239 33.3068C227.239 32.9205 227.161 32.5833 227.006 32.2955C226.854 32.0038 226.623 31.7784 226.312 31.6193C226.002 31.4564 225.608 31.375 225.131 31.375H223.472V41H221.011ZM231.325 41V32.2727H233.672V33.7955H233.763C233.922 33.2538 234.189 32.8447 234.564 32.5682C234.939 32.2879 235.371 32.1477 235.859 32.1477C235.981 32.1477 236.111 32.1553 236.251 32.1705C236.392 32.1856 236.515 32.2064 236.621 32.233V34.3807C236.507 34.3466 236.35 34.3163 236.149 34.2898C235.948 34.2633 235.765 34.25 235.598 34.25C235.242 34.25 234.924 34.3277 234.643 34.483C234.367 34.6345 234.147 34.8466 233.984 35.1193C233.825 35.392 233.746 35.7064 233.746 36.0625V41H231.325ZM241.409 41.1705C240.527 41.1705 239.763 40.983 239.119 40.608C238.479 40.2292 237.985 39.7027 237.636 39.0284C237.288 38.3504 237.114 37.5644 237.114 36.6705C237.114 35.7689 237.288 34.9811 237.636 34.3068C237.985 33.6288 238.479 33.1023 239.119 32.7273C239.763 32.3485 240.527 32.1591 241.409 32.1591C242.292 32.1591 243.053 32.3485 243.693 32.7273C244.337 33.1023 244.833 33.6288 245.182 34.3068C245.53 34.9811 245.705 35.7689 245.705 36.6705C245.705 37.5644 245.53 38.3504 245.182 39.0284C244.833 39.7027 244.337 40.2292 243.693 40.608C243.053 40.983 242.292 41.1705 241.409 41.1705ZM241.42 39.2955C241.822 39.2955 242.157 39.1818 242.426 38.9545C242.695 38.7235 242.898 38.4091 243.034 38.0114C243.174 37.6136 243.244 37.161 243.244 36.6534C243.244 36.1458 243.174 35.6932 243.034 35.2955C242.898 34.8977 242.695 34.5833 242.426 34.3523C242.157 34.1212 241.822 34.0057 241.42 34.0057C241.015 34.0057 240.674 34.1212 240.398 34.3523C240.125 34.5833 239.919 34.8977 239.778 35.2955C239.642 35.6932 239.574 36.1458 239.574 36.6534C239.574 37.161 239.642 37.6136 239.778 38.0114C239.919 38.4091 240.125 38.7235 240.398 38.9545C240.674 39.1818 241.015 39.2955 241.42 39.2955ZM250.494 41.142C249.831 41.142 249.231 40.9716 248.693 40.6307C248.159 40.286 247.735 39.7803 247.42 39.1136C247.11 38.4432 246.955 37.6212 246.955 36.6477C246.955 35.6477 247.116 34.8163 247.438 34.1534C247.759 33.4867 248.188 32.9886 248.722 32.6591C249.259 32.3258 249.848 32.1591 250.489 32.1591C250.977 32.1591 251.384 32.2424 251.71 32.4091C252.04 32.572 252.305 32.7765 252.506 33.0227C252.71 33.2652 252.866 33.5038 252.972 33.7386H253.045V29.3636H255.46V41H253.074V39.6023H252.972C252.858 39.8447 252.697 40.0852 252.489 40.3239C252.284 40.5587 252.017 40.7538 251.688 40.9091C251.362 41.0644 250.964 41.142 250.494 41.142ZM251.261 39.2159C251.652 39.2159 251.981 39.1098 252.25 38.8977C252.523 38.6818 252.731 38.3807 252.875 37.9943C253.023 37.608 253.097 37.1553 253.097 36.6364C253.097 36.1174 253.025 35.6667 252.881 35.2841C252.737 34.9015 252.528 34.6061 252.256 34.3977C251.983 34.1894 251.652 34.0852 251.261 34.0852C250.864 34.0852 250.528 34.1932 250.256 34.4091C249.983 34.625 249.777 34.9242 249.636 35.3068C249.496 35.6894 249.426 36.1326 249.426 36.6364C249.426 37.1439 249.496 37.5928 249.636 37.983C249.78 38.3693 249.987 38.6723 250.256 38.892C250.528 39.108 250.864 39.2159 251.261 39.2159ZM263.047 37.2841V32.2727H265.467V41H263.143V39.4148H263.053C262.856 39.9261 262.528 40.3371 262.07 40.6477C261.615 40.9583 261.06 41.1136 260.405 41.1136C259.821 41.1136 259.308 40.9811 258.865 40.7159C258.422 40.4508 258.075 40.0739 257.825 39.5852C257.579 39.0966 257.454 38.5114 257.45 37.8295V32.2727H259.871V37.3977C259.875 37.9129 260.013 38.3201 260.286 38.6193C260.558 38.9186 260.924 39.0682 261.382 39.0682C261.674 39.0682 261.946 39.0019 262.2 38.8693C262.454 38.733 262.659 38.5322 262.814 38.267C262.973 38.0019 263.051 37.6742 263.047 37.2841ZM272.045 32.2727V34.0909H266.79V32.2727H272.045ZM267.983 30.1818H270.403V38.3182C270.403 38.5417 270.438 38.7159 270.506 38.8409C270.574 38.9621 270.669 39.0473 270.79 39.0966C270.915 39.1458 271.059 39.1705 271.222 39.1705C271.335 39.1705 271.449 39.161 271.562 39.142C271.676 39.1193 271.763 39.1023 271.824 39.0909L272.205 40.892C272.083 40.9299 271.913 40.9735 271.693 41.0227C271.473 41.0758 271.206 41.108 270.892 41.1193C270.309 41.142 269.797 41.0644 269.358 40.8864C268.922 40.7083 268.583 40.4318 268.341 40.0568C268.098 39.6818 267.979 39.2083 267.983 38.6364V30.1818ZM277.472 41.1705C276.589 41.1705 275.826 40.983 275.182 40.608C274.542 40.2292 274.047 39.7027 273.699 39.0284C273.35 38.3504 273.176 37.5644 273.176 36.6705C273.176 35.7689 273.35 34.9811 273.699 34.3068C274.047 33.6288 274.542 33.1023 275.182 32.7273C275.826 32.3485 276.589 32.1591 277.472 32.1591C278.354 32.1591 279.116 32.3485 279.756 32.7273C280.4 33.1023 280.896 33.6288 281.244 34.3068C281.593 34.9811 281.767 35.7689 281.767 36.6705C281.767 37.5644 281.593 38.3504 281.244 39.0284C280.896 39.7027 280.4 40.2292 279.756 40.608C279.116 40.983 278.354 41.1705 277.472 41.1705ZM277.483 39.2955C277.884 39.2955 278.22 39.1818 278.489 38.9545C278.758 38.7235 278.96 38.4091 279.097 38.0114C279.237 37.6136 279.307 37.161 279.307 36.6534C279.307 36.1458 279.237 35.6932 279.097 35.2955C278.96 34.8977 278.758 34.5833 278.489 34.3523C278.22 34.1212 277.884 34.0057 277.483 34.0057C277.078 34.0057 276.737 34.1212 276.46 34.3523C276.188 34.5833 275.981 34.8977 275.841 35.2955C275.705 35.6932 275.636 36.1458 275.636 36.6534C275.636 37.161 275.705 37.6136 275.841 38.0114C275.981 38.4091 276.188 38.7235 276.46 38.9545C276.737 39.1818 277.078 39.2955 277.483 39.2955ZM290.602 34.7614L288.386 34.8977C288.348 34.7083 288.267 34.5379 288.142 34.3864C288.017 34.2311 287.852 34.108 287.648 34.017C287.447 33.9223 287.206 33.875 286.926 33.875C286.551 33.875 286.235 33.9545 285.977 34.1136C285.72 34.2689 285.591 34.4773 285.591 34.7386C285.591 34.947 285.674 35.1231 285.841 35.267C286.008 35.411 286.294 35.5265 286.699 35.6136L288.278 35.9318C289.127 36.1061 289.759 36.3864 290.176 36.7727C290.593 37.1591 290.801 37.6667 290.801 38.2955C290.801 38.8674 290.633 39.3693 290.295 39.8011C289.962 40.233 289.504 40.5701 288.92 40.8125C288.341 41.0511 287.672 41.1705 286.915 41.1705C285.759 41.1705 284.839 40.9299 284.153 40.4489C283.472 39.964 283.072 39.3049 282.955 38.4716L285.335 38.3466C285.407 38.6989 285.581 38.9678 285.858 39.1534C286.134 39.3352 286.489 39.4261 286.92 39.4261C287.345 39.4261 287.686 39.3447 287.943 39.1818C288.205 39.0152 288.337 38.8011 288.341 38.5398C288.337 38.3201 288.244 38.1402 288.062 38C287.881 37.8561 287.6 37.7462 287.222 37.6705L285.71 37.3693C284.858 37.1989 284.223 36.9034 283.807 36.483C283.394 36.0625 283.188 35.5265 283.188 34.875C283.188 34.3144 283.339 33.8314 283.642 33.4261C283.949 33.0208 284.379 32.7083 284.932 32.4886C285.489 32.2689 286.14 32.1591 286.886 32.1591C287.989 32.1591 288.856 32.392 289.489 32.858C290.125 33.3239 290.496 33.9583 290.602 34.7614Z" fill="white"/>
<path d="M319.773 32.2727C319.705 31.697 319.428 31.25 318.943 30.9318C318.458 30.6136 317.864 30.4545 317.159 30.4545C316.644 30.4545 316.193 30.5379 315.807 30.7045C315.424 30.8712 315.125 31.1004 314.909 31.392C314.697 31.6837 314.591 32.0152 314.591 32.3864C314.591 32.697 314.665 32.964 314.812 33.1875C314.964 33.4072 315.157 33.5909 315.392 33.7386C315.627 33.8826 315.873 34.0019 316.131 34.0966C316.388 34.1875 316.625 34.2614 316.841 34.3182L318.023 34.6364C318.326 34.7159 318.663 34.8258 319.034 34.9659C319.409 35.1061 319.767 35.2973 320.108 35.5398C320.453 35.7784 320.737 36.0852 320.96 36.4602C321.184 36.8352 321.295 37.2955 321.295 37.8409C321.295 38.4697 321.131 39.0379 320.801 39.5455C320.475 40.053 319.998 40.4564 319.369 40.7557C318.744 41.0549 317.985 41.2045 317.091 41.2045C316.258 41.2045 315.536 41.0701 314.926 40.8011C314.32 40.5322 313.843 40.1572 313.494 39.6761C313.15 39.1951 312.955 38.6364 312.909 38H314.364C314.402 38.4394 314.549 38.803 314.807 39.0909C315.068 39.375 315.398 39.5871 315.795 39.7273C316.197 39.8636 316.629 39.9318 317.091 39.9318C317.629 39.9318 318.112 39.8447 318.54 39.6705C318.968 39.4924 319.307 39.2462 319.557 38.9318C319.807 38.6136 319.932 38.2424 319.932 37.8182C319.932 37.4318 319.824 37.1174 319.608 36.875C319.392 36.6326 319.108 36.4356 318.756 36.2841C318.403 36.1326 318.023 36 317.614 35.8864L316.182 35.4773C315.273 35.2159 314.553 34.8428 314.023 34.358C313.492 33.8731 313.227 33.2386 313.227 32.4545C313.227 31.803 313.403 31.2348 313.756 30.75C314.112 30.2614 314.589 29.8826 315.188 29.6136C315.79 29.3409 316.462 29.2045 317.205 29.2045C317.955 29.2045 318.621 29.339 319.205 29.608C319.788 29.8731 320.25 30.2367 320.591 30.6989C320.936 31.161 321.117 31.6856 321.136 32.2727H319.773ZM326.976 41.1818C326.188 41.1818 325.497 40.9943 324.902 40.6193C324.311 40.2443 323.849 39.7197 323.516 39.0455C323.186 38.3712 323.021 37.5833 323.021 36.6818C323.021 35.7727 323.186 34.9792 323.516 34.3011C323.849 33.6231 324.311 33.0966 324.902 32.7216C325.497 32.3466 326.188 32.1591 326.976 32.1591C327.764 32.1591 328.453 32.3466 329.044 32.7216C329.639 33.0966 330.101 33.6231 330.43 34.3011C330.764 34.9792 330.93 35.7727 330.93 36.6818C330.93 37.5833 330.764 38.3712 330.43 39.0455C330.101 39.7197 329.639 40.2443 329.044 40.6193C328.453 40.9943 327.764 41.1818 326.976 41.1818ZM326.976 39.9773C327.574 39.9773 328.067 39.8239 328.453 39.517C328.839 39.2102 329.125 38.8068 329.311 38.3068C329.497 37.8068 329.589 37.2652 329.589 36.6818C329.589 36.0985 329.497 35.5549 329.311 35.0511C329.125 34.5473 328.839 34.1402 328.453 33.8295C328.067 33.5189 327.574 33.3636 326.976 33.3636C326.377 33.3636 325.885 33.5189 325.499 33.8295C325.112 34.1402 324.826 34.5473 324.641 35.0511C324.455 35.5549 324.362 36.0985 324.362 36.6818C324.362 37.2652 324.455 37.8068 324.641 38.3068C324.826 38.8068 325.112 39.2102 325.499 39.517C325.885 39.8239 326.377 39.9773 326.976 39.9773ZM333.159 41V29.3636H334.5V33.6591H334.614C334.712 33.5076 334.848 33.3144 335.023 33.0795C335.201 32.8409 335.455 32.6288 335.784 32.4432C336.117 32.2538 336.568 32.1591 337.136 32.1591C337.871 32.1591 338.519 32.3428 339.08 32.7102C339.64 33.0777 340.078 33.5985 340.392 34.2727C340.706 34.947 340.864 35.7424 340.864 36.6591C340.864 37.5833 340.706 38.3845 340.392 39.0625C340.078 39.7367 339.642 40.2595 339.085 40.6307C338.528 40.9981 337.886 41.1818 337.159 41.1818C336.598 41.1818 336.15 41.089 335.812 40.9034C335.475 40.714 335.216 40.5 335.034 40.2614C334.852 40.0189 334.712 39.8182 334.614 39.6591H334.455V41H333.159ZM334.477 36.6364C334.477 37.2955 334.574 37.8769 334.767 38.3807C334.96 38.8807 335.242 39.2727 335.614 39.5568C335.985 39.8371 336.439 39.9773 336.977 39.9773C337.538 39.9773 338.006 39.8295 338.381 39.5341C338.759 39.2348 339.044 38.8333 339.233 38.3295C339.426 37.822 339.523 37.2576 339.523 36.6364C339.523 36.0227 339.428 35.4697 339.239 34.9773C339.053 34.4811 338.771 34.089 338.392 33.8011C338.017 33.5095 337.545 33.3636 336.977 33.3636C336.432 33.3636 335.973 33.5019 335.602 33.7784C335.231 34.0511 334.951 34.4337 334.761 34.9261C334.572 35.4148 334.477 35.9848 334.477 36.6364ZM342.915 41V32.2727H344.21V33.5909H344.301C344.46 33.1591 344.748 32.8087 345.165 32.5398C345.581 32.2708 346.051 32.1364 346.574 32.1364C346.672 32.1364 346.795 32.1383 346.943 32.142C347.091 32.1458 347.203 32.1515 347.278 32.1591V33.5227C347.233 33.5114 347.129 33.4943 346.966 33.4716C346.807 33.4451 346.638 33.4318 346.46 33.4318C346.036 33.4318 345.657 33.5208 345.324 33.6989C344.994 33.8731 344.733 34.1155 344.54 34.4261C344.35 34.733 344.256 35.0833 344.256 35.4773V41H342.915ZM352.261 41.1818C351.42 41.1818 350.695 40.9962 350.085 40.625C349.479 40.25 349.011 39.7273 348.682 39.0568C348.356 38.3826 348.193 37.5985 348.193 36.7045C348.193 35.8106 348.356 35.0227 348.682 34.3409C349.011 33.6553 349.47 33.1212 350.057 32.7386C350.648 32.3523 351.337 32.1591 352.125 32.1591C352.58 32.1591 353.028 32.2348 353.472 32.3864C353.915 32.5379 354.318 32.7841 354.682 33.125C355.045 33.4621 355.335 33.9091 355.551 34.4659C355.767 35.0227 355.875 35.7083 355.875 36.5227V37.0909H349.148V35.9318H354.511C354.511 35.4394 354.413 35 354.216 34.6136C354.023 34.2273 353.746 33.9223 353.386 33.6989C353.03 33.4754 352.61 33.3636 352.125 33.3636C351.591 33.3636 351.129 33.4962 350.739 33.7614C350.352 34.0227 350.055 34.3636 349.847 34.7841C349.638 35.2045 349.534 35.6553 349.534 36.1364V36.9091C349.534 37.5682 349.648 38.1269 349.875 38.5852C350.106 39.0398 350.426 39.3864 350.835 39.625C351.244 39.8598 351.72 39.9773 352.261 39.9773C352.614 39.9773 352.932 39.928 353.216 39.8295C353.504 39.7273 353.752 39.5758 353.96 39.375C354.169 39.1705 354.33 38.9167 354.443 38.6136L355.739 38.9773C355.602 39.4167 355.373 39.803 355.051 40.1364C354.729 40.4659 354.331 40.7235 353.858 40.9091C353.384 41.0909 352.852 41.1818 352.261 41.1818ZM363.756 35.75V41H362.415V32.2727H363.71V33.6364H363.824C364.028 33.1932 364.339 32.8371 364.756 32.5682C365.172 32.2955 365.71 32.1591 366.369 32.1591C366.96 32.1591 367.477 32.2803 367.92 32.5227C368.364 32.7614 368.708 33.125 368.955 33.6136C369.201 34.0985 369.324 34.7121 369.324 35.4545V41H367.983V35.5455C367.983 34.8598 367.805 34.3258 367.449 33.9432C367.093 33.5568 366.604 33.3636 365.983 33.3636C365.555 33.3636 365.172 33.4564 364.835 33.642C364.502 33.8277 364.239 34.0985 364.045 34.4545C363.852 34.8106 363.756 35.2424 363.756 35.75ZM375.32 41.1818C374.532 41.1818 373.84 40.9943 373.246 40.6193C372.655 40.2443 372.193 39.7197 371.859 39.0455C371.53 38.3712 371.365 37.5833 371.365 36.6818C371.365 35.7727 371.53 34.9792 371.859 34.3011C372.193 33.6231 372.655 33.0966 373.246 32.7216C373.84 32.3466 374.532 32.1591 375.32 32.1591C376.107 32.1591 376.797 32.3466 377.388 32.7216C377.982 33.0966 378.445 33.6231 378.774 34.3011C379.107 34.9792 379.274 35.7727 379.274 36.6818C379.274 37.5833 379.107 38.3712 378.774 39.0455C378.445 39.7197 377.982 40.2443 377.388 40.6193C376.797 40.9943 376.107 41.1818 375.32 41.1818ZM375.32 39.9773C375.918 39.9773 376.411 39.8239 376.797 39.517C377.183 39.2102 377.469 38.8068 377.655 38.3068C377.84 37.8068 377.933 37.2652 377.933 36.6818C377.933 36.0985 377.84 35.5549 377.655 35.0511C377.469 34.5473 377.183 34.1402 376.797 33.8295C376.411 33.5189 375.918 33.3636 375.32 33.3636C374.721 33.3636 374.229 33.5189 373.842 33.8295C373.456 34.1402 373.17 34.5473 372.984 35.0511C372.799 35.5549 372.706 36.0985 372.706 36.6818C372.706 37.2652 372.799 37.8068 372.984 38.3068C373.17 38.8068 373.456 39.2102 373.842 39.517C374.229 39.8239 374.721 39.9773 375.32 39.9773ZM374.706 31.0909L376.092 28.4545H377.661L375.888 31.0909H374.706ZM387.503 34.2273L386.298 34.5682C386.223 34.3674 386.111 34.1723 385.963 33.983C385.819 33.7898 385.622 33.6307 385.372 33.5057C385.122 33.3807 384.802 33.3182 384.412 33.3182C383.878 33.3182 383.433 33.4413 383.077 33.6875C382.724 33.9299 382.548 34.2386 382.548 34.6136C382.548 34.947 382.67 35.2102 382.912 35.4034C383.154 35.5966 383.533 35.7576 384.048 35.8864L385.344 36.2045C386.124 36.3939 386.705 36.6837 387.088 37.0739C387.471 37.4602 387.662 37.9583 387.662 38.5682C387.662 39.0682 387.518 39.5152 387.23 39.9091C386.946 40.303 386.548 40.6136 386.037 40.8409C385.526 41.0682 384.931 41.1818 384.253 41.1818C383.363 41.1818 382.626 40.9886 382.043 40.6023C381.459 40.2159 381.09 39.6515 380.935 38.9091L382.207 38.5909C382.329 39.0606 382.558 39.4129 382.895 39.6477C383.236 39.8826 383.681 40 384.23 40C384.855 40 385.351 39.8674 385.719 39.6023C386.09 39.3333 386.276 39.0114 386.276 38.6364C386.276 38.3333 386.17 38.0795 385.957 37.875C385.745 37.6667 385.42 37.5114 384.98 37.4091L383.526 37.0682C382.726 36.8788 382.139 36.5852 381.764 36.1875C381.393 35.786 381.207 35.2841 381.207 34.6818C381.207 34.1894 381.346 33.7538 381.622 33.375C381.902 32.9962 382.283 32.6989 382.764 32.483C383.249 32.267 383.798 32.1591 384.412 32.1591C385.276 32.1591 385.954 32.3485 386.446 32.7273C386.942 33.1061 387.295 33.6061 387.503 34.2273Z" fill="white"/>
<g clip-path="url(#clip0_1_38)">
<path d="M1119.47 31.7924L1115.72 28.7331V23.8404C1115.72 23.2894 1115.27 22.8411 1114.72 22.8411H1112.36C1111.81 22.8411 1111.36 23.2894 1111.36 23.8404V25.1791L1106.34 21.0913C1105.98 20.7957 1105.5 20.6328 1105 20.6328C1104.49 20.6328 1104.02 20.7947 1103.66 21.0888L1090.53 31.7923C1089.93 32.2784 1089.97 32.7018 1090.04 32.9109C1090.11 33.1196 1090.35 33.4697 1091.12 33.4697H1092.92V47.5454C1092.92 48.55 1093.73 49.3671 1094.73 49.3671H1100.41C1101.41 49.3671 1102.18 48.5669 1102.18 47.5454V41.7732C1102.18 41.2785 1102.64 40.828 1103.14 40.828H1106.95C1107.43 40.828 1107.82 41.2521 1107.82 41.7732V47.5454C1107.82 48.5329 1108.67 49.3671 1109.68 49.3671H1115.27C1116.27 49.3671 1117.08 48.5499 1117.08 47.5454V33.4697H1118.88C1119.65 33.4697 1119.89 33.1196 1119.96 32.9109C1120.03 32.7018 1120.07 32.2784 1119.47 31.7924Z" fill="white"/>
</g>
<rect x="160" y="90" width="960" height="60" fill="#C7C7C7"/>
<path d="M190.773 117H189.364C189.28 116.595 189.134 116.239 188.926 115.932C188.722 115.625 188.472 115.367 188.176 115.159C187.884 114.947 187.561 114.788 187.205 114.682C186.848 114.576 186.477 114.523 186.091 114.523C185.386 114.523 184.748 114.701 184.176 115.057C183.608 115.413 183.155 115.938 182.818 116.631C182.485 117.324 182.318 118.174 182.318 119.182C182.318 120.189 182.485 121.04 182.818 121.733C183.155 122.426 183.608 122.951 184.176 123.307C184.748 123.663 185.386 123.841 186.091 123.841C186.477 123.841 186.848 123.788 187.205 123.682C187.561 123.576 187.884 123.419 188.176 123.21C188.472 122.998 188.722 122.739 188.926 122.432C189.134 122.121 189.28 121.765 189.364 121.364H190.773C190.667 121.958 190.473 122.491 190.193 122.96C189.913 123.43 189.564 123.83 189.148 124.159C188.731 124.485 188.263 124.733 187.744 124.903C187.229 125.074 186.678 125.159 186.091 125.159C185.098 125.159 184.216 124.917 183.443 124.432C182.67 123.947 182.063 123.258 181.619 122.364C181.176 121.47 180.955 120.409 180.955 119.182C180.955 117.955 181.176 116.894 181.619 116C182.063 115.106 182.67 114.417 183.443 113.932C184.216 113.447 185.098 113.205 186.091 113.205C186.678 113.205 187.229 113.29 187.744 113.46C188.263 113.631 188.731 113.881 189.148 114.21C189.564 114.536 189.913 114.934 190.193 115.403C190.473 115.869 190.667 116.402 190.773 117ZM196.413 125.182C195.625 125.182 194.934 124.994 194.339 124.619C193.749 124.244 193.286 123.72 192.953 123.045C192.624 122.371 192.459 121.583 192.459 120.682C192.459 119.773 192.624 118.979 192.953 118.301C193.286 117.623 193.749 117.097 194.339 116.722C194.934 116.347 195.625 116.159 196.413 116.159C197.201 116.159 197.891 116.347 198.482 116.722C199.076 117.097 199.538 117.623 199.868 118.301C200.201 118.979 200.368 119.773 200.368 120.682C200.368 121.583 200.201 122.371 199.868 123.045C199.538 123.72 199.076 124.244 198.482 124.619C197.891 124.994 197.201 125.182 196.413 125.182ZM196.413 123.977C197.012 123.977 197.504 123.824 197.891 123.517C198.277 123.21 198.563 122.807 198.749 122.307C198.934 121.807 199.027 121.265 199.027 120.682C199.027 120.098 198.934 119.555 198.749 119.051C198.563 118.547 198.277 118.14 197.891 117.83C197.504 117.519 197.012 117.364 196.413 117.364C195.815 117.364 195.322 117.519 194.936 117.83C194.55 118.14 194.264 118.547 194.078 119.051C193.893 119.555 193.8 120.098 193.8 120.682C193.8 121.265 193.893 121.807 194.078 122.307C194.264 122.807 194.55 123.21 194.936 123.517C195.322 123.824 195.815 123.977 196.413 123.977ZM202.415 125V116.273H203.71V117.636H203.824C204.006 117.17 204.299 116.809 204.705 116.551C205.11 116.29 205.597 116.159 206.165 116.159C206.741 116.159 207.22 116.29 207.602 116.551C207.989 116.809 208.29 117.17 208.506 117.636H208.597C208.82 117.186 209.155 116.828 209.602 116.562C210.049 116.294 210.585 116.159 211.21 116.159C211.991 116.159 212.629 116.403 213.125 116.892C213.621 117.377 213.869 118.133 213.869 119.159V125H212.528V119.159C212.528 118.515 212.352 118.055 212 117.778C211.648 117.502 211.233 117.364 210.756 117.364C210.142 117.364 209.667 117.549 209.33 117.92C208.992 118.288 208.824 118.754 208.824 119.318V125H207.46V119.023C207.46 118.527 207.299 118.127 206.977 117.824C206.655 117.517 206.241 117.364 205.733 117.364C205.384 117.364 205.059 117.456 204.756 117.642C204.456 117.828 204.214 118.085 204.028 118.415C203.847 118.741 203.756 119.117 203.756 119.545V125H202.415ZM216.321 128.273V116.273H217.616V117.659H217.776C217.874 117.508 218.01 117.314 218.185 117.08C218.363 116.841 218.616 116.629 218.946 116.443C219.279 116.254 219.73 116.159 220.298 116.159C221.033 116.159 221.681 116.343 222.241 116.71C222.802 117.078 223.24 117.598 223.554 118.273C223.868 118.947 224.026 119.742 224.026 120.659C224.026 121.583 223.868 122.384 223.554 123.062C223.24 123.737 222.804 124.259 222.247 124.631C221.69 124.998 221.048 125.182 220.321 125.182C219.76 125.182 219.312 125.089 218.974 124.903C218.637 124.714 218.378 124.5 218.196 124.261C218.014 124.019 217.874 123.818 217.776 123.659H217.662V128.273H216.321ZM217.639 120.636C217.639 121.295 217.736 121.877 217.929 122.381C218.122 122.881 218.404 123.273 218.776 123.557C219.147 123.837 219.601 123.977 220.139 123.977C220.7 123.977 221.168 123.83 221.543 123.534C221.921 123.235 222.205 122.833 222.395 122.33C222.588 121.822 222.685 121.258 222.685 120.636C222.685 120.023 222.59 119.47 222.401 118.977C222.215 118.481 221.933 118.089 221.554 117.801C221.179 117.509 220.707 117.364 220.139 117.364C219.594 117.364 219.135 117.502 218.764 117.778C218.393 118.051 218.113 118.434 217.923 118.926C217.734 119.415 217.639 119.985 217.639 120.636ZM231.571 121.432V116.273H232.912V125H231.571V123.523H231.48C231.276 123.966 230.957 124.343 230.526 124.653C230.094 124.96 229.548 125.114 228.889 125.114C228.344 125.114 227.859 124.994 227.435 124.756C227.01 124.513 226.677 124.15 226.435 123.665C226.192 123.176 226.071 122.561 226.071 121.818V116.273H227.412V121.727C227.412 122.364 227.59 122.871 227.946 123.25C228.306 123.629 228.764 123.818 229.321 123.818C229.654 123.818 229.993 123.733 230.338 123.562C230.687 123.392 230.978 123.131 231.213 122.778C231.452 122.426 231.571 121.977 231.571 121.432ZM239.163 116.273V117.409H234.641V116.273H239.163ZM235.959 114.182H237.3V122.5C237.3 122.879 237.355 123.163 237.464 123.352C237.578 123.538 237.722 123.663 237.896 123.727C238.074 123.788 238.262 123.818 238.459 123.818C238.607 123.818 238.728 123.811 238.822 123.795C238.917 123.777 238.993 123.761 239.05 123.75L239.322 124.955C239.232 124.989 239.105 125.023 238.942 125.057C238.779 125.095 238.572 125.114 238.322 125.114C237.944 125.114 237.572 125.032 237.209 124.869C236.849 124.706 236.55 124.458 236.311 124.125C236.076 123.792 235.959 123.371 235.959 122.864V114.182ZM243.749 125.205C243.196 125.205 242.694 125.1 242.243 124.892C241.792 124.68 241.434 124.375 241.169 123.977C240.904 123.576 240.771 123.091 240.771 122.523C240.771 122.023 240.87 121.617 241.067 121.307C241.264 120.992 241.527 120.746 241.857 120.568C242.186 120.39 242.55 120.258 242.947 120.17C243.349 120.08 243.752 120.008 244.158 119.955C244.688 119.886 245.118 119.835 245.447 119.801C245.781 119.763 246.023 119.701 246.175 119.614C246.33 119.527 246.408 119.375 246.408 119.159V119.114C246.408 118.553 246.254 118.117 245.947 117.807C245.644 117.496 245.184 117.341 244.567 117.341C243.927 117.341 243.425 117.481 243.061 117.761C242.697 118.042 242.442 118.341 242.294 118.659L241.021 118.205C241.249 117.674 241.552 117.261 241.93 116.966C242.313 116.667 242.73 116.458 243.18 116.341C243.635 116.22 244.082 116.159 244.521 116.159C244.802 116.159 245.124 116.193 245.487 116.261C245.855 116.326 246.209 116.46 246.55 116.665C246.894 116.869 247.18 117.178 247.408 117.591C247.635 118.004 247.749 118.557 247.749 119.25V125H246.408V123.818H246.339C246.249 124.008 246.097 124.21 245.885 124.426C245.673 124.642 245.391 124.826 245.038 124.977C244.686 125.129 244.256 125.205 243.749 125.205ZM243.953 124C244.483 124 244.93 123.896 245.294 123.688C245.661 123.479 245.938 123.21 246.124 122.881C246.313 122.551 246.408 122.205 246.408 121.841V120.614C246.351 120.682 246.226 120.744 246.033 120.801C245.843 120.854 245.624 120.902 245.374 120.943C245.127 120.981 244.887 121.015 244.652 121.045C244.421 121.072 244.233 121.095 244.089 121.114C243.741 121.159 243.415 121.233 243.112 121.335C242.813 121.434 242.571 121.583 242.385 121.784C242.203 121.981 242.112 122.25 242.112 122.591C242.112 123.057 242.285 123.409 242.629 123.648C242.978 123.883 243.419 124 243.953 124ZM253.491 125.182C252.764 125.182 252.122 124.998 251.565 124.631C251.009 124.259 250.573 123.737 250.259 123.062C249.944 122.384 249.787 121.583 249.787 120.659C249.787 119.742 249.944 118.947 250.259 118.273C250.573 117.598 251.01 117.078 251.571 116.71C252.132 116.343 252.779 116.159 253.514 116.159C254.082 116.159 254.531 116.254 254.861 116.443C255.194 116.629 255.448 116.841 255.622 117.08C255.8 117.314 255.938 117.508 256.037 117.659H256.151V113.364H257.491V125H256.196V123.659H256.037C255.938 123.818 255.798 124.019 255.616 124.261C255.435 124.5 255.175 124.714 254.838 124.903C254.501 125.089 254.052 125.182 253.491 125.182ZM253.673 123.977C254.211 123.977 254.666 123.837 255.037 123.557C255.408 123.273 255.69 122.881 255.884 122.381C256.077 121.877 256.173 121.295 256.173 120.636C256.173 119.985 256.079 119.415 255.889 118.926C255.7 118.434 255.42 118.051 255.048 117.778C254.677 117.502 254.219 117.364 253.673 117.364C253.105 117.364 252.632 117.509 252.253 117.801C251.878 118.089 251.596 118.481 251.406 118.977C251.221 119.47 251.128 120.023 251.128 120.636C251.128 121.258 251.223 121.822 251.412 122.33C251.605 122.833 251.889 123.235 252.264 123.534C252.643 123.83 253.113 123.977 253.673 123.977ZM263.679 125.182C262.891 125.182 262.2 124.994 261.605 124.619C261.014 124.244 260.552 123.72 260.219 123.045C259.889 122.371 259.724 121.583 259.724 120.682C259.724 119.773 259.889 118.979 260.219 118.301C260.552 117.623 261.014 117.097 261.605 116.722C262.2 116.347 262.891 116.159 263.679 116.159C264.467 116.159 265.156 116.347 265.747 116.722C266.342 117.097 266.804 117.623 267.134 118.301C267.467 118.979 267.634 119.773 267.634 120.682C267.634 121.583 267.467 122.371 267.134 123.045C266.804 123.72 266.342 124.244 265.747 124.619C265.156 124.994 264.467 125.182 263.679 125.182ZM263.679 123.977C264.277 123.977 264.77 123.824 265.156 123.517C265.543 123.21 265.829 122.807 266.014 122.307C266.2 121.807 266.293 121.265 266.293 120.682C266.293 120.098 266.2 119.555 266.014 119.051C265.829 118.547 265.543 118.14 265.156 117.83C264.77 117.519 264.277 117.364 263.679 117.364C263.08 117.364 262.588 117.519 262.202 117.83C261.815 118.14 261.529 118.547 261.344 119.051C261.158 119.555 261.065 120.098 261.065 120.682C261.065 121.265 261.158 121.807 261.344 122.307C261.529 122.807 261.815 123.21 262.202 123.517C262.588 123.824 263.08 123.977 263.679 123.977ZM269.68 125V116.273H270.976V117.591H271.067C271.226 117.159 271.514 116.809 271.93 116.54C272.347 116.271 272.817 116.136 273.339 116.136C273.438 116.136 273.561 116.138 273.709 116.142C273.857 116.146 273.968 116.152 274.044 116.159V117.523C273.999 117.511 273.894 117.494 273.732 117.472C273.572 117.445 273.404 117.432 273.226 117.432C272.802 117.432 272.423 117.521 272.089 117.699C271.76 117.873 271.499 118.116 271.305 118.426C271.116 118.733 271.021 119.083 271.021 119.477V125H269.68ZM279.027 125.182C278.186 125.182 277.461 124.996 276.851 124.625C276.245 124.25 275.777 123.727 275.447 123.057C275.122 122.383 274.959 121.598 274.959 120.705C274.959 119.811 275.122 119.023 275.447 118.341C275.777 117.655 276.235 117.121 276.822 116.739C277.413 116.352 278.103 116.159 278.891 116.159C279.345 116.159 279.794 116.235 280.237 116.386C280.68 116.538 281.084 116.784 281.447 117.125C281.811 117.462 282.101 117.909 282.317 118.466C282.533 119.023 282.641 119.708 282.641 120.523V121.091H275.913V119.932H281.277C281.277 119.439 281.179 119 280.982 118.614C280.788 118.227 280.512 117.922 280.152 117.699C279.796 117.475 279.375 117.364 278.891 117.364C278.357 117.364 277.894 117.496 277.504 117.761C277.118 118.023 276.821 118.364 276.612 118.784C276.404 119.205 276.3 119.655 276.3 120.136V120.909C276.3 121.568 276.413 122.127 276.641 122.585C276.872 123.04 277.192 123.386 277.601 123.625C278.01 123.86 278.485 123.977 279.027 123.977C279.379 123.977 279.697 123.928 279.982 123.83C280.269 123.727 280.518 123.576 280.726 123.375C280.934 123.17 281.095 122.917 281.209 122.614L282.504 122.977C282.368 123.417 282.139 123.803 281.817 124.136C281.495 124.466 281.097 124.723 280.624 124.909C280.15 125.091 279.618 125.182 279.027 125.182ZM290.862 118.227L289.658 118.568C289.582 118.367 289.47 118.172 289.322 117.983C289.179 117.79 288.982 117.631 288.732 117.506C288.482 117.381 288.161 117.318 287.771 117.318C287.237 117.318 286.792 117.441 286.436 117.688C286.084 117.93 285.908 118.239 285.908 118.614C285.908 118.947 286.029 119.21 286.271 119.403C286.514 119.597 286.893 119.758 287.408 119.886L288.703 120.205C289.483 120.394 290.065 120.684 290.447 121.074C290.83 121.46 291.021 121.958 291.021 122.568C291.021 123.068 290.877 123.515 290.589 123.909C290.305 124.303 289.908 124.614 289.396 124.841C288.885 125.068 288.29 125.182 287.612 125.182C286.722 125.182 285.985 124.989 285.402 124.602C284.819 124.216 284.449 123.652 284.294 122.909L285.567 122.591C285.688 123.061 285.917 123.413 286.254 123.648C286.595 123.883 287.04 124 287.589 124C288.214 124 288.711 123.867 289.078 123.602C289.449 123.333 289.635 123.011 289.635 122.636C289.635 122.333 289.529 122.08 289.317 121.875C289.105 121.667 288.779 121.511 288.339 121.409L286.885 121.068C286.086 120.879 285.499 120.585 285.124 120.188C284.752 119.786 284.567 119.284 284.567 118.682C284.567 118.189 284.705 117.754 284.982 117.375C285.262 116.996 285.643 116.699 286.124 116.483C286.608 116.267 287.158 116.159 287.771 116.159C288.635 116.159 289.313 116.348 289.805 116.727C290.302 117.106 290.654 117.606 290.862 118.227Z" fill="black"/>
<path d="M313.011 125V113.364H320.852V115.392H315.472V118.165H320.449V120.193H315.472V122.972H320.875V125H313.011ZM325.183 113.364V125H322.763V113.364H325.183ZM331.099 125.17C330.202 125.17 329.429 124.989 328.781 124.625C328.137 124.258 327.641 123.739 327.293 123.068C326.944 122.394 326.77 121.597 326.77 120.676C326.77 119.778 326.944 118.991 327.293 118.312C327.641 117.634 328.132 117.106 328.764 116.727C329.401 116.348 330.147 116.159 331.003 116.159C331.579 116.159 332.115 116.252 332.611 116.438C333.111 116.619 333.546 116.894 333.918 117.261C334.293 117.629 334.584 118.091 334.793 118.648C335.001 119.201 335.105 119.848 335.105 120.591V121.256H327.736V119.756H332.827C332.827 119.407 332.751 119.098 332.599 118.83C332.448 118.561 332.238 118.35 331.969 118.199C331.704 118.044 331.395 117.966 331.043 117.966C330.675 117.966 330.349 118.051 330.065 118.222C329.785 118.388 329.565 118.614 329.406 118.898C329.247 119.178 329.166 119.491 329.162 119.835V121.261C329.162 121.693 329.241 122.066 329.401 122.381C329.563 122.695 329.793 122.938 330.088 123.108C330.384 123.278 330.734 123.364 331.139 123.364C331.408 123.364 331.654 123.326 331.878 123.25C332.101 123.174 332.293 123.061 332.452 122.909C332.611 122.758 332.732 122.572 332.815 122.352L335.054 122.5C334.94 123.038 334.707 123.508 334.355 123.909C334.007 124.307 333.556 124.617 333.003 124.841C332.454 125.061 331.819 125.17 331.099 125.17ZM341.327 116.273V118.091H336.071V116.273H341.327ZM337.264 114.182H339.685V122.318C339.685 122.542 339.719 122.716 339.787 122.841C339.855 122.962 339.95 123.047 340.071 123.097C340.196 123.146 340.34 123.17 340.503 123.17C340.616 123.17 340.73 123.161 340.844 123.142C340.957 123.119 341.045 123.102 341.105 123.091L341.486 124.892C341.365 124.93 341.194 124.973 340.974 125.023C340.755 125.076 340.488 125.108 340.173 125.119C339.59 125.142 339.079 125.064 338.639 124.886C338.204 124.708 337.865 124.432 337.622 124.057C337.38 123.682 337.26 123.208 337.264 122.636V114.182ZM342.903 125V116.273H345.25V117.795H345.341C345.5 117.254 345.767 116.845 346.142 116.568C346.517 116.288 346.949 116.148 347.438 116.148C347.559 116.148 347.689 116.155 347.83 116.17C347.97 116.186 348.093 116.206 348.199 116.233V118.381C348.085 118.347 347.928 118.316 347.727 118.29C347.527 118.263 347.343 118.25 347.176 118.25C346.82 118.25 346.502 118.328 346.222 118.483C345.945 118.634 345.725 118.847 345.562 119.119C345.403 119.392 345.324 119.706 345.324 120.062V125H342.903ZM352.987 125.17C352.105 125.17 351.341 124.983 350.697 124.608C350.057 124.229 349.563 123.703 349.214 123.028C348.866 122.35 348.692 121.564 348.692 120.67C348.692 119.769 348.866 118.981 349.214 118.307C349.563 117.629 350.057 117.102 350.697 116.727C351.341 116.348 352.105 116.159 352.987 116.159C353.87 116.159 354.631 116.348 355.271 116.727C355.915 117.102 356.411 117.629 356.76 118.307C357.108 118.981 357.283 119.769 357.283 120.67C357.283 121.564 357.108 122.35 356.76 123.028C356.411 123.703 355.915 124.229 355.271 124.608C354.631 124.983 353.87 125.17 352.987 125.17ZM352.999 123.295C353.4 123.295 353.735 123.182 354.004 122.955C354.273 122.723 354.476 122.409 354.612 122.011C354.752 121.614 354.822 121.161 354.822 120.653C354.822 120.146 354.752 119.693 354.612 119.295C354.476 118.898 354.273 118.583 354.004 118.352C353.735 118.121 353.4 118.006 352.999 118.006C352.593 118.006 352.252 118.121 351.976 118.352C351.703 118.583 351.497 118.898 351.357 119.295C351.22 119.693 351.152 120.146 351.152 120.653C351.152 121.161 351.22 121.614 351.357 122.011C351.497 122.409 351.703 122.723 351.976 122.955C352.252 123.182 352.593 123.295 352.999 123.295ZM354.129 115.227L352.987 113.841L351.845 115.227H349.783V115.148L352.084 112.648H353.885L356.192 115.148V115.227H354.129ZM361.277 119.955V125H358.857V116.273H361.163V117.812H361.266C361.459 117.305 361.783 116.903 362.237 116.608C362.692 116.309 363.243 116.159 363.891 116.159C364.497 116.159 365.025 116.292 365.476 116.557C365.927 116.822 366.277 117.201 366.527 117.693C366.777 118.182 366.902 118.765 366.902 119.443V125H364.482V119.875C364.485 119.341 364.349 118.924 364.072 118.625C363.796 118.322 363.415 118.17 362.93 118.17C362.605 118.17 362.317 118.241 362.067 118.381C361.821 118.521 361.627 118.725 361.487 118.994C361.351 119.259 361.281 119.58 361.277 119.955ZM368.81 125V116.273H371.23V125H368.81ZM370.026 115.148C369.666 115.148 369.357 115.028 369.099 114.79C368.846 114.547 368.719 114.258 368.719 113.92C368.719 113.587 368.846 113.301 369.099 113.062C369.357 112.82 369.666 112.699 370.026 112.699C370.385 112.699 370.692 112.82 370.946 113.062C371.204 113.301 371.332 113.587 371.332 113.92C371.332 114.258 371.204 114.547 370.946 114.79C370.692 115.028 370.385 115.148 370.026 115.148ZM377.112 125.17C376.218 125.17 375.449 124.981 374.805 124.602C374.165 124.22 373.673 123.689 373.328 123.011C372.987 122.333 372.817 121.553 372.817 120.67C372.817 119.777 372.989 118.992 373.334 118.318C373.682 117.64 374.177 117.112 374.817 116.733C375.457 116.35 376.218 116.159 377.101 116.159C377.862 116.159 378.529 116.297 379.101 116.574C379.673 116.85 380.125 117.239 380.459 117.739C380.792 118.239 380.976 118.826 381.01 119.5H378.726C378.661 119.064 378.491 118.714 378.214 118.449C377.942 118.18 377.584 118.045 377.141 118.045C376.766 118.045 376.438 118.148 376.158 118.352C375.881 118.553 375.665 118.847 375.51 119.233C375.355 119.619 375.277 120.087 375.277 120.636C375.277 121.193 375.353 121.667 375.504 122.057C375.66 122.447 375.877 122.744 376.158 122.949C376.438 123.153 376.766 123.256 377.141 123.256C377.417 123.256 377.665 123.199 377.885 123.085C378.108 122.972 378.292 122.807 378.436 122.591C378.584 122.371 378.68 122.108 378.726 121.801H381.01C380.972 122.468 380.79 123.055 380.464 123.562C380.143 124.066 379.697 124.46 379.129 124.744C378.561 125.028 377.889 125.17 377.112 125.17ZM386.503 125.17C385.62 125.17 384.857 124.983 384.213 124.608C383.573 124.229 383.079 123.703 382.73 123.028C382.382 122.35 382.207 121.564 382.207 120.67C382.207 119.769 382.382 118.981 382.73 118.307C383.079 117.629 383.573 117.102 384.213 116.727C384.857 116.348 385.62 116.159 386.503 116.159C387.385 116.159 388.147 116.348 388.787 116.727C389.431 117.102 389.927 117.629 390.276 118.307C390.624 118.981 390.798 119.769 390.798 120.67C390.798 121.564 390.624 122.35 390.276 123.028C389.927 123.703 389.431 124.229 388.787 124.608C388.147 124.983 387.385 125.17 386.503 125.17ZM386.514 123.295C386.916 123.295 387.251 123.182 387.52 122.955C387.789 122.723 387.991 122.409 388.128 122.011C388.268 121.614 388.338 121.161 388.338 120.653C388.338 120.146 388.268 119.693 388.128 119.295C387.991 118.898 387.789 118.583 387.52 118.352C387.251 118.121 386.916 118.006 386.514 118.006C386.109 118.006 385.768 118.121 385.491 118.352C385.219 118.583 385.012 118.898 384.872 119.295C384.736 119.693 384.668 120.146 384.668 120.653C384.668 121.161 384.736 121.614 384.872 122.011C385.012 122.409 385.219 122.723 385.491 122.955C385.768 123.182 386.109 123.295 386.514 123.295ZM399.634 118.761L397.418 118.898C397.38 118.708 397.298 118.538 397.173 118.386C397.048 118.231 396.884 118.108 396.679 118.017C396.478 117.922 396.238 117.875 395.957 117.875C395.582 117.875 395.266 117.955 395.009 118.114C394.751 118.269 394.622 118.477 394.622 118.739C394.622 118.947 394.705 119.123 394.872 119.267C395.039 119.411 395.325 119.527 395.73 119.614L397.31 119.932C398.158 120.106 398.791 120.386 399.207 120.773C399.624 121.159 399.832 121.667 399.832 122.295C399.832 122.867 399.664 123.369 399.327 123.801C398.993 124.233 398.535 124.57 397.952 124.812C397.372 125.051 396.704 125.17 395.946 125.17C394.791 125.17 393.87 124.93 393.185 124.449C392.503 123.964 392.103 123.305 391.986 122.472L394.366 122.347C394.438 122.699 394.613 122.968 394.889 123.153C395.166 123.335 395.52 123.426 395.952 123.426C396.376 123.426 396.717 123.345 396.974 123.182C397.236 123.015 397.368 122.801 397.372 122.54C397.368 122.32 397.276 122.14 397.094 122C396.912 121.856 396.632 121.746 396.253 121.67L394.741 121.369C393.889 121.199 393.255 120.903 392.838 120.483C392.425 120.062 392.219 119.527 392.219 118.875C392.219 118.314 392.37 117.831 392.673 117.426C392.98 117.021 393.41 116.708 393.963 116.489C394.52 116.269 395.171 116.159 395.918 116.159C397.02 116.159 397.887 116.392 398.52 116.858C399.156 117.324 399.527 117.958 399.634 118.761Z" fill="black"/>
<path d="M422.409 125V113.364H423.818V123.75H429.227V125H422.409ZM431.227 125V116.273H432.568V125H431.227ZM431.909 114.818C431.648 114.818 431.422 114.729 431.233 114.551C431.047 114.373 430.955 114.159 430.955 113.909C430.955 113.659 431.047 113.445 431.233 113.267C431.422 113.089 431.648 113 431.909 113C432.17 113 432.394 113.089 432.58 113.267C432.769 113.445 432.864 113.659 432.864 113.909C432.864 114.159 432.769 114.373 432.58 114.551C432.394 114.729 432.17 114.818 431.909 114.818ZM442.161 116.273L438.933 125H437.57L434.342 116.273H435.797L438.206 123.227H438.297L440.706 116.273H442.161ZM443.93 125V116.273H445.226V117.591H445.317C445.476 117.159 445.764 116.809 446.18 116.54C446.597 116.271 447.067 116.136 447.589 116.136C447.688 116.136 447.811 116.138 447.959 116.142C448.107 116.146 448.218 116.152 448.294 116.159V117.523C448.249 117.511 448.144 117.494 447.982 117.472C447.822 117.445 447.654 117.432 447.476 117.432C447.052 117.432 446.673 117.521 446.339 117.699C446.01 117.873 445.749 118.116 445.555 118.426C445.366 118.733 445.271 119.083 445.271 119.477V125H443.93ZM453.163 125.182C452.375 125.182 451.684 124.994 451.089 124.619C450.499 124.244 450.036 123.72 449.703 123.045C449.374 122.371 449.209 121.583 449.209 120.682C449.209 119.773 449.374 118.979 449.703 118.301C450.036 117.623 450.499 117.097 451.089 116.722C451.684 116.347 452.375 116.159 453.163 116.159C453.951 116.159 454.641 116.347 455.232 116.722C455.826 117.097 456.288 117.623 456.618 118.301C456.951 118.979 457.118 119.773 457.118 120.682C457.118 121.583 456.951 122.371 456.618 123.045C456.288 123.72 455.826 124.244 455.232 124.619C454.641 124.994 453.951 125.182 453.163 125.182ZM453.163 123.977C453.762 123.977 454.254 123.824 454.641 123.517C455.027 123.21 455.313 122.807 455.499 122.307C455.684 121.807 455.777 121.265 455.777 120.682C455.777 120.098 455.684 119.555 455.499 119.051C455.313 118.547 455.027 118.14 454.641 117.83C454.254 117.519 453.762 117.364 453.163 117.364C452.565 117.364 452.072 117.519 451.686 117.83C451.3 118.14 451.014 118.547 450.828 119.051C450.643 119.555 450.55 120.098 450.55 120.682C450.55 121.265 450.643 121.807 450.828 122.307C451.014 122.807 451.3 123.21 451.686 123.517C452.072 123.824 452.565 123.977 453.163 123.977ZM465.347 118.227L464.142 118.568C464.066 118.367 463.955 118.172 463.807 117.983C463.663 117.79 463.466 117.631 463.216 117.506C462.966 117.381 462.646 117.318 462.256 117.318C461.722 117.318 461.277 117.441 460.92 117.688C460.568 117.93 460.392 118.239 460.392 118.614C460.392 118.947 460.513 119.21 460.756 119.403C460.998 119.597 461.377 119.758 461.892 119.886L463.188 120.205C463.968 120.394 464.549 120.684 464.932 121.074C465.314 121.46 465.506 121.958 465.506 122.568C465.506 123.068 465.362 123.515 465.074 123.909C464.79 124.303 464.392 124.614 463.881 124.841C463.369 125.068 462.775 125.182 462.097 125.182C461.206 125.182 460.47 124.989 459.886 124.602C459.303 124.216 458.934 123.652 458.778 122.909L460.051 122.591C460.172 123.061 460.402 123.413 460.739 123.648C461.08 123.883 461.525 124 462.074 124C462.699 124 463.195 123.867 463.562 123.602C463.934 123.333 464.119 123.011 464.119 122.636C464.119 122.333 464.013 122.08 463.801 121.875C463.589 121.667 463.263 121.511 462.824 121.409L461.369 121.068C460.57 120.879 459.983 120.585 459.608 120.188C459.237 119.786 459.051 119.284 459.051 118.682C459.051 118.189 459.189 117.754 459.466 117.375C459.746 116.996 460.127 116.699 460.608 116.483C461.093 116.267 461.642 116.159 462.256 116.159C463.119 116.159 463.797 116.348 464.29 116.727C464.786 117.106 465.138 117.606 465.347 118.227Z" fill="black"/>
<path d="M161.409 185V173.364H168.432V174.614H162.818V178.545H168.068V179.795H162.818V183.75H168.523V185H161.409ZM172.131 173.364V185H170.79V173.364H172.131ZM178.246 185.182C177.405 185.182 176.679 184.996 176.07 184.625C175.464 184.25 174.996 183.727 174.666 183.057C174.34 182.383 174.178 181.598 174.178 180.705C174.178 179.811 174.34 179.023 174.666 178.341C174.996 177.655 175.454 177.121 176.041 176.739C176.632 176.352 177.321 176.159 178.109 176.159C178.564 176.159 179.013 176.235 179.456 176.386C179.899 176.538 180.303 176.784 180.666 177.125C181.03 177.462 181.32 177.909 181.536 178.466C181.751 179.023 181.859 179.708 181.859 180.523V181.091H175.132V179.932H180.496C180.496 179.439 180.397 179 180.2 178.614C180.007 178.227 179.731 177.922 179.371 177.699C179.015 177.475 178.594 177.364 178.109 177.364C177.575 177.364 177.113 177.496 176.723 177.761C176.337 178.023 176.039 178.364 175.831 178.784C175.623 179.205 175.518 179.655 175.518 180.136V180.909C175.518 181.568 175.632 182.127 175.859 182.585C176.09 183.04 176.411 183.386 176.82 183.625C177.229 183.86 177.704 183.977 178.246 183.977C178.598 183.977 178.916 183.928 179.2 183.83C179.488 183.727 179.736 183.576 179.945 183.375C180.153 183.17 180.314 182.917 180.428 182.614L181.723 182.977C181.587 183.417 181.357 183.803 181.036 184.136C180.714 184.466 180.316 184.723 179.842 184.909C179.369 185.091 178.837 185.182 178.246 185.182ZM187.695 176.273V177.409H183.172V176.273H187.695ZM184.49 174.182H185.831V182.5C185.831 182.879 185.886 183.163 185.996 183.352C186.109 183.538 186.253 183.663 186.428 183.727C186.606 183.788 186.793 183.818 186.99 183.818C187.138 183.818 187.259 183.811 187.354 183.795C187.448 183.777 187.524 183.761 187.581 183.75L187.854 184.955C187.763 184.989 187.636 185.023 187.473 185.057C187.31 185.095 187.104 185.114 186.854 185.114C186.475 185.114 186.104 185.032 185.74 184.869C185.38 184.706 185.081 184.458 184.842 184.125C184.607 183.792 184.49 183.371 184.49 182.864V174.182ZM189.712 185V176.273H191.007V177.591H191.098C191.257 177.159 191.545 176.809 191.962 176.54C192.378 176.271 192.848 176.136 193.371 176.136C193.469 176.136 193.592 176.138 193.74 176.142C193.888 176.146 194 176.152 194.075 176.159V177.523C194.03 177.511 193.926 177.494 193.763 177.472C193.604 177.445 193.435 177.432 193.257 177.432C192.833 177.432 192.454 177.521 192.121 177.699C191.791 177.873 191.53 178.116 191.337 178.426C191.147 178.733 191.053 179.083 191.053 179.477V185H189.712ZM198.945 185.182C198.157 185.182 197.465 184.994 196.871 184.619C196.28 184.244 195.818 183.72 195.484 183.045C195.155 182.371 194.99 181.583 194.99 180.682C194.99 179.773 195.155 178.979 195.484 178.301C195.818 177.623 196.28 177.097 196.871 176.722C197.465 176.347 198.157 176.159 198.945 176.159C199.732 176.159 200.422 176.347 201.013 176.722C201.607 177.097 202.07 177.623 202.399 178.301C202.732 178.979 202.899 179.773 202.899 180.682C202.899 181.583 202.732 182.371 202.399 183.045C202.07 183.72 201.607 184.244 201.013 184.619C200.422 184.994 199.732 185.182 198.945 185.182ZM198.945 183.977C199.543 183.977 200.036 183.824 200.422 183.517C200.808 183.21 201.094 182.807 201.28 182.307C201.465 181.807 201.558 181.265 201.558 180.682C201.558 180.098 201.465 179.555 201.28 179.051C201.094 178.547 200.808 178.14 200.422 177.83C200.036 177.519 199.543 177.364 198.945 177.364C198.346 177.364 197.854 177.519 197.467 177.83C197.081 178.14 196.795 178.547 196.609 179.051C196.424 179.555 196.331 180.098 196.331 180.682C196.331 181.265 196.424 181.807 196.609 182.307C196.795 182.807 197.081 183.21 197.467 183.517C197.854 183.824 198.346 183.977 198.945 183.977ZM200.126 175.227L198.945 173.636L197.763 175.227H196.49V175.136L198.331 172.773H199.558L201.399 175.136V175.227H200.126ZM206.287 179.75V185H204.946V176.273H206.241V177.636H206.355C206.56 177.193 206.87 176.837 207.287 176.568C207.704 176.295 208.241 176.159 208.901 176.159C209.491 176.159 210.009 176.28 210.452 176.523C210.895 176.761 211.24 177.125 211.486 177.614C211.732 178.098 211.855 178.712 211.855 179.455V185H210.514V179.545C210.514 178.86 210.336 178.326 209.98 177.943C209.624 177.557 209.135 177.364 208.514 177.364C208.086 177.364 207.704 177.456 207.366 177.642C207.033 177.828 206.77 178.098 206.577 178.455C206.384 178.811 206.287 179.242 206.287 179.75ZM214.305 185V176.273H215.646V185H214.305ZM214.987 174.818C214.726 174.818 214.5 174.729 214.311 174.551C214.125 174.373 214.033 174.159 214.033 173.909C214.033 173.659 214.125 173.445 214.311 173.267C214.5 173.089 214.726 173 214.987 173C215.249 173 215.472 173.089 215.658 173.267C215.847 173.445 215.942 173.659 215.942 173.909C215.942 174.159 215.847 174.373 215.658 174.551C215.472 174.729 215.249 174.818 214.987 174.818ZM221.648 185.182C220.83 185.182 220.125 184.989 219.534 184.602C218.943 184.216 218.489 183.684 218.17 183.006C217.852 182.328 217.693 181.553 217.693 180.682C217.693 179.795 217.856 179.013 218.182 178.335C218.511 177.653 218.97 177.121 219.557 176.739C220.148 176.352 220.837 176.159 221.625 176.159C222.239 176.159 222.792 176.273 223.284 176.5C223.777 176.727 224.18 177.045 224.494 177.455C224.809 177.864 225.004 178.341 225.08 178.886H223.739C223.636 178.489 223.409 178.136 223.057 177.83C222.708 177.519 222.239 177.364 221.648 177.364C221.125 177.364 220.667 177.5 220.273 177.773C219.883 178.042 219.578 178.422 219.358 178.915C219.142 179.403 219.034 179.977 219.034 180.636C219.034 181.311 219.14 181.898 219.352 182.398C219.568 182.898 219.871 183.286 220.261 183.562C220.655 183.839 221.117 183.977 221.648 183.977C221.996 183.977 222.312 183.917 222.597 183.795C222.881 183.674 223.121 183.5 223.318 183.273C223.515 183.045 223.655 182.773 223.739 182.455H225.08C225.004 182.97 224.816 183.434 224.517 183.847C224.222 184.256 223.83 184.581 223.341 184.824C222.856 185.062 222.292 185.182 221.648 185.182ZM230.585 185.182C229.797 185.182 229.106 184.994 228.511 184.619C227.92 184.244 227.458 183.72 227.125 183.045C226.795 182.371 226.631 181.583 226.631 180.682C226.631 179.773 226.795 178.979 227.125 178.301C227.458 177.623 227.92 177.097 228.511 176.722C229.106 176.347 229.797 176.159 230.585 176.159C231.373 176.159 232.063 176.347 232.653 176.722C233.248 177.097 233.71 177.623 234.04 178.301C234.373 178.979 234.54 179.773 234.54 180.682C234.54 181.583 234.373 182.371 234.04 183.045C233.71 183.72 233.248 184.244 232.653 184.619C232.063 184.994 231.373 185.182 230.585 185.182ZM230.585 183.977C231.184 183.977 231.676 183.824 232.062 183.517C232.449 183.21 232.735 182.807 232.92 182.307C233.106 181.807 233.199 181.265 233.199 180.682C233.199 180.098 233.106 179.555 232.92 179.051C232.735 178.547 232.449 178.14 232.062 177.83C231.676 177.519 231.184 177.364 230.585 177.364C229.987 177.364 229.494 177.519 229.108 177.83C228.722 178.14 228.436 178.547 228.25 179.051C228.064 179.555 227.972 180.098 227.972 180.682C227.972 181.265 228.064 181.807 228.25 182.307C228.436 182.807 228.722 183.21 229.108 183.517C229.494 183.824 229.987 183.977 230.585 183.977ZM245.155 173.364V185H243.746V174.841H243.678L240.837 176.727V175.295L243.746 173.364H245.155Z" fill="black"/>
<path d="M161.409 204V192.364H168.432V193.614H162.818V197.545H168.068V198.795H162.818V202.75H168.523V204H161.409ZM172.131 192.364V204H170.79V192.364H172.131ZM178.246 204.182C177.405 204.182 176.679 203.996 176.07 203.625C175.464 203.25 174.996 202.727 174.666 202.057C174.34 201.383 174.178 200.598 174.178 199.705C174.178 198.811 174.34 198.023 174.666 197.341C174.996 196.655 175.454 196.121 176.041 195.739C176.632 195.352 177.321 195.159 178.109 195.159C178.564 195.159 179.013 195.235 179.456 195.386C179.899 195.538 180.303 195.784 180.666 196.125C181.03 196.462 181.32 196.909 181.536 197.466C181.751 198.023 181.859 198.708 181.859 199.523V200.091H175.132V198.932H180.496C180.496 198.439 180.397 198 180.2 197.614C180.007 197.227 179.731 196.922 179.371 196.699C179.015 196.475 178.594 196.364 178.109 196.364C177.575 196.364 177.113 196.496 176.723 196.761C176.337 197.023 176.039 197.364 175.831 197.784C175.623 198.205 175.518 198.655 175.518 199.136V199.909C175.518 200.568 175.632 201.127 175.859 201.585C176.09 202.04 176.411 202.386 176.82 202.625C177.229 202.86 177.704 202.977 178.246 202.977C178.598 202.977 178.916 202.928 179.2 202.83C179.488 202.727 179.736 202.576 179.945 202.375C180.153 202.17 180.314 201.917 180.428 201.614L181.723 201.977C181.587 202.417 181.357 202.803 181.036 203.136C180.714 203.466 180.316 203.723 179.842 203.909C179.369 204.091 178.837 204.182 178.246 204.182ZM187.695 195.273V196.409H183.172V195.273H187.695ZM184.49 193.182H185.831V201.5C185.831 201.879 185.886 202.163 185.996 202.352C186.109 202.538 186.253 202.663 186.428 202.727C186.606 202.788 186.793 202.818 186.99 202.818C187.138 202.818 187.259 202.811 187.354 202.795C187.448 202.777 187.524 202.761 187.581 202.75L187.854 203.955C187.763 203.989 187.636 204.023 187.473 204.057C187.31 204.095 187.104 204.114 186.854 204.114C186.475 204.114 186.104 204.032 185.74 203.869C185.38 203.706 185.081 203.458 184.842 203.125C184.607 202.792 184.49 202.371 184.49 201.864V193.182ZM189.712 204V195.273H191.007V196.591H191.098C191.257 196.159 191.545 195.809 191.962 195.54C192.378 195.271 192.848 195.136 193.371 195.136C193.469 195.136 193.592 195.138 193.74 195.142C193.888 195.146 194 195.152 194.075 195.159V196.523C194.03 196.511 193.926 196.494 193.763 196.472C193.604 196.445 193.435 196.432 193.257 196.432C192.833 196.432 192.454 196.521 192.121 196.699C191.791 196.873 191.53 197.116 191.337 197.426C191.147 197.733 191.053 198.083 191.053 198.477V204H189.712ZM198.945 204.182C198.157 204.182 197.465 203.994 196.871 203.619C196.28 203.244 195.818 202.72 195.484 202.045C195.155 201.371 194.99 200.583 194.99 199.682C194.99 198.773 195.155 197.979 195.484 197.301C195.818 196.623 196.28 196.097 196.871 195.722C197.465 195.347 198.157 195.159 198.945 195.159C199.732 195.159 200.422 195.347 201.013 195.722C201.607 196.097 202.07 196.623 202.399 197.301C202.732 197.979 202.899 198.773 202.899 199.682C202.899 200.583 202.732 201.371 202.399 202.045C202.07 202.72 201.607 203.244 201.013 203.619C200.422 203.994 199.732 204.182 198.945 204.182ZM198.945 202.977C199.543 202.977 200.036 202.824 200.422 202.517C200.808 202.21 201.094 201.807 201.28 201.307C201.465 200.807 201.558 200.265 201.558 199.682C201.558 199.098 201.465 198.555 201.28 198.051C201.094 197.547 200.808 197.14 200.422 196.83C200.036 196.519 199.543 196.364 198.945 196.364C198.346 196.364 197.854 196.519 197.467 196.83C197.081 197.14 196.795 197.547 196.609 198.051C196.424 198.555 196.331 199.098 196.331 199.682C196.331 200.265 196.424 200.807 196.609 201.307C196.795 201.807 197.081 202.21 197.467 202.517C197.854 202.824 198.346 202.977 198.945 202.977ZM200.126 194.227L198.945 192.636L197.763 194.227H196.49V194.136L198.331 191.773H199.558L201.399 194.136V194.227H200.126ZM206.287 198.75V204H204.946V195.273H206.241V196.636H206.355C206.56 196.193 206.87 195.837 207.287 195.568C207.704 195.295 208.241 195.159 208.901 195.159C209.491 195.159 210.009 195.28 210.452 195.523C210.895 195.761 211.24 196.125 211.486 196.614C211.732 197.098 211.855 197.712 211.855 198.455V204H210.514V198.545C210.514 197.86 210.336 197.326 209.98 196.943C209.624 196.557 209.135 196.364 208.514 196.364C208.086 196.364 207.704 196.456 207.366 196.642C207.033 196.828 206.77 197.098 206.577 197.455C206.384 197.811 206.287 198.242 206.287 198.75ZM214.305 204V195.273H215.646V204H214.305ZM214.987 193.818C214.726 193.818 214.5 193.729 214.311 193.551C214.125 193.373 214.033 193.159 214.033 192.909C214.033 192.659 214.125 192.445 214.311 192.267C214.5 192.089 214.726 192 214.987 192C215.249 192 215.472 192.089 215.658 192.267C215.847 192.445 215.942 192.659 215.942 192.909C215.942 193.159 215.847 193.373 215.658 193.551C215.472 193.729 215.249 193.818 214.987 193.818ZM221.648 204.182C220.83 204.182 220.125 203.989 219.534 203.602C218.943 203.216 218.489 202.684 218.17 202.006C217.852 201.328 217.693 200.553 217.693 199.682C217.693 198.795 217.856 198.013 218.182 197.335C218.511 196.653 218.97 196.121 219.557 195.739C220.148 195.352 220.837 195.159 221.625 195.159C222.239 195.159 222.792 195.273 223.284 195.5C223.777 195.727 224.18 196.045 224.494 196.455C224.809 196.864 225.004 197.341 225.08 197.886H223.739C223.636 197.489 223.409 197.136 223.057 196.83C222.708 196.519 222.239 196.364 221.648 196.364C221.125 196.364 220.667 196.5 220.273 196.773C219.883 197.042 219.578 197.422 219.358 197.915C219.142 198.403 219.034 198.977 219.034 199.636C219.034 200.311 219.14 200.898 219.352 201.398C219.568 201.898 219.871 202.286 220.261 202.562C220.655 202.839 221.117 202.977 221.648 202.977C221.996 202.977 222.312 202.917 222.597 202.795C222.881 202.674 223.121 202.5 223.318 202.273C223.515 202.045 223.655 201.773 223.739 201.455H225.08C225.004 201.97 224.816 202.434 224.517 202.847C224.222 203.256 223.83 203.581 223.341 203.824C222.856 204.062 222.292 204.182 221.648 204.182ZM230.585 204.182C229.797 204.182 229.106 203.994 228.511 203.619C227.92 203.244 227.458 202.72 227.125 202.045C226.795 201.371 226.631 200.583 226.631 199.682C226.631 198.773 226.795 197.979 227.125 197.301C227.458 196.623 227.92 196.097 228.511 195.722C229.106 195.347 229.797 195.159 230.585 195.159C231.373 195.159 232.063 195.347 232.653 195.722C233.248 196.097 233.71 196.623 234.04 197.301C234.373 197.979 234.54 198.773 234.54 199.682C234.54 200.583 234.373 201.371 234.04 202.045C233.71 202.72 233.248 203.244 232.653 203.619C232.063 203.994 231.373 204.182 230.585 204.182ZM230.585 202.977C231.184 202.977 231.676 202.824 232.062 202.517C232.449 202.21 232.735 201.807 232.92 201.307C233.106 200.807 233.199 200.265 233.199 199.682C233.199 199.098 233.106 198.555 232.92 198.051C232.735 197.547 232.449 197.14 232.062 196.83C231.676 196.519 231.184 196.364 230.585 196.364C229.987 196.364 229.494 196.519 229.108 196.83C228.722 197.14 228.436 197.547 228.25 198.051C228.064 198.555 227.972 199.098 227.972 199.682C227.972 200.265 228.064 200.807 228.25 201.307C228.436 201.807 228.722 202.21 229.108 202.517C229.494 202.824 229.987 202.977 230.585 202.977ZM241.064 204V202.977L244.905 198.773C245.356 198.28 245.727 197.852 246.018 197.489C246.31 197.121 246.526 196.777 246.666 196.455C246.81 196.129 246.882 195.788 246.882 195.432C246.882 195.023 246.784 194.669 246.587 194.369C246.393 194.07 246.128 193.839 245.791 193.676C245.454 193.513 245.075 193.432 244.655 193.432C244.208 193.432 243.818 193.525 243.484 193.71C243.155 193.892 242.899 194.148 242.717 194.477C242.539 194.807 242.45 195.193 242.45 195.636H241.109C241.109 194.955 241.267 194.356 241.581 193.841C241.895 193.326 242.323 192.924 242.865 192.636C243.411 192.348 244.022 192.205 244.7 192.205C245.382 192.205 245.986 192.348 246.513 192.636C247.039 192.924 247.452 193.312 247.751 193.801C248.051 194.29 248.2 194.833 248.2 195.432C248.2 195.86 248.123 196.278 247.967 196.688C247.816 197.093 247.551 197.545 247.172 198.045C246.797 198.542 246.276 199.148 245.609 199.864L242.996 202.659V202.75H248.405V204H241.064Z" fill="black"/>
<path d="M161.409 223V211.364H168.432V212.614H162.818V216.545H168.068V217.795H162.818V221.75H168.523V223H161.409ZM172.131 211.364V223H170.79V211.364H172.131ZM178.246 223.182C177.405 223.182 176.679 222.996 176.07 222.625C175.464 222.25 174.996 221.727 174.666 221.057C174.34 220.383 174.178 219.598 174.178 218.705C174.178 217.811 174.34 217.023 174.666 216.341C174.996 215.655 175.454 215.121 176.041 214.739C176.632 214.352 177.321 214.159 178.109 214.159C178.564 214.159 179.013 214.235 179.456 214.386C179.899 214.538 180.303 214.784 180.666 215.125C181.03 215.462 181.32 215.909 181.536 216.466C181.751 217.023 181.859 217.708 181.859 218.523V219.091H175.132V217.932H180.496C180.496 217.439 180.397 217 180.2 216.614C180.007 216.227 179.731 215.922 179.371 215.699C179.015 215.475 178.594 215.364 178.109 215.364C177.575 215.364 177.113 215.496 176.723 215.761C176.337 216.023 176.039 216.364 175.831 216.784C175.623 217.205 175.518 217.655 175.518 218.136V218.909C175.518 219.568 175.632 220.127 175.859 220.585C176.09 221.04 176.411 221.386 176.82 221.625C177.229 221.86 177.704 221.977 178.246 221.977C178.598 221.977 178.916 221.928 179.2 221.83C179.488 221.727 179.736 221.576 179.945 221.375C180.153 221.17 180.314 220.917 180.428 220.614L181.723 220.977C181.587 221.417 181.357 221.803 181.036 222.136C180.714 222.466 180.316 222.723 179.842 222.909C179.369 223.091 178.837 223.182 178.246 223.182ZM187.695 214.273V215.409H183.172V214.273H187.695ZM184.49 212.182H185.831V220.5C185.831 220.879 185.886 221.163 185.996 221.352C186.109 221.538 186.253 221.663 186.428 221.727C186.606 221.788 186.793 221.818 186.99 221.818C187.138 221.818 187.259 221.811 187.354 221.795C187.448 221.777 187.524 221.761 187.581 221.75L187.854 222.955C187.763 222.989 187.636 223.023 187.473 223.057C187.31 223.095 187.104 223.114 186.854 223.114C186.475 223.114 186.104 223.032 185.74 222.869C185.38 222.706 185.081 222.458 184.842 222.125C184.607 221.792 184.49 221.371 184.49 220.864V212.182ZM189.712 223V214.273H191.007V215.591H191.098C191.257 215.159 191.545 214.809 191.962 214.54C192.378 214.271 192.848 214.136 193.371 214.136C193.469 214.136 193.592 214.138 193.74 214.142C193.888 214.146 194 214.152 194.075 214.159V215.523C194.03 215.511 193.926 215.494 193.763 215.472C193.604 215.445 193.435 215.432 193.257 215.432C192.833 215.432 192.454 215.521 192.121 215.699C191.791 215.873 191.53 216.116 191.337 216.426C191.147 216.733 191.053 217.083 191.053 217.477V223H189.712ZM198.945 223.182C198.157 223.182 197.465 222.994 196.871 222.619C196.28 222.244 195.818 221.72 195.484 221.045C195.155 220.371 194.99 219.583 194.99 218.682C194.99 217.773 195.155 216.979 195.484 216.301C195.818 215.623 196.28 215.097 196.871 214.722C197.465 214.347 198.157 214.159 198.945 214.159C199.732 214.159 200.422 214.347 201.013 214.722C201.607 215.097 202.07 215.623 202.399 216.301C202.732 216.979 202.899 217.773 202.899 218.682C202.899 219.583 202.732 220.371 202.399 221.045C202.07 221.72 201.607 222.244 201.013 222.619C200.422 222.994 199.732 223.182 198.945 223.182ZM198.945 221.977C199.543 221.977 200.036 221.824 200.422 221.517C200.808 221.21 201.094 220.807 201.28 220.307C201.465 219.807 201.558 219.265 201.558 218.682C201.558 218.098 201.465 217.555 201.28 217.051C201.094 216.547 200.808 216.14 200.422 215.83C200.036 215.519 199.543 215.364 198.945 215.364C198.346 215.364 197.854 215.519 197.467 215.83C197.081 216.14 196.795 216.547 196.609 217.051C196.424 217.555 196.331 218.098 196.331 218.682C196.331 219.265 196.424 219.807 196.609 220.307C196.795 220.807 197.081 221.21 197.467 221.517C197.854 221.824 198.346 221.977 198.945 221.977ZM200.126 213.227L198.945 211.636L197.763 213.227H196.49V213.136L198.331 210.773H199.558L201.399 213.136V213.227H200.126ZM206.287 217.75V223H204.946V214.273H206.241V215.636H206.355C206.56 215.193 206.87 214.837 207.287 214.568C207.704 214.295 208.241 214.159 208.901 214.159C209.491 214.159 210.009 214.28 210.452 214.523C210.895 214.761 211.24 215.125 211.486 215.614C211.732 216.098 211.855 216.712 211.855 217.455V223H210.514V217.545C210.514 216.86 210.336 216.326 209.98 215.943C209.624 215.557 209.135 215.364 208.514 215.364C208.086 215.364 207.704 215.456 207.366 215.642C207.033 215.828 206.77 216.098 206.577 216.455C206.384 216.811 206.287 217.242 206.287 217.75ZM214.305 223V214.273H215.646V223H214.305ZM214.987 212.818C214.726 212.818 214.5 212.729 214.311 212.551C214.125 212.373 214.033 212.159 214.033 211.909C214.033 211.659 214.125 211.445 214.311 211.267C214.5 211.089 214.726 211 214.987 211C215.249 211 215.472 211.089 215.658 211.267C215.847 211.445 215.942 211.659 215.942 211.909C215.942 212.159 215.847 212.373 215.658 212.551C215.472 212.729 215.249 212.818 214.987 212.818ZM221.648 223.182C220.83 223.182 220.125 222.989 219.534 222.602C218.943 222.216 218.489 221.684 218.17 221.006C217.852 220.328 217.693 219.553 217.693 218.682C217.693 217.795 217.856 217.013 218.182 216.335C218.511 215.653 218.97 215.121 219.557 214.739C220.148 214.352 220.837 214.159 221.625 214.159C222.239 214.159 222.792 214.273 223.284 214.5C223.777 214.727 224.18 215.045 224.494 215.455C224.809 215.864 225.004 216.341 225.08 216.886H223.739C223.636 216.489 223.409 216.136 223.057 215.83C222.708 215.519 222.239 215.364 221.648 215.364C221.125 215.364 220.667 215.5 220.273 215.773C219.883 216.042 219.578 216.422 219.358 216.915C219.142 217.403 219.034 217.977 219.034 218.636C219.034 219.311 219.14 219.898 219.352 220.398C219.568 220.898 219.871 221.286 220.261 221.562C220.655 221.839 221.117 221.977 221.648 221.977C221.996 221.977 222.312 221.917 222.597 221.795C222.881 221.674 223.121 221.5 223.318 221.273C223.515 221.045 223.655 220.773 223.739 220.455H225.08C225.004 220.97 224.816 221.434 224.517 221.847C224.222 222.256 223.83 222.581 223.341 222.824C222.856 223.062 222.292 223.182 221.648 223.182ZM230.585 223.182C229.797 223.182 229.106 222.994 228.511 222.619C227.92 222.244 227.458 221.72 227.125 221.045C226.795 220.371 226.631 219.583 226.631 218.682C226.631 217.773 226.795 216.979 227.125 216.301C227.458 215.623 227.92 215.097 228.511 214.722C229.106 214.347 229.797 214.159 230.585 214.159C231.373 214.159 232.063 214.347 232.653 214.722C233.248 215.097 233.71 215.623 234.04 216.301C234.373 216.979 234.54 217.773 234.54 218.682C234.54 219.583 234.373 220.371 234.04 221.045C233.71 221.72 233.248 222.244 232.653 222.619C232.063 222.994 231.373 223.182 230.585 223.182ZM230.585 221.977C231.184 221.977 231.676 221.824 232.062 221.517C232.449 221.21 232.735 220.807 232.92 220.307C233.106 219.807 233.199 219.265 233.199 218.682C233.199 218.098 233.106 217.555 232.92 217.051C232.735 216.547 232.449 216.14 232.062 215.83C231.676 215.519 231.184 215.364 230.585 215.364C229.987 215.364 229.494 215.519 229.108 215.83C228.722 216.14 228.436 216.547 228.25 217.051C228.064 217.555 227.972 218.098 227.972 218.682C227.972 219.265 228.064 219.807 228.25 220.307C228.436 220.807 228.722 221.21 229.108 221.517C229.494 221.824 229.987 221.977 230.585 221.977ZM244.996 223.159C244.246 223.159 243.577 223.03 242.99 222.773C242.407 222.515 241.943 222.157 241.598 221.699C241.257 221.237 241.071 220.701 241.041 220.091H242.473C242.503 220.466 242.632 220.79 242.859 221.062C243.087 221.331 243.384 221.54 243.751 221.688C244.119 221.835 244.526 221.909 244.973 221.909C245.473 221.909 245.916 221.822 246.303 221.648C246.689 221.473 246.992 221.231 247.212 220.92C247.431 220.61 247.541 220.25 247.541 219.841C247.541 219.413 247.435 219.036 247.223 218.71C247.011 218.381 246.7 218.123 246.291 217.938C245.882 217.752 245.382 217.659 244.791 217.659H243.859V216.409H244.791C245.253 216.409 245.659 216.326 246.007 216.159C246.359 215.992 246.634 215.758 246.831 215.455C247.032 215.152 247.132 214.795 247.132 214.386C247.132 213.992 247.045 213.65 246.871 213.358C246.696 213.066 246.45 212.839 246.132 212.676C245.818 212.513 245.446 212.432 245.018 212.432C244.617 212.432 244.238 212.506 243.882 212.653C243.53 212.797 243.242 213.008 243.018 213.284C242.795 213.557 242.674 213.886 242.655 214.273H241.291C241.314 213.663 241.498 213.129 241.842 212.67C242.187 212.208 242.638 211.848 243.195 211.591C243.755 211.333 244.371 211.205 245.041 211.205C245.761 211.205 246.378 211.35 246.893 211.642C247.409 211.93 247.804 212.311 248.081 212.784C248.357 213.258 248.496 213.769 248.496 214.318C248.496 214.973 248.323 215.532 247.979 215.994C247.638 216.456 247.174 216.777 246.587 216.955V217.045C247.321 217.167 247.895 217.479 248.308 217.983C248.721 218.483 248.928 219.102 248.928 219.841C248.928 220.473 248.755 221.042 248.411 221.545C248.07 222.045 247.604 222.439 247.013 222.727C246.422 223.015 245.75 223.159 244.996 223.159Z" fill="black"/>
<defs>
<clipPath id="clip0_1_38">
<rect width="30" height="30" fill="white" transform="translate(1090 20)"/>
</clipPath>
</defs>
</svg>
