<svg width="1280" height="720" viewBox="0 0 1280 720" fill="none" xmlns="http://www.w3.org/2000/svg">
<rect width="1280" height="720" fill="white"/>
<rect width="1280" height="70" fill="#2D28FF"/>
<path d="M162.818 29.3636V41H161.409V29.3636H162.818ZM166.803 35.75V41H165.462V32.2727H166.757V33.6364H166.871C167.075 33.1932 167.386 32.8371 167.803 32.5682C168.219 32.2955 168.757 32.1591 169.416 32.1591C170.007 32.1591 170.524 32.2803 170.967 32.5227C171.411 32.7614 171.755 33.125 172.001 33.6136C172.248 34.0985 172.371 34.7121 172.371 35.4545V41H171.03V35.5455C171.03 34.8598 170.852 34.3258 170.496 33.9432C170.14 33.5568 169.651 33.3636 169.03 33.3636C168.602 33.3636 168.219 33.4564 167.882 33.642C167.549 33.8277 167.286 34.0985 167.092 34.4545C166.899 34.8106 166.803 35.2424 166.803 35.75ZM174.821 41V32.2727H176.162V41H174.821ZM174.889 31.0909L176.276 28.4545H177.844L176.071 31.0909H174.889ZM182.163 41.1818C181.345 41.1818 180.641 40.9886 180.05 40.6023C179.459 40.2159 179.004 39.6837 178.686 39.0057C178.368 38.3277 178.209 37.553 178.209 36.6818C178.209 35.7955 178.372 35.0133 178.697 34.3352C179.027 33.6534 179.485 33.1212 180.072 32.7386C180.663 32.3523 181.353 32.1591 182.141 32.1591C182.754 32.1591 183.307 32.2727 183.8 32.5C184.292 32.7273 184.696 33.0455 185.01 33.4545C185.324 33.8636 185.519 34.3409 185.595 34.8864H184.254C184.152 34.4886 183.925 34.1364 183.572 33.8295C183.224 33.5189 182.754 33.3636 182.163 33.3636C181.641 33.3636 181.182 33.5 180.788 33.7727C180.398 34.0417 180.093 34.4223 179.874 34.9148C179.658 35.4034 179.55 35.9773 179.55 36.6364C179.55 37.3106 179.656 37.8977 179.868 38.3977C180.084 38.8977 180.387 39.286 180.777 39.5625C181.171 39.839 181.633 39.9773 182.163 39.9773C182.512 39.9773 182.828 39.9167 183.112 39.7955C183.396 39.6742 183.637 39.5 183.834 39.2727C184.031 39.0455 184.171 38.7727 184.254 38.4545H185.595C185.519 38.9697 185.332 39.4337 185.033 39.8466C184.737 40.2557 184.345 40.5814 183.857 40.8239C183.372 41.0625 182.807 41.1818 182.163 41.1818ZM187.555 41V32.2727H188.896V41H187.555ZM188.237 30.8182C187.976 30.8182 187.75 30.7292 187.561 30.5511C187.375 30.3731 187.283 30.1591 187.283 29.9091C187.283 29.6591 187.375 29.4451 187.561 29.267C187.75 29.089 187.976 29 188.237 29C188.499 29 188.722 29.089 188.908 29.267C189.097 29.4451 189.192 29.6591 189.192 29.9091C189.192 30.1591 189.097 30.3731 188.908 30.5511C188.722 30.7292 188.499 30.8182 188.237 30.8182ZM194.898 41.1818C194.11 41.1818 193.419 40.9943 192.824 40.6193C192.233 40.2443 191.771 39.7197 191.438 39.0455C191.108 38.3712 190.943 37.5833 190.943 36.6818C190.943 35.7727 191.108 34.9792 191.438 34.3011C191.771 33.6231 192.233 33.0966 192.824 32.7216C193.419 32.3466 194.11 32.1591 194.898 32.1591C195.686 32.1591 196.375 32.3466 196.966 32.7216C197.561 33.0966 198.023 33.6231 198.352 34.3011C198.686 34.9792 198.852 35.7727 198.852 36.6818C198.852 37.5833 198.686 38.3712 198.352 39.0455C198.023 39.7197 197.561 40.2443 196.966 40.6193C196.375 40.9943 195.686 41.1818 194.898 41.1818ZM194.898 39.9773C195.496 39.9773 195.989 39.8239 196.375 39.517C196.761 39.2102 197.047 38.8068 197.233 38.3068C197.419 37.8068 197.511 37.2652 197.511 36.6818C197.511 36.0985 197.419 35.5549 197.233 35.0511C197.047 34.5473 196.761 34.1402 196.375 33.8295C195.989 33.5189 195.496 33.3636 194.898 33.3636C194.299 33.3636 193.807 33.5189 193.42 33.8295C193.034 34.1402 192.748 34.5473 192.562 35.0511C192.377 35.5549 192.284 36.0985 192.284 36.6818C192.284 37.2652 192.377 37.8068 192.562 38.3068C192.748 38.8068 193.034 39.2102 193.42 39.517C193.807 39.8239 194.299 39.9773 194.898 39.9773Z" fill="white"/>
<path d="M221.409 41V29.3636H225.341C226.254 29.3636 227 29.5284 227.58 29.858C228.163 30.1837 228.595 30.625 228.875 31.1818C229.155 31.7386 229.295 32.3598 229.295 33.0455C229.295 33.7311 229.155 34.3542 228.875 34.9148C228.598 35.4754 228.17 35.9223 227.591 36.2557C227.011 36.5852 226.269 36.75 225.364 36.75H222.545V35.5H225.318C225.943 35.5 226.445 35.392 226.824 35.1761C227.203 34.9602 227.477 34.6686 227.648 34.3011C227.822 33.9299 227.909 33.5114 227.909 33.0455C227.909 32.5795 227.822 32.1629 227.648 31.7955C227.477 31.428 227.201 31.1402 226.818 30.9318C226.436 30.7197 225.928 30.6136 225.295 30.6136H222.818V41H221.409ZM231.384 41V32.2727H232.679V33.5909H232.77C232.929 33.1591 233.217 32.8087 233.634 32.5398C234.05 32.2708 234.52 32.1364 235.043 32.1364C235.141 32.1364 235.264 32.1383 235.412 32.142C235.56 32.1458 235.671 32.1515 235.747 32.1591V33.5227C235.702 33.5114 235.598 33.4943 235.435 33.4716C235.276 33.4451 235.107 33.4318 234.929 33.4318C234.505 33.4318 234.126 33.5208 233.793 33.6989C233.463 33.8731 233.202 34.1155 233.009 34.4261C232.819 34.733 232.724 35.0833 232.724 35.4773V41H231.384ZM240.616 41.1818C239.829 41.1818 239.137 40.9943 238.543 40.6193C237.952 40.2443 237.49 39.7197 237.156 39.0455C236.827 38.3712 236.662 37.5833 236.662 36.6818C236.662 35.7727 236.827 34.9792 237.156 34.3011C237.49 33.6231 237.952 33.0966 238.543 32.7216C239.137 32.3466 239.829 32.1591 240.616 32.1591C241.404 32.1591 242.094 32.3466 242.685 32.7216C243.279 33.0966 243.741 33.6231 244.071 34.3011C244.404 34.9792 244.571 35.7727 244.571 36.6818C244.571 37.5833 244.404 38.3712 244.071 39.0455C243.741 39.7197 243.279 40.2443 242.685 40.6193C242.094 40.9943 241.404 41.1818 240.616 41.1818ZM240.616 39.9773C241.215 39.9773 241.707 39.8239 242.094 39.517C242.48 39.2102 242.766 38.8068 242.952 38.3068C243.137 37.8068 243.23 37.2652 243.23 36.6818C243.23 36.0985 243.137 35.5549 242.952 35.0511C242.766 34.5473 242.48 34.1402 242.094 33.8295C241.707 33.5189 241.215 33.3636 240.616 33.3636C240.018 33.3636 239.526 33.5189 239.139 33.8295C238.753 34.1402 238.467 34.5473 238.281 35.0511C238.096 35.5549 238.003 36.0985 238.003 36.6818C238.003 37.2652 238.096 37.8068 238.281 38.3068C238.467 38.8068 238.753 39.2102 239.139 39.517C239.526 39.8239 240.018 39.9773 240.616 39.9773ZM249.913 41.1818C249.186 41.1818 248.544 40.9981 247.987 40.6307C247.43 40.2595 246.995 39.7367 246.68 39.0625C246.366 38.3845 246.209 37.5833 246.209 36.6591C246.209 35.7424 246.366 34.947 246.68 34.2727C246.995 33.5985 247.432 33.0777 247.993 32.7102C248.554 32.3428 249.201 32.1591 249.936 32.1591C250.504 32.1591 250.953 32.2538 251.283 32.4432C251.616 32.6288 251.87 32.8409 252.044 33.0795C252.222 33.3144 252.36 33.5076 252.459 33.6591H252.572V29.3636H253.913V41H252.618V39.6591H252.459C252.36 39.8182 252.22 40.0189 252.038 40.2614C251.857 40.5 251.597 40.714 251.26 40.9034C250.923 41.089 250.474 41.1818 249.913 41.1818ZM250.095 39.9773C250.633 39.9773 251.088 39.8371 251.459 39.5568C251.83 39.2727 252.112 38.8807 252.305 38.3807C252.499 37.8769 252.595 37.2955 252.595 36.6364C252.595 35.9848 252.5 35.4148 252.311 34.9261C252.122 34.4337 251.841 34.0511 251.47 33.7784C251.099 33.5019 250.641 33.3636 250.095 33.3636C249.527 33.3636 249.054 33.5095 248.675 33.8011C248.3 34.089 248.018 34.4811 247.828 34.9773C247.643 35.4697 247.55 36.0227 247.55 36.6364C247.55 37.2576 247.644 37.822 247.834 38.3295C248.027 38.8333 248.311 39.2348 248.686 39.5341C249.065 39.8295 249.535 39.9773 250.095 39.9773ZM262.055 37.4318V32.2727H263.396V41H262.055V39.5227H261.964C261.76 39.9659 261.442 40.3428 261.01 40.6534C260.578 40.9602 260.033 41.1136 259.374 41.1136C258.828 41.1136 258.343 40.9943 257.919 40.7557C257.495 40.5133 257.161 40.1496 256.919 39.6648C256.677 39.1761 256.555 38.5606 256.555 37.8182V32.2727H257.896V37.7273C257.896 38.3636 258.074 38.8712 258.43 39.25C258.79 39.6288 259.249 39.8182 259.805 39.8182C260.139 39.8182 260.478 39.733 260.822 39.5625C261.171 39.392 261.463 39.1307 261.697 38.7784C261.936 38.4261 262.055 37.9773 262.055 37.4318ZM269.648 32.2727V33.4091H265.125V32.2727H269.648ZM266.443 30.1818H267.784V38.5C267.784 38.8788 267.839 39.1629 267.949 39.3523C268.063 39.5379 268.206 39.6629 268.381 39.7273C268.559 39.7879 268.746 39.8182 268.943 39.8182C269.091 39.8182 269.212 39.8106 269.307 39.7955C269.402 39.7765 269.477 39.7614 269.534 39.75L269.807 40.9545C269.716 40.9886 269.589 41.0227 269.426 41.0568C269.263 41.0947 269.057 41.1136 268.807 41.1136C268.428 41.1136 268.057 41.0322 267.693 40.8693C267.333 40.7064 267.034 40.4583 266.795 40.125C266.561 39.7917 266.443 39.3712 266.443 38.8636V30.1818ZM275.116 41.1818C274.329 41.1818 273.637 40.9943 273.043 40.6193C272.452 40.2443 271.99 39.7197 271.656 39.0455C271.327 38.3712 271.162 37.5833 271.162 36.6818C271.162 35.7727 271.327 34.9792 271.656 34.3011C271.99 33.6231 272.452 33.0966 273.043 32.7216C273.637 32.3466 274.329 32.1591 275.116 32.1591C275.904 32.1591 276.594 32.3466 277.185 32.7216C277.779 33.0966 278.241 33.6231 278.571 34.3011C278.904 34.9792 279.071 35.7727 279.071 36.6818C279.071 37.5833 278.904 38.3712 278.571 39.0455C278.241 39.7197 277.779 40.2443 277.185 40.6193C276.594 40.9943 275.904 41.1818 275.116 41.1818ZM275.116 39.9773C275.715 39.9773 276.207 39.8239 276.594 39.517C276.98 39.2102 277.266 38.8068 277.452 38.3068C277.637 37.8068 277.73 37.2652 277.73 36.6818C277.73 36.0985 277.637 35.5549 277.452 35.0511C277.266 34.5473 276.98 34.1402 276.594 33.8295C276.207 33.5189 275.715 33.3636 275.116 33.3636C274.518 33.3636 274.026 33.5189 273.639 33.8295C273.253 34.1402 272.967 34.5473 272.781 35.0511C272.596 35.5549 272.503 36.0985 272.503 36.6818C272.503 37.2652 272.596 37.8068 272.781 38.3068C272.967 38.8068 273.253 39.2102 273.639 39.517C274.026 39.8239 274.518 39.9773 275.116 39.9773ZM287.3 34.2273L286.095 34.5682C286.019 34.3674 285.908 34.1723 285.76 33.983C285.616 33.7898 285.419 33.6307 285.169 33.5057C284.919 33.3807 284.599 33.3182 284.209 33.3182C283.675 33.3182 283.23 33.4413 282.874 33.6875C282.521 33.9299 282.345 34.2386 282.345 34.6136C282.345 34.947 282.466 35.2102 282.709 35.4034C282.951 35.5966 283.33 35.7576 283.845 35.8864L285.141 36.2045C285.921 36.3939 286.502 36.6837 286.885 37.0739C287.268 37.4602 287.459 37.9583 287.459 38.5682C287.459 39.0682 287.315 39.5152 287.027 39.9091C286.743 40.303 286.345 40.6136 285.834 40.8409C285.322 41.0682 284.728 41.1818 284.05 41.1818C283.16 41.1818 282.423 40.9886 281.839 40.6023C281.256 40.2159 280.887 39.6515 280.732 38.9091L282.004 38.5909C282.125 39.0606 282.355 39.4129 282.692 39.6477C283.033 39.8826 283.478 40 284.027 40C284.652 40 285.148 39.8674 285.516 39.6023C285.887 39.3333 286.072 39.0114 286.072 38.6364C286.072 38.3333 285.966 38.0795 285.754 37.875C285.542 37.6667 285.216 37.5114 284.777 37.4091L283.322 37.0682C282.523 36.8788 281.936 36.5852 281.561 36.1875C281.19 35.786 281.004 35.2841 281.004 34.6818C281.004 34.1894 281.143 33.7538 281.419 33.375C281.699 32.9962 282.08 32.6989 282.561 32.483C283.046 32.267 283.595 32.1591 284.209 32.1591C285.072 32.1591 285.75 32.3485 286.243 32.7273C286.739 33.1061 287.091 33.6061 287.3 34.2273Z" fill="white"/>
<path d="M316.773 32.2727C316.705 31.697 316.428 31.25 315.943 30.9318C315.458 30.6136 314.864 30.4545 314.159 30.4545C313.644 30.4545 313.193 30.5379 312.807 30.7045C312.424 30.8712 312.125 31.1004 311.909 31.392C311.697 31.6837 311.591 32.0152 311.591 32.3864C311.591 32.697 311.665 32.964 311.812 33.1875C311.964 33.4072 312.157 33.5909 312.392 33.7386C312.627 33.8826 312.873 34.0019 313.131 34.0966C313.388 34.1875 313.625 34.2614 313.841 34.3182L315.023 34.6364C315.326 34.7159 315.663 34.8258 316.034 34.9659C316.409 35.1061 316.767 35.2973 317.108 35.5398C317.453 35.7784 317.737 36.0852 317.96 36.4602C318.184 36.8352 318.295 37.2955 318.295 37.8409C318.295 38.4697 318.131 39.0379 317.801 39.5455C317.475 40.053 316.998 40.4564 316.369 40.7557C315.744 41.0549 314.985 41.2045 314.091 41.2045C313.258 41.2045 312.536 41.0701 311.926 40.8011C311.32 40.5322 310.843 40.1572 310.494 39.6761C310.15 39.1951 309.955 38.6364 309.909 38H311.364C311.402 38.4394 311.549 38.803 311.807 39.0909C312.068 39.375 312.398 39.5871 312.795 39.7273C313.197 39.8636 313.629 39.9318 314.091 39.9318C314.629 39.9318 315.112 39.8447 315.54 39.6705C315.968 39.4924 316.307 39.2462 316.557 38.9318C316.807 38.6136 316.932 38.2424 316.932 37.8182C316.932 37.4318 316.824 37.1174 316.608 36.875C316.392 36.6326 316.108 36.4356 315.756 36.2841C315.403 36.1326 315.023 36 314.614 35.8864L313.182 35.4773C312.273 35.2159 311.553 34.8428 311.023 34.358C310.492 33.8731 310.227 33.2386 310.227 32.4545C310.227 31.803 310.403 31.2348 310.756 30.75C311.112 30.2614 311.589 29.8826 312.188 29.6136C312.79 29.3409 313.462 29.2045 314.205 29.2045C314.955 29.2045 315.621 29.339 316.205 29.608C316.788 29.8731 317.25 30.2367 317.591 30.6989C317.936 31.161 318.117 31.6856 318.136 32.2727H316.773ZM323.976 41.1818C323.188 41.1818 322.497 40.9943 321.902 40.6193C321.311 40.2443 320.849 39.7197 320.516 39.0455C320.186 38.3712 320.021 37.5833 320.021 36.6818C320.021 35.7727 320.186 34.9792 320.516 34.3011C320.849 33.6231 321.311 33.0966 321.902 32.7216C322.497 32.3466 323.188 32.1591 323.976 32.1591C324.764 32.1591 325.453 32.3466 326.044 32.7216C326.639 33.0966 327.101 33.6231 327.43 34.3011C327.764 34.9792 327.93 35.7727 327.93 36.6818C327.93 37.5833 327.764 38.3712 327.43 39.0455C327.101 39.7197 326.639 40.2443 326.044 40.6193C325.453 40.9943 324.764 41.1818 323.976 41.1818ZM323.976 39.9773C324.574 39.9773 325.067 39.8239 325.453 39.517C325.839 39.2102 326.125 38.8068 326.311 38.3068C326.497 37.8068 326.589 37.2652 326.589 36.6818C326.589 36.0985 326.497 35.5549 326.311 35.0511C326.125 34.5473 325.839 34.1402 325.453 33.8295C325.067 33.5189 324.574 33.3636 323.976 33.3636C323.377 33.3636 322.885 33.5189 322.499 33.8295C322.112 34.1402 321.826 34.5473 321.641 35.0511C321.455 35.5549 321.362 36.0985 321.362 36.6818C321.362 37.2652 321.455 37.8068 321.641 38.3068C321.826 38.8068 322.112 39.2102 322.499 39.517C322.885 39.8239 323.377 39.9773 323.976 39.9773ZM330.159 41V29.3636H331.5V33.6591H331.614C331.712 33.5076 331.848 33.3144 332.023 33.0795C332.201 32.8409 332.455 32.6288 332.784 32.4432C333.117 32.2538 333.568 32.1591 334.136 32.1591C334.871 32.1591 335.519 32.3428 336.08 32.7102C336.64 33.0777 337.078 33.5985 337.392 34.2727C337.706 34.947 337.864 35.7424 337.864 36.6591C337.864 37.5833 337.706 38.3845 337.392 39.0625C337.078 39.7367 336.642 40.2595 336.085 40.6307C335.528 40.9981 334.886 41.1818 334.159 41.1818C333.598 41.1818 333.15 41.089 332.812 40.9034C332.475 40.714 332.216 40.5 332.034 40.2614C331.852 40.0189 331.712 39.8182 331.614 39.6591H331.455V41H330.159ZM331.477 36.6364C331.477 37.2955 331.574 37.8769 331.767 38.3807C331.96 38.8807 332.242 39.2727 332.614 39.5568C332.985 39.8371 333.439 39.9773 333.977 39.9773C334.538 39.9773 335.006 39.8295 335.381 39.5341C335.759 39.2348 336.044 38.8333 336.233 38.3295C336.426 37.822 336.523 37.2576 336.523 36.6364C336.523 36.0227 336.428 35.4697 336.239 34.9773C336.053 34.4811 335.771 34.089 335.392 33.8011C335.017 33.5095 334.545 33.3636 333.977 33.3636C333.432 33.3636 332.973 33.5019 332.602 33.7784C332.231 34.0511 331.951 34.4337 331.761 34.9261C331.572 35.4148 331.477 35.9848 331.477 36.6364ZM339.915 41V32.2727H341.21V33.5909H341.301C341.46 33.1591 341.748 32.8087 342.165 32.5398C342.581 32.2708 343.051 32.1364 343.574 32.1364C343.672 32.1364 343.795 32.1383 343.943 32.142C344.091 32.1458 344.203 32.1515 344.278 32.1591V33.5227C344.233 33.5114 344.129 33.4943 343.966 33.4716C343.807 33.4451 343.638 33.4318 343.46 33.4318C343.036 33.4318 342.657 33.5208 342.324 33.6989C341.994 33.8731 341.733 34.1155 341.54 34.4261C341.35 34.733 341.256 35.0833 341.256 35.4773V41H339.915ZM349.261 41.1818C348.42 41.1818 347.695 40.9962 347.085 40.625C346.479 40.25 346.011 39.7273 345.682 39.0568C345.356 38.3826 345.193 37.5985 345.193 36.7045C345.193 35.8106 345.356 35.0227 345.682 34.3409C346.011 33.6553 346.47 33.1212 347.057 32.7386C347.648 32.3523 348.337 32.1591 349.125 32.1591C349.58 32.1591 350.028 32.2348 350.472 32.3864C350.915 32.5379 351.318 32.7841 351.682 33.125C352.045 33.4621 352.335 33.9091 352.551 34.4659C352.767 35.0227 352.875 35.7083 352.875 36.5227V37.0909H346.148V35.9318H351.511C351.511 35.4394 351.413 35 351.216 34.6136C351.023 34.2273 350.746 33.9223 350.386 33.6989C350.03 33.4754 349.61 33.3636 349.125 33.3636C348.591 33.3636 348.129 33.4962 347.739 33.7614C347.352 34.0227 347.055 34.3636 346.847 34.7841C346.638 35.2045 346.534 35.6553 346.534 36.1364V36.9091C346.534 37.5682 346.648 38.1269 346.875 38.5852C347.106 39.0398 347.426 39.3864 347.835 39.625C348.244 39.8598 348.72 39.9773 349.261 39.9773C349.614 39.9773 349.932 39.928 350.216 39.8295C350.504 39.7273 350.752 39.5758 350.96 39.375C351.169 39.1705 351.33 38.9167 351.443 38.6136L352.739 38.9773C352.602 39.4167 352.373 39.803 352.051 40.1364C351.729 40.4659 351.331 40.7235 350.858 40.9091C350.384 41.0909 349.852 41.1818 349.261 41.1818ZM360.756 35.75V41H359.415V32.2727H360.71V33.6364H360.824C361.028 33.1932 361.339 32.8371 361.756 32.5682C362.172 32.2955 362.71 32.1591 363.369 32.1591C363.96 32.1591 364.477 32.2803 364.92 32.5227C365.364 32.7614 365.708 33.125 365.955 33.6136C366.201 34.0985 366.324 34.7121 366.324 35.4545V41H364.983V35.5455C364.983 34.8598 364.805 34.3258 364.449 33.9432C364.093 33.5568 363.604 33.3636 362.983 33.3636C362.555 33.3636 362.172 33.4564 361.835 33.642C361.502 33.8277 361.239 34.0985 361.045 34.4545C360.852 34.8106 360.756 35.2424 360.756 35.75ZM372.32 41.1818C371.532 41.1818 370.84 40.9943 370.246 40.6193C369.655 40.2443 369.193 39.7197 368.859 39.0455C368.53 38.3712 368.365 37.5833 368.365 36.6818C368.365 35.7727 368.53 34.9792 368.859 34.3011C369.193 33.6231 369.655 33.0966 370.246 32.7216C370.84 32.3466 371.532 32.1591 372.32 32.1591C373.107 32.1591 373.797 32.3466 374.388 32.7216C374.982 33.0966 375.445 33.6231 375.774 34.3011C376.107 34.9792 376.274 35.7727 376.274 36.6818C376.274 37.5833 376.107 38.3712 375.774 39.0455C375.445 39.7197 374.982 40.2443 374.388 40.6193C373.797 40.9943 373.107 41.1818 372.32 41.1818ZM372.32 39.9773C372.918 39.9773 373.411 39.8239 373.797 39.517C374.183 39.2102 374.469 38.8068 374.655 38.3068C374.84 37.8068 374.933 37.2652 374.933 36.6818C374.933 36.0985 374.84 35.5549 374.655 35.0511C374.469 34.5473 374.183 34.1402 373.797 33.8295C373.411 33.5189 372.918 33.3636 372.32 33.3636C371.721 33.3636 371.229 33.5189 370.842 33.8295C370.456 34.1402 370.17 34.5473 369.984 35.0511C369.799 35.5549 369.706 36.0985 369.706 36.6818C369.706 37.2652 369.799 37.8068 369.984 38.3068C370.17 38.8068 370.456 39.2102 370.842 39.517C371.229 39.8239 371.721 39.9773 372.32 39.9773ZM371.706 31.0909L373.092 28.4545H374.661L372.888 31.0909H371.706ZM384.503 34.2273L383.298 34.5682C383.223 34.3674 383.111 34.1723 382.963 33.983C382.819 33.7898 382.622 33.6307 382.372 33.5057C382.122 33.3807 381.802 33.3182 381.412 33.3182C380.878 33.3182 380.433 33.4413 380.077 33.6875C379.724 33.9299 379.548 34.2386 379.548 34.6136C379.548 34.947 379.67 35.2102 379.912 35.4034C380.154 35.5966 380.533 35.7576 381.048 35.8864L382.344 36.2045C383.124 36.3939 383.705 36.6837 384.088 37.0739C384.471 37.4602 384.662 37.9583 384.662 38.5682C384.662 39.0682 384.518 39.5152 384.23 39.9091C383.946 40.303 383.548 40.6136 383.037 40.8409C382.526 41.0682 381.931 41.1818 381.253 41.1818C380.363 41.1818 379.626 40.9886 379.043 40.6023C378.459 40.2159 378.09 39.6515 377.935 38.9091L379.207 38.5909C379.329 39.0606 379.558 39.4129 379.895 39.6477C380.236 39.8826 380.681 40 381.23 40C381.855 40 382.351 39.8674 382.719 39.6023C383.09 39.3333 383.276 39.0114 383.276 38.6364C383.276 38.3333 383.17 38.0795 382.957 37.875C382.745 37.6667 382.42 37.5114 381.98 37.4091L380.526 37.0682C379.726 36.8788 379.139 36.5852 378.764 36.1875C378.393 35.786 378.207 35.2841 378.207 34.6818C378.207 34.1894 378.346 33.7538 378.622 33.375C378.902 32.9962 379.283 32.6989 379.764 32.483C380.249 32.267 380.798 32.1591 381.412 32.1591C382.276 32.1591 382.954 32.3485 383.446 32.7273C383.942 33.1061 384.295 33.6061 384.503 34.2273Z" fill="white"/>
<g clip-path="url(#clip0_2_104)">
<path d="M1119.47 31.7924L1115.72 28.7331V23.8404C1115.72 23.2894 1115.27 22.8411 1114.72 22.8411H1112.36C1111.81 22.8411 1111.36 23.2894 1111.36 23.8404V25.1791L1106.34 21.0913C1105.98 20.7957 1105.5 20.6328 1105 20.6328C1104.49 20.6328 1104.02 20.7947 1103.66 21.0888L1090.53 31.7923C1089.93 32.2784 1089.97 32.7018 1090.04 32.9109C1090.11 33.1196 1090.35 33.4697 1091.12 33.4697H1092.92V47.5454C1092.92 48.55 1093.73 49.3671 1094.73 49.3671H1100.41C1101.41 49.3671 1102.18 48.5669 1102.18 47.5454V41.7732C1102.18 41.2785 1102.64 40.828 1103.14 40.828H1106.95C1107.43 40.828 1107.82 41.2521 1107.82 41.7732V47.5454C1107.82 48.5329 1108.67 49.3671 1109.68 49.3671H1115.27C1116.27 49.3671 1117.08 48.5499 1117.08 47.5454V33.4697H1118.88C1119.65 33.4697 1119.89 33.1196 1119.96 32.9109C1120.03 32.7018 1120.07 32.2784 1119.47 31.7924Z" fill="white"/>
</g>
<path d="M176.116 95.5455V113H172.929L165.335 102.014H165.207V113H161.517V95.5455H164.756L172.29 106.523H172.443V95.5455H176.116ZM182.83 113.247C181.995 113.247 181.251 113.102 180.597 112.812C179.944 112.517 179.427 112.082 179.046 111.509C178.671 110.929 178.484 110.207 178.484 109.344C178.484 108.616 178.617 108.006 178.884 107.511C179.151 107.017 179.515 106.619 179.975 106.318C180.435 106.017 180.958 105.79 181.543 105.636C182.134 105.483 182.754 105.375 183.401 105.312C184.163 105.233 184.776 105.159 185.242 105.091C185.708 105.017 186.046 104.909 186.256 104.767C186.467 104.625 186.572 104.415 186.572 104.136V104.085C186.572 103.545 186.401 103.128 186.06 102.832C185.725 102.537 185.248 102.389 184.629 102.389C183.975 102.389 183.455 102.534 183.069 102.824C182.683 103.108 182.427 103.466 182.302 103.898L178.944 103.625C179.114 102.83 179.45 102.142 179.95 101.562C180.45 100.977 181.094 100.528 181.884 100.216C182.68 99.8977 183.6 99.7386 184.646 99.7386C185.373 99.7386 186.069 99.8239 186.734 99.9943C187.404 100.165 187.998 100.429 188.515 100.787C189.038 101.145 189.45 101.605 189.751 102.168C190.052 102.724 190.202 103.392 190.202 104.17V113H186.759V111.185H186.657C186.447 111.594 186.165 111.955 185.813 112.267C185.461 112.574 185.038 112.815 184.543 112.991C184.049 113.162 183.478 113.247 182.83 113.247ZM183.87 110.741C184.404 110.741 184.876 110.636 185.285 110.426C185.694 110.21 186.015 109.92 186.248 109.557C186.481 109.193 186.597 108.781 186.597 108.321V106.932C186.484 107.006 186.327 107.074 186.129 107.136C185.935 107.193 185.717 107.247 185.472 107.298C185.228 107.344 184.984 107.386 184.739 107.426C184.495 107.46 184.273 107.491 184.075 107.52C183.648 107.582 183.276 107.682 182.958 107.818C182.64 107.955 182.393 108.139 182.217 108.372C182.04 108.599 181.952 108.884 181.952 109.224C181.952 109.719 182.131 110.097 182.489 110.358C182.853 110.614 183.313 110.741 183.87 110.741ZM182.344 98.2983L180.325 98.2727C180.325 97.1875 180.592 96.3551 181.126 95.7756C181.665 95.196 182.322 94.9034 183.094 94.8977C183.492 94.8977 183.833 94.9631 184.117 95.0938C184.407 95.2188 184.665 95.3665 184.893 95.5369C185.126 95.7074 185.347 95.858 185.558 95.9886C185.768 96.1136 185.995 96.1761 186.239 96.1761C186.569 96.1705 186.819 96.0483 186.989 95.8097C187.165 95.5653 187.254 95.2472 187.254 94.8551L189.239 94.9148C189.228 95.9886 188.955 96.8182 188.421 97.4034C187.887 97.983 187.237 98.2756 186.469 98.2812C186.043 98.2812 185.685 98.2188 185.396 98.0938C185.112 97.9631 184.862 97.8153 184.646 97.6506C184.43 97.4801 184.219 97.3295 184.015 97.1989C183.81 97.0682 183.58 97.0028 183.325 97.0028C183.029 97.0028 182.79 97.1193 182.609 97.3523C182.433 97.5852 182.344 97.9006 182.344 98.2983ZM198.934 113.256C197.61 113.256 196.465 112.974 195.499 112.412C194.539 111.844 193.798 111.054 193.275 110.043C192.752 109.026 192.491 107.847 192.491 106.506C192.491 105.153 192.752 103.972 193.275 102.96C193.798 101.943 194.539 101.153 195.499 100.591C196.465 100.023 197.61 99.7386 198.934 99.7386C200.258 99.7386 201.4 100.023 202.36 100.591C203.326 101.153 204.07 101.943 204.593 102.96C205.116 103.972 205.377 105.153 205.377 106.506C205.377 107.847 205.116 109.026 204.593 110.043C204.07 111.054 203.326 111.844 202.36 112.412C201.4 112.974 200.258 113.256 198.934 113.256ZM198.951 110.443C199.553 110.443 200.056 110.273 200.46 109.932C200.863 109.585 201.167 109.114 201.371 108.517C201.582 107.92 201.687 107.241 201.687 106.48C201.687 105.719 201.582 105.04 201.371 104.443C201.167 103.847 200.863 103.375 200.46 103.028C200.056 102.682 199.553 102.509 198.951 102.509C198.343 102.509 197.832 102.682 197.417 103.028C197.008 103.375 196.698 103.847 196.488 104.443C196.283 105.04 196.181 105.719 196.181 106.48C196.181 107.241 196.283 107.92 196.488 108.517C196.698 109.114 197.008 109.585 197.417 109.932C197.832 110.273 198.343 110.443 198.951 110.443ZM219.259 113.256C217.912 113.256 216.753 112.983 215.781 112.438C214.815 111.886 214.071 111.108 213.548 110.102C213.026 109.091 212.764 107.895 212.764 106.514C212.764 105.168 213.026 103.986 213.548 102.969C214.071 101.952 214.807 101.159 215.756 100.591C216.71 100.023 217.83 99.7386 219.114 99.7386C219.977 99.7386 220.781 99.8778 221.526 100.156C222.276 100.429 222.929 100.841 223.486 101.392C224.048 101.943 224.486 102.636 224.798 103.472C225.111 104.301 225.267 105.273 225.267 106.386V107.384H214.213V105.134H221.849C221.849 104.611 221.736 104.148 221.509 103.744C221.281 103.341 220.966 103.026 220.562 102.798C220.165 102.565 219.702 102.449 219.173 102.449C218.622 102.449 218.134 102.577 217.707 102.832C217.287 103.082 216.957 103.42 216.719 103.847C216.48 104.267 216.358 104.736 216.352 105.253V107.392C216.352 108.04 216.472 108.599 216.71 109.071C216.955 109.543 217.298 109.906 217.741 110.162C218.185 110.418 218.71 110.545 219.318 110.545C219.722 110.545 220.091 110.489 220.426 110.375C220.761 110.261 221.048 110.091 221.287 109.864C221.526 109.636 221.707 109.358 221.832 109.028L225.19 109.25C225.02 110.057 224.67 110.761 224.142 111.364C223.619 111.96 222.943 112.426 222.114 112.761C221.29 113.091 220.338 113.256 219.259 113.256ZM231.267 105.432V113H227.636V99.9091H231.097V102.219H231.25C231.54 101.457 232.026 100.855 232.707 100.412C233.389 99.9631 234.216 99.7386 235.188 99.7386C236.097 99.7386 236.889 99.9375 237.565 100.335C238.241 100.733 238.767 101.301 239.142 102.04C239.517 102.773 239.705 103.648 239.705 104.665V113H236.074V105.312C236.08 104.511 235.875 103.886 235.46 103.438C235.045 102.983 234.474 102.756 233.747 102.756C233.259 102.756 232.827 102.861 232.452 103.071C232.082 103.281 231.793 103.588 231.582 103.991C231.378 104.389 231.273 104.869 231.267 105.432ZM248.481 113.256C247.14 113.256 245.987 112.972 245.021 112.403C244.06 111.83 243.322 111.034 242.805 110.017C242.293 109 242.038 107.83 242.038 106.506C242.038 105.165 242.296 103.989 242.813 102.977C243.336 101.96 244.077 101.168 245.038 100.599C245.998 100.026 247.14 99.7386 248.464 99.7386C249.606 99.7386 250.606 99.946 251.464 100.361C252.322 100.776 253.001 101.358 253.501 102.108C254.001 102.858 254.276 103.739 254.327 104.75H250.901C250.805 104.097 250.549 103.571 250.134 103.173C249.725 102.77 249.188 102.568 248.523 102.568C247.961 102.568 247.469 102.722 247.049 103.028C246.634 103.33 246.31 103.77 246.077 104.349C245.844 104.929 245.728 105.631 245.728 106.455C245.728 107.29 245.842 108 246.069 108.585C246.302 109.17 246.629 109.616 247.049 109.923C247.469 110.23 247.961 110.384 248.523 110.384C248.938 110.384 249.31 110.298 249.64 110.128C249.975 109.957 250.251 109.71 250.467 109.386C250.688 109.057 250.833 108.662 250.901 108.202H254.327C254.271 109.202 253.998 110.082 253.509 110.844C253.026 111.599 252.359 112.19 251.506 112.616C250.654 113.043 249.646 113.256 248.481 113.256ZM262.567 113.256C261.243 113.256 260.098 112.974 259.132 112.412C258.172 111.844 257.43 111.054 256.908 110.043C256.385 109.026 256.124 107.847 256.124 106.506C256.124 105.153 256.385 103.972 256.908 102.96C257.43 101.943 258.172 101.153 259.132 100.591C260.098 100.023 261.243 99.7386 262.567 99.7386C263.891 99.7386 265.033 100.023 265.993 100.591C266.959 101.153 267.703 101.943 268.226 102.96C268.749 103.972 269.01 105.153 269.01 106.506C269.01 107.847 268.749 109.026 268.226 110.043C267.703 111.054 266.959 111.844 265.993 112.412C265.033 112.974 263.891 113.256 262.567 113.256ZM262.584 110.443C263.186 110.443 263.689 110.273 264.092 109.932C264.496 109.585 264.8 109.114 265.004 108.517C265.214 107.92 265.32 107.241 265.32 106.48C265.32 105.719 265.214 105.04 265.004 104.443C264.8 103.847 264.496 103.375 264.092 103.028C263.689 102.682 263.186 102.509 262.584 102.509C261.976 102.509 261.464 102.682 261.05 103.028C260.641 103.375 260.331 103.847 260.121 104.443C259.916 105.04 259.814 105.719 259.814 106.48C259.814 107.241 259.916 107.92 260.121 108.517C260.331 109.114 260.641 109.585 261.05 109.932C261.464 110.273 261.976 110.443 262.584 110.443ZM275.001 105.432V113H271.371V99.9091H274.831V102.219H274.984C275.274 101.457 275.76 100.855 276.442 100.412C277.124 99.9631 277.95 99.7386 278.922 99.7386C279.831 99.7386 280.624 99.9375 281.3 100.335C281.976 100.733 282.501 101.301 282.876 102.04C283.251 102.773 283.439 103.648 283.439 104.665V113H279.808V105.312C279.814 104.511 279.609 103.886 279.195 103.438C278.78 102.983 278.209 102.756 277.482 102.756C276.993 102.756 276.561 102.861 276.186 103.071C275.817 103.281 275.527 103.588 275.317 103.991C275.112 104.389 275.007 104.869 275.001 105.432ZM293.263 99.9091V102.636H285.38V99.9091H293.263ZM287.17 96.7727H290.8V108.977C290.8 109.312 290.852 109.574 290.954 109.761C291.056 109.943 291.198 110.071 291.38 110.145C291.567 110.219 291.783 110.256 292.028 110.256C292.198 110.256 292.369 110.241 292.539 110.213C292.71 110.179 292.84 110.153 292.931 110.136L293.502 112.838C293.32 112.895 293.065 112.96 292.735 113.034C292.406 113.114 292.005 113.162 291.533 113.179C290.658 113.213 289.891 113.097 289.232 112.83C288.579 112.562 288.07 112.148 287.707 111.585C287.343 111.023 287.164 110.312 287.17 109.455V96.7727ZM295.629 113V99.9091H299.148V102.193H299.285C299.523 101.381 299.924 100.767 300.487 100.352C301.049 99.9318 301.697 99.7216 302.43 99.7216C302.612 99.7216 302.808 99.733 303.018 99.7557C303.228 99.7784 303.413 99.8097 303.572 99.8494V103.071C303.401 103.02 303.165 102.974 302.864 102.935C302.563 102.895 302.288 102.875 302.038 102.875C301.504 102.875 301.026 102.991 300.606 103.224C300.191 103.452 299.862 103.77 299.617 104.179C299.379 104.588 299.259 105.06 299.259 105.594V113H295.629ZM308.807 113.247C307.972 113.247 307.227 113.102 306.574 112.812C305.92 112.517 305.403 112.082 305.023 111.509C304.648 110.929 304.46 110.207 304.46 109.344C304.46 108.616 304.594 108.006 304.861 107.511C305.128 107.017 305.491 106.619 305.952 106.318C306.412 106.017 306.935 105.79 307.52 105.636C308.111 105.483 308.73 105.375 309.378 105.312C310.139 105.233 310.753 105.159 311.219 105.091C311.685 105.017 312.023 104.909 312.233 104.767C312.443 104.625 312.548 104.415 312.548 104.136V104.085C312.548 103.545 312.378 103.128 312.037 102.832C311.702 102.537 311.224 102.389 310.605 102.389C309.952 102.389 309.432 102.534 309.045 102.824C308.659 103.108 308.403 103.466 308.278 103.898L304.92 103.625C305.091 102.83 305.426 102.142 305.926 101.562C306.426 100.977 307.071 100.528 307.861 100.216C308.656 99.8977 309.577 99.7386 310.622 99.7386C311.349 99.7386 312.045 99.8239 312.71 99.9943C313.381 100.165 313.974 100.429 314.491 100.787C315.014 101.145 315.426 101.605 315.727 102.168C316.028 102.724 316.179 103.392 316.179 104.17V113H312.736V111.185H312.634C312.423 111.594 312.142 111.955 311.79 112.267C311.438 112.574 311.014 112.815 310.52 112.991C310.026 113.162 309.455 113.247 308.807 113.247ZM309.847 110.741C310.381 110.741 310.852 110.636 311.261 110.426C311.67 110.21 311.991 109.92 312.224 109.557C312.457 109.193 312.574 108.781 312.574 108.321V106.932C312.46 107.006 312.304 107.074 312.105 107.136C311.912 107.193 311.693 107.247 311.449 107.298C311.205 107.344 310.96 107.386 310.716 107.426C310.472 107.46 310.25 107.491 310.051 107.52C309.625 107.582 309.253 107.682 308.935 107.818C308.616 107.955 308.369 108.139 308.193 108.372C308.017 108.599 307.929 108.884 307.929 109.224C307.929 109.719 308.108 110.097 308.466 110.358C308.83 110.614 309.29 110.741 309.847 110.741ZM323.82 113.213C322.825 113.213 321.925 112.957 321.118 112.446C320.317 111.929 319.68 111.17 319.209 110.17C318.743 109.165 318.51 107.932 318.51 106.472C318.51 104.972 318.751 103.724 319.234 102.73C319.717 101.73 320.359 100.983 321.161 100.489C321.967 99.9886 322.851 99.7386 323.811 99.7386C324.544 99.7386 325.155 99.8636 325.643 100.114C326.138 100.358 326.536 100.665 326.837 101.034C327.143 101.398 327.376 101.756 327.536 102.108H327.646V95.5455H331.268V113H327.689V110.903H327.536C327.365 111.267 327.124 111.628 326.811 111.986C326.504 112.338 326.104 112.631 325.609 112.864C325.121 113.097 324.524 113.213 323.82 113.213ZM324.97 110.324C325.555 110.324 326.05 110.165 326.453 109.847C326.862 109.523 327.175 109.071 327.391 108.491C327.612 107.912 327.723 107.233 327.723 106.455C327.723 105.676 327.615 105 327.399 104.426C327.183 103.852 326.871 103.409 326.462 103.097C326.053 102.784 325.555 102.628 324.97 102.628C324.374 102.628 323.871 102.79 323.462 103.114C323.053 103.437 322.743 103.886 322.533 104.46C322.322 105.034 322.217 105.699 322.217 106.455C322.217 107.216 322.322 107.889 322.533 108.474C322.749 109.054 323.058 109.509 323.462 109.838C323.871 110.162 324.374 110.324 324.97 110.324ZM340.168 113.256C338.844 113.256 337.7 112.974 336.734 112.412C335.773 111.844 335.032 111.054 334.509 110.043C333.987 109.026 333.725 107.847 333.725 106.506C333.725 105.153 333.987 103.972 334.509 102.96C335.032 101.943 335.773 101.153 336.734 100.591C337.7 100.023 338.844 99.7386 340.168 99.7386C341.492 99.7386 342.634 100.023 343.594 100.591C344.56 101.153 345.305 101.943 345.827 102.96C346.35 103.972 346.612 105.153 346.612 106.506C346.612 107.847 346.35 109.026 345.827 110.043C345.305 111.054 344.56 111.844 343.594 112.412C342.634 112.974 341.492 113.256 340.168 113.256ZM340.185 110.443C340.788 110.443 341.29 110.273 341.694 109.932C342.097 109.585 342.401 109.114 342.606 108.517C342.816 107.92 342.921 107.241 342.921 106.48C342.921 105.719 342.816 105.04 342.606 104.443C342.401 103.847 342.097 103.375 341.694 103.028C341.29 102.682 340.788 102.509 340.185 102.509C339.577 102.509 339.066 102.682 338.651 103.028C338.242 103.375 337.933 103.847 337.722 104.443C337.518 105.04 337.415 105.719 337.415 106.48C337.415 107.241 337.518 107.92 337.722 108.517C337.933 109.114 338.242 109.585 338.651 109.932C339.066 110.273 339.577 110.443 340.185 110.443ZM353.31 95.5455L352.978 107.767H349.859L349.518 95.5455H353.31ZM351.418 113.222C350.856 113.222 350.373 113.023 349.969 112.625C349.566 112.222 349.367 111.739 349.373 111.176C349.367 110.619 349.566 110.142 349.969 109.744C350.373 109.347 350.856 109.148 351.418 109.148C351.958 109.148 352.433 109.347 352.842 109.744C353.251 110.142 353.458 110.619 353.464 111.176C353.458 111.551 353.359 111.895 353.165 112.207C352.978 112.514 352.731 112.761 352.424 112.949C352.117 113.131 351.782 113.222 351.418 113.222Z" fill="black"/>
<defs>
<clipPath id="clip0_2_104">
<rect width="30" height="30" fill="white" transform="translate(1090 20)"/>
</clipPath>
</defs>
</svg>
