<svg width="1280" height="720" viewBox="0 0 1280 720" fill="none" xmlns="http://www.w3.org/2000/svg">
<rect width="1280" height="720" fill="white"/>
<rect width="1280" height="70" fill="#2D28FF"/>
<path d="M162.818 29.3636V41H161.409V29.3636H162.818ZM166.803 35.75V41H165.462V32.2727H166.757V33.6364H166.871C167.075 33.1932 167.386 32.8371 167.803 32.5682C168.219 32.2955 168.757 32.1591 169.416 32.1591C170.007 32.1591 170.524 32.2803 170.967 32.5227C171.411 32.7614 171.755 33.125 172.001 33.6136C172.248 34.0985 172.371 34.7121 172.371 35.4545V41H171.03V35.5455C171.03 34.8598 170.852 34.3258 170.496 33.9432C170.14 33.5568 169.651 33.3636 169.03 33.3636C168.602 33.3636 168.219 33.4564 167.882 33.642C167.549 33.8277 167.286 34.0985 167.092 34.4545C166.899 34.8106 166.803 35.2424 166.803 35.75ZM174.821 41V32.2727H176.162V41H174.821ZM174.889 31.0909L176.276 28.4545H177.844L176.071 31.0909H174.889ZM182.163 41.1818C181.345 41.1818 180.641 40.9886 180.05 40.6023C179.459 40.2159 179.004 39.6837 178.686 39.0057C178.368 38.3277 178.209 37.553 178.209 36.6818C178.209 35.7955 178.372 35.0133 178.697 34.3352C179.027 33.6534 179.485 33.1212 180.072 32.7386C180.663 32.3523 181.353 32.1591 182.141 32.1591C182.754 32.1591 183.307 32.2727 183.8 32.5C184.292 32.7273 184.696 33.0455 185.01 33.4545C185.324 33.8636 185.519 34.3409 185.595 34.8864H184.254C184.152 34.4886 183.925 34.1364 183.572 33.8295C183.224 33.5189 182.754 33.3636 182.163 33.3636C181.641 33.3636 181.182 33.5 180.788 33.7727C180.398 34.0417 180.093 34.4223 179.874 34.9148C179.658 35.4034 179.55 35.9773 179.55 36.6364C179.55 37.3106 179.656 37.8977 179.868 38.3977C180.084 38.8977 180.387 39.286 180.777 39.5625C181.171 39.839 181.633 39.9773 182.163 39.9773C182.512 39.9773 182.828 39.9167 183.112 39.7955C183.396 39.6742 183.637 39.5 183.834 39.2727C184.031 39.0455 184.171 38.7727 184.254 38.4545H185.595C185.519 38.9697 185.332 39.4337 185.033 39.8466C184.737 40.2557 184.345 40.5814 183.857 40.8239C183.372 41.0625 182.807 41.1818 182.163 41.1818ZM187.555 41V32.2727H188.896V41H187.555ZM188.237 30.8182C187.976 30.8182 187.75 30.7292 187.561 30.5511C187.375 30.3731 187.283 30.1591 187.283 29.9091C187.283 29.6591 187.375 29.4451 187.561 29.267C187.75 29.089 187.976 29 188.237 29C188.499 29 188.722 29.089 188.908 29.267C189.097 29.4451 189.192 29.6591 189.192 29.9091C189.192 30.1591 189.097 30.3731 188.908 30.5511C188.722 30.7292 188.499 30.8182 188.237 30.8182ZM194.898 41.1818C194.11 41.1818 193.419 40.9943 192.824 40.6193C192.233 40.2443 191.771 39.7197 191.438 39.0455C191.108 38.3712 190.943 37.5833 190.943 36.6818C190.943 35.7727 191.108 34.9792 191.438 34.3011C191.771 33.6231 192.233 33.0966 192.824 32.7216C193.419 32.3466 194.11 32.1591 194.898 32.1591C195.686 32.1591 196.375 32.3466 196.966 32.7216C197.561 33.0966 198.023 33.6231 198.352 34.3011C198.686 34.9792 198.852 35.7727 198.852 36.6818C198.852 37.5833 198.686 38.3712 198.352 39.0455C198.023 39.7197 197.561 40.2443 196.966 40.6193C196.375 40.9943 195.686 41.1818 194.898 41.1818ZM194.898 39.9773C195.496 39.9773 195.989 39.8239 196.375 39.517C196.761 39.2102 197.047 38.8068 197.233 38.3068C197.419 37.8068 197.511 37.2652 197.511 36.6818C197.511 36.0985 197.419 35.5549 197.233 35.0511C197.047 34.5473 196.761 34.1402 196.375 33.8295C195.989 33.5189 195.496 33.3636 194.898 33.3636C194.299 33.3636 193.807 33.5189 193.42 33.8295C193.034 34.1402 192.748 34.5473 192.562 35.0511C192.377 35.5549 192.284 36.0985 192.284 36.6818C192.284 37.2652 192.377 37.8068 192.562 38.3068C192.748 38.8068 193.034 39.2102 193.42 39.517C193.807 39.8239 194.299 39.9773 194.898 39.9773Z" fill="white"/>
<path d="M221.011 41V29.3636H225.602C226.485 29.3636 227.237 29.5322 227.858 29.8693C228.479 30.2027 228.953 30.6667 229.278 31.2614C229.608 31.8523 229.773 32.5341 229.773 33.3068C229.773 34.0795 229.606 34.7614 229.273 35.3523C228.939 35.9432 228.456 36.4034 227.824 36.733C227.195 37.0625 226.434 37.2273 225.54 37.2273H222.614V35.2557H225.142C225.616 35.2557 226.006 35.1742 226.312 35.0114C226.623 34.8447 226.854 34.6155 227.006 34.3239C227.161 34.0284 227.239 33.6894 227.239 33.3068C227.239 32.9205 227.161 32.5833 227.006 32.2955C226.854 32.0038 226.623 31.7784 226.312 31.6193C226.002 31.4564 225.608 31.375 225.131 31.375H223.472V41H221.011ZM231.325 41V32.2727H233.672V33.7955H233.763C233.922 33.2538 234.189 32.8447 234.564 32.5682C234.939 32.2879 235.371 32.1477 235.859 32.1477C235.981 32.1477 236.111 32.1553 236.251 32.1705C236.392 32.1856 236.515 32.2064 236.621 32.233V34.3807C236.507 34.3466 236.35 34.3163 236.149 34.2898C235.948 34.2633 235.765 34.25 235.598 34.25C235.242 34.25 234.924 34.3277 234.643 34.483C234.367 34.6345 234.147 34.8466 233.984 35.1193C233.825 35.392 233.746 35.7064 233.746 36.0625V41H231.325ZM241.409 41.1705C240.527 41.1705 239.763 40.983 239.119 40.608C238.479 40.2292 237.985 39.7027 237.636 39.0284C237.288 38.3504 237.114 37.5644 237.114 36.6705C237.114 35.7689 237.288 34.9811 237.636 34.3068C237.985 33.6288 238.479 33.1023 239.119 32.7273C239.763 32.3485 240.527 32.1591 241.409 32.1591C242.292 32.1591 243.053 32.3485 243.693 32.7273C244.337 33.1023 244.833 33.6288 245.182 34.3068C245.53 34.9811 245.705 35.7689 245.705 36.6705C245.705 37.5644 245.53 38.3504 245.182 39.0284C244.833 39.7027 244.337 40.2292 243.693 40.608C243.053 40.983 242.292 41.1705 241.409 41.1705ZM241.42 39.2955C241.822 39.2955 242.157 39.1818 242.426 38.9545C242.695 38.7235 242.898 38.4091 243.034 38.0114C243.174 37.6136 243.244 37.161 243.244 36.6534C243.244 36.1458 243.174 35.6932 243.034 35.2955C242.898 34.8977 242.695 34.5833 242.426 34.3523C242.157 34.1212 241.822 34.0057 241.42 34.0057C241.015 34.0057 240.674 34.1212 240.398 34.3523C240.125 34.5833 239.919 34.8977 239.778 35.2955C239.642 35.6932 239.574 36.1458 239.574 36.6534C239.574 37.161 239.642 37.6136 239.778 38.0114C239.919 38.4091 240.125 38.7235 240.398 38.9545C240.674 39.1818 241.015 39.2955 241.42 39.2955ZM250.494 41.142C249.831 41.142 249.231 40.9716 248.693 40.6307C248.159 40.286 247.735 39.7803 247.42 39.1136C247.11 38.4432 246.955 37.6212 246.955 36.6477C246.955 35.6477 247.116 34.8163 247.438 34.1534C247.759 33.4867 248.188 32.9886 248.722 32.6591C249.259 32.3258 249.848 32.1591 250.489 32.1591C250.977 32.1591 251.384 32.2424 251.71 32.4091C252.04 32.572 252.305 32.7765 252.506 33.0227C252.71 33.2652 252.866 33.5038 252.972 33.7386H253.045V29.3636H255.46V41H253.074V39.6023H252.972C252.858 39.8447 252.697 40.0852 252.489 40.3239C252.284 40.5587 252.017 40.7538 251.688 40.9091C251.362 41.0644 250.964 41.142 250.494 41.142ZM251.261 39.2159C251.652 39.2159 251.981 39.1098 252.25 38.8977C252.523 38.6818 252.731 38.3807 252.875 37.9943C253.023 37.608 253.097 37.1553 253.097 36.6364C253.097 36.1174 253.025 35.6667 252.881 35.2841C252.737 34.9015 252.528 34.6061 252.256 34.3977C251.983 34.1894 251.652 34.0852 251.261 34.0852C250.864 34.0852 250.528 34.1932 250.256 34.4091C249.983 34.625 249.777 34.9242 249.636 35.3068C249.496 35.6894 249.426 36.1326 249.426 36.6364C249.426 37.1439 249.496 37.5928 249.636 37.983C249.78 38.3693 249.987 38.6723 250.256 38.892C250.528 39.108 250.864 39.2159 251.261 39.2159ZM263.047 37.2841V32.2727H265.467V41H263.143V39.4148H263.053C262.856 39.9261 262.528 40.3371 262.07 40.6477C261.615 40.9583 261.06 41.1136 260.405 41.1136C259.821 41.1136 259.308 40.9811 258.865 40.7159C258.422 40.4508 258.075 40.0739 257.825 39.5852C257.579 39.0966 257.454 38.5114 257.45 37.8295V32.2727H259.871V37.3977C259.875 37.9129 260.013 38.3201 260.286 38.6193C260.558 38.9186 260.924 39.0682 261.382 39.0682C261.674 39.0682 261.946 39.0019 262.2 38.8693C262.454 38.733 262.659 38.5322 262.814 38.267C262.973 38.0019 263.051 37.6742 263.047 37.2841ZM272.045 32.2727V34.0909H266.79V32.2727H272.045ZM267.983 30.1818H270.403V38.3182C270.403 38.5417 270.438 38.7159 270.506 38.8409C270.574 38.9621 270.669 39.0473 270.79 39.0966C270.915 39.1458 271.059 39.1705 271.222 39.1705C271.335 39.1705 271.449 39.161 271.562 39.142C271.676 39.1193 271.763 39.1023 271.824 39.0909L272.205 40.892C272.083 40.9299 271.913 40.9735 271.693 41.0227C271.473 41.0758 271.206 41.108 270.892 41.1193C270.309 41.142 269.797 41.0644 269.358 40.8864C268.922 40.7083 268.583 40.4318 268.341 40.0568C268.098 39.6818 267.979 39.2083 267.983 38.6364V30.1818ZM277.472 41.1705C276.589 41.1705 275.826 40.983 275.182 40.608C274.542 40.2292 274.047 39.7027 273.699 39.0284C273.35 38.3504 273.176 37.5644 273.176 36.6705C273.176 35.7689 273.35 34.9811 273.699 34.3068C274.047 33.6288 274.542 33.1023 275.182 32.7273C275.826 32.3485 276.589 32.1591 277.472 32.1591C278.354 32.1591 279.116 32.3485 279.756 32.7273C280.4 33.1023 280.896 33.6288 281.244 34.3068C281.593 34.9811 281.767 35.7689 281.767 36.6705C281.767 37.5644 281.593 38.3504 281.244 39.0284C280.896 39.7027 280.4 40.2292 279.756 40.608C279.116 40.983 278.354 41.1705 277.472 41.1705ZM277.483 39.2955C277.884 39.2955 278.22 39.1818 278.489 38.9545C278.758 38.7235 278.96 38.4091 279.097 38.0114C279.237 37.6136 279.307 37.161 279.307 36.6534C279.307 36.1458 279.237 35.6932 279.097 35.2955C278.96 34.8977 278.758 34.5833 278.489 34.3523C278.22 34.1212 277.884 34.0057 277.483 34.0057C277.078 34.0057 276.737 34.1212 276.46 34.3523C276.188 34.5833 275.981 34.8977 275.841 35.2955C275.705 35.6932 275.636 36.1458 275.636 36.6534C275.636 37.161 275.705 37.6136 275.841 38.0114C275.981 38.4091 276.188 38.7235 276.46 38.9545C276.737 39.1818 277.078 39.2955 277.483 39.2955ZM290.602 34.7614L288.386 34.8977C288.348 34.7083 288.267 34.5379 288.142 34.3864C288.017 34.2311 287.852 34.108 287.648 34.017C287.447 33.9223 287.206 33.875 286.926 33.875C286.551 33.875 286.235 33.9545 285.977 34.1136C285.72 34.2689 285.591 34.4773 285.591 34.7386C285.591 34.947 285.674 35.1231 285.841 35.267C286.008 35.411 286.294 35.5265 286.699 35.6136L288.278 35.9318C289.127 36.1061 289.759 36.3864 290.176 36.7727C290.593 37.1591 290.801 37.6667 290.801 38.2955C290.801 38.8674 290.633 39.3693 290.295 39.8011C289.962 40.233 289.504 40.5701 288.92 40.8125C288.341 41.0511 287.672 41.1705 286.915 41.1705C285.759 41.1705 284.839 40.9299 284.153 40.4489C283.472 39.964 283.072 39.3049 282.955 38.4716L285.335 38.3466C285.407 38.6989 285.581 38.9678 285.858 39.1534C286.134 39.3352 286.489 39.4261 286.92 39.4261C287.345 39.4261 287.686 39.3447 287.943 39.1818C288.205 39.0152 288.337 38.8011 288.341 38.5398C288.337 38.3201 288.244 38.1402 288.062 38C287.881 37.8561 287.6 37.7462 287.222 37.6705L285.71 37.3693C284.858 37.1989 284.223 36.9034 283.807 36.483C283.394 36.0625 283.188 35.5265 283.188 34.875C283.188 34.3144 283.339 33.8314 283.642 33.4261C283.949 33.0208 284.379 32.7083 284.932 32.4886C285.489 32.2689 286.14 32.1591 286.886 32.1591C287.989 32.1591 288.856 32.392 289.489 32.858C290.125 33.3239 290.496 33.9583 290.602 34.7614Z" fill="white"/>
<path d="M319.773 32.2727C319.705 31.697 319.428 31.25 318.943 30.9318C318.458 30.6136 317.864 30.4545 317.159 30.4545C316.644 30.4545 316.193 30.5379 315.807 30.7045C315.424 30.8712 315.125 31.1004 314.909 31.392C314.697 31.6837 314.591 32.0152 314.591 32.3864C314.591 32.697 314.665 32.964 314.812 33.1875C314.964 33.4072 315.157 33.5909 315.392 33.7386C315.627 33.8826 315.873 34.0019 316.131 34.0966C316.388 34.1875 316.625 34.2614 316.841 34.3182L318.023 34.6364C318.326 34.7159 318.663 34.8258 319.034 34.9659C319.409 35.1061 319.767 35.2973 320.108 35.5398C320.453 35.7784 320.737 36.0852 320.96 36.4602C321.184 36.8352 321.295 37.2955 321.295 37.8409C321.295 38.4697 321.131 39.0379 320.801 39.5455C320.475 40.053 319.998 40.4564 319.369 40.7557C318.744 41.0549 317.985 41.2045 317.091 41.2045C316.258 41.2045 315.536 41.0701 314.926 40.8011C314.32 40.5322 313.843 40.1572 313.494 39.6761C313.15 39.1951 312.955 38.6364 312.909 38H314.364C314.402 38.4394 314.549 38.803 314.807 39.0909C315.068 39.375 315.398 39.5871 315.795 39.7273C316.197 39.8636 316.629 39.9318 317.091 39.9318C317.629 39.9318 318.112 39.8447 318.54 39.6705C318.968 39.4924 319.307 39.2462 319.557 38.9318C319.807 38.6136 319.932 38.2424 319.932 37.8182C319.932 37.4318 319.824 37.1174 319.608 36.875C319.392 36.6326 319.108 36.4356 318.756 36.2841C318.403 36.1326 318.023 36 317.614 35.8864L316.182 35.4773C315.273 35.2159 314.553 34.8428 314.023 34.358C313.492 33.8731 313.227 33.2386 313.227 32.4545C313.227 31.803 313.403 31.2348 313.756 30.75C314.112 30.2614 314.589 29.8826 315.188 29.6136C315.79 29.3409 316.462 29.2045 317.205 29.2045C317.955 29.2045 318.621 29.339 319.205 29.608C319.788 29.8731 320.25 30.2367 320.591 30.6989C320.936 31.161 321.117 31.6856 321.136 32.2727H319.773ZM326.976 41.1818C326.188 41.1818 325.497 40.9943 324.902 40.6193C324.311 40.2443 323.849 39.7197 323.516 39.0455C323.186 38.3712 323.021 37.5833 323.021 36.6818C323.021 35.7727 323.186 34.9792 323.516 34.3011C323.849 33.6231 324.311 33.0966 324.902 32.7216C325.497 32.3466 326.188 32.1591 326.976 32.1591C327.764 32.1591 328.453 32.3466 329.044 32.7216C329.639 33.0966 330.101 33.6231 330.43 34.3011C330.764 34.9792 330.93 35.7727 330.93 36.6818C330.93 37.5833 330.764 38.3712 330.43 39.0455C330.101 39.7197 329.639 40.2443 329.044 40.6193C328.453 40.9943 327.764 41.1818 326.976 41.1818ZM326.976 39.9773C327.574 39.9773 328.067 39.8239 328.453 39.517C328.839 39.2102 329.125 38.8068 329.311 38.3068C329.497 37.8068 329.589 37.2652 329.589 36.6818C329.589 36.0985 329.497 35.5549 329.311 35.0511C329.125 34.5473 328.839 34.1402 328.453 33.8295C328.067 33.5189 327.574 33.3636 326.976 33.3636C326.377 33.3636 325.885 33.5189 325.499 33.8295C325.112 34.1402 324.826 34.5473 324.641 35.0511C324.455 35.5549 324.362 36.0985 324.362 36.6818C324.362 37.2652 324.455 37.8068 324.641 38.3068C324.826 38.8068 325.112 39.2102 325.499 39.517C325.885 39.8239 326.377 39.9773 326.976 39.9773ZM333.159 41V29.3636H334.5V33.6591H334.614C334.712 33.5076 334.848 33.3144 335.023 33.0795C335.201 32.8409 335.455 32.6288 335.784 32.4432C336.117 32.2538 336.568 32.1591 337.136 32.1591C337.871 32.1591 338.519 32.3428 339.08 32.7102C339.64 33.0777 340.078 33.5985 340.392 34.2727C340.706 34.947 340.864 35.7424 340.864 36.6591C340.864 37.5833 340.706 38.3845 340.392 39.0625C340.078 39.7367 339.642 40.2595 339.085 40.6307C338.528 40.9981 337.886 41.1818 337.159 41.1818C336.598 41.1818 336.15 41.089 335.812 40.9034C335.475 40.714 335.216 40.5 335.034 40.2614C334.852 40.0189 334.712 39.8182 334.614 39.6591H334.455V41H333.159ZM334.477 36.6364C334.477 37.2955 334.574 37.8769 334.767 38.3807C334.96 38.8807 335.242 39.2727 335.614 39.5568C335.985 39.8371 336.439 39.9773 336.977 39.9773C337.538 39.9773 338.006 39.8295 338.381 39.5341C338.759 39.2348 339.044 38.8333 339.233 38.3295C339.426 37.822 339.523 37.2576 339.523 36.6364C339.523 36.0227 339.428 35.4697 339.239 34.9773C339.053 34.4811 338.771 34.089 338.392 33.8011C338.017 33.5095 337.545 33.3636 336.977 33.3636C336.432 33.3636 335.973 33.5019 335.602 33.7784C335.231 34.0511 334.951 34.4337 334.761 34.9261C334.572 35.4148 334.477 35.9848 334.477 36.6364ZM342.915 41V32.2727H344.21V33.5909H344.301C344.46 33.1591 344.748 32.8087 345.165 32.5398C345.581 32.2708 346.051 32.1364 346.574 32.1364C346.672 32.1364 346.795 32.1383 346.943 32.142C347.091 32.1458 347.203 32.1515 347.278 32.1591V33.5227C347.233 33.5114 347.129 33.4943 346.966 33.4716C346.807 33.4451 346.638 33.4318 346.46 33.4318C346.036 33.4318 345.657 33.5208 345.324 33.6989C344.994 33.8731 344.733 34.1155 344.54 34.4261C344.35 34.733 344.256 35.0833 344.256 35.4773V41H342.915ZM352.261 41.1818C351.42 41.1818 350.695 40.9962 350.085 40.625C349.479 40.25 349.011 39.7273 348.682 39.0568C348.356 38.3826 348.193 37.5985 348.193 36.7045C348.193 35.8106 348.356 35.0227 348.682 34.3409C349.011 33.6553 349.47 33.1212 350.057 32.7386C350.648 32.3523 351.337 32.1591 352.125 32.1591C352.58 32.1591 353.028 32.2348 353.472 32.3864C353.915 32.5379 354.318 32.7841 354.682 33.125C355.045 33.4621 355.335 33.9091 355.551 34.4659C355.767 35.0227 355.875 35.7083 355.875 36.5227V37.0909H349.148V35.9318H354.511C354.511 35.4394 354.413 35 354.216 34.6136C354.023 34.2273 353.746 33.9223 353.386 33.6989C353.03 33.4754 352.61 33.3636 352.125 33.3636C351.591 33.3636 351.129 33.4962 350.739 33.7614C350.352 34.0227 350.055 34.3636 349.847 34.7841C349.638 35.2045 349.534 35.6553 349.534 36.1364V36.9091C349.534 37.5682 349.648 38.1269 349.875 38.5852C350.106 39.0398 350.426 39.3864 350.835 39.625C351.244 39.8598 351.72 39.9773 352.261 39.9773C352.614 39.9773 352.932 39.928 353.216 39.8295C353.504 39.7273 353.752 39.5758 353.96 39.375C354.169 39.1705 354.33 38.9167 354.443 38.6136L355.739 38.9773C355.602 39.4167 355.373 39.803 355.051 40.1364C354.729 40.4659 354.331 40.7235 353.858 40.9091C353.384 41.0909 352.852 41.1818 352.261 41.1818ZM363.756 35.75V41H362.415V32.2727H363.71V33.6364H363.824C364.028 33.1932 364.339 32.8371 364.756 32.5682C365.172 32.2955 365.71 32.1591 366.369 32.1591C366.96 32.1591 367.477 32.2803 367.92 32.5227C368.364 32.7614 368.708 33.125 368.955 33.6136C369.201 34.0985 369.324 34.7121 369.324 35.4545V41H367.983V35.5455C367.983 34.8598 367.805 34.3258 367.449 33.9432C367.093 33.5568 366.604 33.3636 365.983 33.3636C365.555 33.3636 365.172 33.4564 364.835 33.642C364.502 33.8277 364.239 34.0985 364.045 34.4545C363.852 34.8106 363.756 35.2424 363.756 35.75ZM375.32 41.1818C374.532 41.1818 373.84 40.9943 373.246 40.6193C372.655 40.2443 372.193 39.7197 371.859 39.0455C371.53 38.3712 371.365 37.5833 371.365 36.6818C371.365 35.7727 371.53 34.9792 371.859 34.3011C372.193 33.6231 372.655 33.0966 373.246 32.7216C373.84 32.3466 374.532 32.1591 375.32 32.1591C376.107 32.1591 376.797 32.3466 377.388 32.7216C377.982 33.0966 378.445 33.6231 378.774 34.3011C379.107 34.9792 379.274 35.7727 379.274 36.6818C379.274 37.5833 379.107 38.3712 378.774 39.0455C378.445 39.7197 377.982 40.2443 377.388 40.6193C376.797 40.9943 376.107 41.1818 375.32 41.1818ZM375.32 39.9773C375.918 39.9773 376.411 39.8239 376.797 39.517C377.183 39.2102 377.469 38.8068 377.655 38.3068C377.84 37.8068 377.933 37.2652 377.933 36.6818C377.933 36.0985 377.84 35.5549 377.655 35.0511C377.469 34.5473 377.183 34.1402 376.797 33.8295C376.411 33.5189 375.918 33.3636 375.32 33.3636C374.721 33.3636 374.229 33.5189 373.842 33.8295C373.456 34.1402 373.17 34.5473 372.984 35.0511C372.799 35.5549 372.706 36.0985 372.706 36.6818C372.706 37.2652 372.799 37.8068 372.984 38.3068C373.17 38.8068 373.456 39.2102 373.842 39.517C374.229 39.8239 374.721 39.9773 375.32 39.9773ZM374.706 31.0909L376.092 28.4545H377.661L375.888 31.0909H374.706ZM387.503 34.2273L386.298 34.5682C386.223 34.3674 386.111 34.1723 385.963 33.983C385.819 33.7898 385.622 33.6307 385.372 33.5057C385.122 33.3807 384.802 33.3182 384.412 33.3182C383.878 33.3182 383.433 33.4413 383.077 33.6875C382.724 33.9299 382.548 34.2386 382.548 34.6136C382.548 34.947 382.67 35.2102 382.912 35.4034C383.154 35.5966 383.533 35.7576 384.048 35.8864L385.344 36.2045C386.124 36.3939 386.705 36.6837 387.088 37.0739C387.471 37.4602 387.662 37.9583 387.662 38.5682C387.662 39.0682 387.518 39.5152 387.23 39.9091C386.946 40.303 386.548 40.6136 386.037 40.8409C385.526 41.0682 384.931 41.1818 384.253 41.1818C383.363 41.1818 382.626 40.9886 382.043 40.6023C381.459 40.2159 381.09 39.6515 380.935 38.9091L382.207 38.5909C382.329 39.0606 382.558 39.4129 382.895 39.6477C383.236 39.8826 383.681 40 384.23 40C384.855 40 385.351 39.8674 385.719 39.6023C386.09 39.3333 386.276 39.0114 386.276 38.6364C386.276 38.3333 386.17 38.0795 385.957 37.875C385.745 37.6667 385.42 37.5114 384.98 37.4091L383.526 37.0682C382.726 36.8788 382.139 36.5852 381.764 36.1875C381.393 35.786 381.207 35.2841 381.207 34.6818C381.207 34.1894 381.346 33.7538 381.622 33.375C381.902 32.9962 382.283 32.6989 382.764 32.483C383.249 32.267 383.798 32.1591 384.412 32.1591C385.276 32.1591 385.954 32.3485 386.446 32.7273C386.942 33.1061 387.295 33.6061 387.503 34.2273Z" fill="white"/>
<g clip-path="url(#clip0_1_21)">
<path d="M1119.47 31.7924L1115.72 28.7331V23.8404C1115.72 23.2894 1115.27 22.8411 1114.72 22.8411H1112.36C1111.81 22.8411 1111.36 23.2894 1111.36 23.8404V25.1791L1106.34 21.0913C1105.98 20.7957 1105.5 20.6328 1105 20.6328C1104.49 20.6328 1104.02 20.7947 1103.66 21.0888L1090.53 31.7923C1089.93 32.2784 1089.97 32.7018 1090.04 32.9109C1090.11 33.1196 1090.35 33.4697 1091.12 33.4697H1092.92V47.5454C1092.92 48.55 1093.73 49.3671 1094.73 49.3671H1100.41C1101.41 49.3671 1102.18 48.5669 1102.18 47.5454V41.7732C1102.18 41.2785 1102.64 40.828 1103.14 40.828H1106.95C1107.43 40.828 1107.82 41.2521 1107.82 41.7732V47.5454C1107.82 48.5329 1108.67 49.3671 1109.68 49.3671H1115.27C1116.27 49.3671 1117.08 48.5499 1117.08 47.5454V33.4697H1118.88C1119.65 33.4697 1119.89 33.1196 1119.96 32.9109C1120.03 32.7018 1120.07 32.2784 1119.47 31.7924Z" fill="white"/>
</g>
<rect x="160" y="90" width="960" height="60" fill="#C7C7C7"/>
<path d="M191.278 117.438H188.79C188.744 117.116 188.652 116.83 188.511 116.58C188.371 116.326 188.191 116.11 187.972 115.932C187.752 115.754 187.498 115.617 187.21 115.523C186.926 115.428 186.617 115.381 186.284 115.381C185.682 115.381 185.157 115.53 184.71 115.83C184.263 116.125 183.917 116.557 183.67 117.125C183.424 117.689 183.301 118.375 183.301 119.182C183.301 120.011 183.424 120.708 183.67 121.273C183.92 121.837 184.269 122.263 184.716 122.551C185.163 122.839 185.68 122.983 186.267 122.983C186.597 122.983 186.902 122.939 187.182 122.852C187.466 122.765 187.718 122.638 187.938 122.472C188.157 122.301 188.339 122.095 188.483 121.852C188.631 121.61 188.733 121.333 188.79 121.023L191.278 121.034C191.214 121.568 191.053 122.083 190.795 122.58C190.542 123.072 190.199 123.513 189.767 123.903C189.339 124.29 188.828 124.597 188.233 124.824C187.642 125.047 186.973 125.159 186.227 125.159C185.189 125.159 184.261 124.924 183.443 124.455C182.629 123.985 181.985 123.305 181.511 122.415C181.042 121.525 180.807 120.447 180.807 119.182C180.807 117.913 181.045 116.833 181.523 115.943C182 115.053 182.648 114.375 183.466 113.909C184.284 113.439 185.205 113.205 186.227 113.205C186.902 113.205 187.527 113.299 188.102 113.489C188.682 113.678 189.195 113.955 189.642 114.318C190.089 114.678 190.453 115.119 190.733 115.642C191.017 116.165 191.199 116.763 191.278 117.438ZM196.94 125.17C196.058 125.17 195.295 124.983 194.651 124.608C194.01 124.229 193.516 123.703 193.168 123.028C192.819 122.35 192.645 121.564 192.645 120.67C192.645 119.769 192.819 118.981 193.168 118.307C193.516 117.629 194.01 117.102 194.651 116.727C195.295 116.348 196.058 116.159 196.94 116.159C197.823 116.159 198.584 116.348 199.224 116.727C199.868 117.102 200.365 117.629 200.713 118.307C201.062 118.981 201.236 119.769 201.236 120.67C201.236 121.564 201.062 122.35 200.713 123.028C200.365 123.703 199.868 124.229 199.224 124.608C198.584 124.983 197.823 125.17 196.94 125.17ZM196.952 123.295C197.353 123.295 197.688 123.182 197.957 122.955C198.226 122.723 198.429 122.409 198.565 122.011C198.705 121.614 198.776 121.161 198.776 120.653C198.776 120.146 198.705 119.693 198.565 119.295C198.429 118.898 198.226 118.583 197.957 118.352C197.688 118.121 197.353 118.006 196.952 118.006C196.546 118.006 196.205 118.121 195.929 118.352C195.656 118.583 195.45 118.898 195.31 119.295C195.173 119.693 195.105 120.146 195.105 120.653C195.105 121.161 195.173 121.614 195.31 122.011C195.45 122.409 195.656 122.723 195.929 122.955C196.205 123.182 196.546 123.295 196.952 123.295ZM202.81 125V116.273H205.116V117.812H205.219C205.401 117.301 205.704 116.898 206.128 116.602C206.552 116.307 207.06 116.159 207.651 116.159C208.249 116.159 208.759 116.309 209.179 116.608C209.599 116.903 209.88 117.305 210.02 117.812H210.111C210.289 117.312 210.611 116.913 211.077 116.614C211.546 116.311 212.101 116.159 212.741 116.159C213.556 116.159 214.217 116.419 214.724 116.938C215.236 117.453 215.491 118.184 215.491 119.131V125H213.077V119.608C213.077 119.123 212.948 118.759 212.69 118.517C212.433 118.275 212.111 118.153 211.724 118.153C211.285 118.153 210.942 118.294 210.696 118.574C210.45 118.85 210.327 119.216 210.327 119.67V125H207.98V119.557C207.98 119.129 207.857 118.788 207.611 118.534C207.368 118.28 207.048 118.153 206.651 118.153C206.382 118.153 206.139 118.222 205.923 118.358C205.711 118.491 205.543 118.678 205.418 118.92C205.293 119.159 205.23 119.439 205.23 119.761V125H202.81ZM217.403 128.273V116.273H219.79V117.739H219.898C220.004 117.504 220.157 117.265 220.358 117.023C220.563 116.777 220.828 116.572 221.153 116.409C221.483 116.242 221.892 116.159 222.381 116.159C223.017 116.159 223.604 116.326 224.142 116.659C224.68 116.989 225.11 117.487 225.432 118.153C225.754 118.816 225.915 119.648 225.915 120.648C225.915 121.621 225.758 122.443 225.443 123.114C225.133 123.78 224.708 124.286 224.17 124.631C223.636 124.972 223.038 125.142 222.375 125.142C221.905 125.142 221.506 125.064 221.176 124.909C220.85 124.754 220.583 124.559 220.375 124.324C220.167 124.085 220.008 123.845 219.898 123.602H219.824V128.273H217.403ZM219.773 120.636C219.773 121.155 219.845 121.608 219.989 121.994C220.133 122.381 220.341 122.682 220.614 122.898C220.886 123.11 221.218 123.216 221.608 123.216C222.002 123.216 222.335 123.108 222.608 122.892C222.881 122.672 223.087 122.369 223.227 121.983C223.371 121.593 223.443 121.144 223.443 120.636C223.443 120.133 223.373 119.689 223.233 119.307C223.093 118.924 222.886 118.625 222.614 118.409C222.341 118.193 222.006 118.085 221.608 118.085C221.214 118.085 220.881 118.189 220.608 118.398C220.339 118.606 220.133 118.902 219.989 119.284C219.845 119.667 219.773 120.117 219.773 120.636ZM233.125 121.284V116.273H235.545V125H233.222V123.415H233.131C232.934 123.926 232.606 124.337 232.148 124.648C231.693 124.958 231.138 125.114 230.483 125.114C229.9 125.114 229.386 124.981 228.943 124.716C228.5 124.451 228.153 124.074 227.903 123.585C227.657 123.097 227.532 122.511 227.528 121.83V116.273H229.949V121.398C229.953 121.913 230.091 122.32 230.364 122.619C230.636 122.919 231.002 123.068 231.46 123.068C231.752 123.068 232.025 123.002 232.278 122.869C232.532 122.733 232.737 122.532 232.892 122.267C233.051 122.002 233.129 121.674 233.125 121.284ZM242.124 116.273V118.091H236.868V116.273H242.124ZM238.061 114.182H240.482V122.318C240.482 122.542 240.516 122.716 240.584 122.841C240.652 122.962 240.747 123.047 240.868 123.097C240.993 123.146 241.137 123.17 241.3 123.17C241.413 123.17 241.527 123.161 241.641 123.142C241.754 123.119 241.841 123.102 241.902 123.091L242.283 124.892C242.161 124.93 241.991 124.973 241.771 125.023C241.552 125.076 241.285 125.108 240.97 125.119C240.387 125.142 239.875 125.064 239.436 124.886C239 124.708 238.661 124.432 238.419 124.057C238.177 123.682 238.057 123.208 238.061 122.636V114.182ZM246.189 125.165C245.632 125.165 245.136 125.068 244.7 124.875C244.265 124.678 243.92 124.388 243.666 124.006C243.416 123.619 243.291 123.138 243.291 122.562C243.291 122.078 243.38 121.67 243.558 121.341C243.736 121.011 243.979 120.746 244.286 120.545C244.592 120.345 244.941 120.193 245.331 120.091C245.725 119.989 246.138 119.917 246.57 119.875C247.077 119.822 247.486 119.773 247.797 119.727C248.107 119.678 248.333 119.606 248.473 119.511C248.613 119.417 248.683 119.277 248.683 119.091V119.057C248.683 118.697 248.57 118.419 248.342 118.222C248.119 118.025 247.801 117.926 247.388 117.926C246.952 117.926 246.606 118.023 246.348 118.216C246.09 118.405 245.92 118.644 245.837 118.932L243.598 118.75C243.712 118.22 243.935 117.761 244.268 117.375C244.602 116.985 245.032 116.686 245.558 116.477C246.089 116.265 246.702 116.159 247.399 116.159C247.884 116.159 248.348 116.216 248.791 116.33C249.238 116.443 249.634 116.619 249.979 116.858C250.327 117.097 250.602 117.403 250.803 117.778C251.003 118.15 251.104 118.595 251.104 119.114V125H248.808V123.79H248.74C248.6 124.062 248.412 124.303 248.178 124.511C247.943 124.716 247.661 124.877 247.331 124.994C247.001 125.108 246.621 125.165 246.189 125.165ZM246.882 123.494C247.238 123.494 247.553 123.424 247.825 123.284C248.098 123.14 248.312 122.947 248.467 122.705C248.623 122.462 248.7 122.187 248.7 121.881V120.955C248.625 121.004 248.52 121.049 248.388 121.091C248.259 121.129 248.113 121.165 247.95 121.199C247.787 121.229 247.625 121.258 247.462 121.284C247.299 121.307 247.151 121.328 247.018 121.347C246.734 121.388 246.486 121.455 246.274 121.545C246.062 121.636 245.897 121.759 245.78 121.915C245.662 122.066 245.604 122.256 245.604 122.483C245.604 122.812 245.723 123.064 245.962 123.239C246.204 123.409 246.511 123.494 246.882 123.494ZM256.197 125.142C255.535 125.142 254.934 124.972 254.396 124.631C253.862 124.286 253.438 123.78 253.124 123.114C252.813 122.443 252.658 121.621 252.658 120.648C252.658 119.648 252.819 118.816 253.141 118.153C253.463 117.487 253.891 116.989 254.425 116.659C254.963 116.326 255.552 116.159 256.192 116.159C256.68 116.159 257.088 116.242 257.413 116.409C257.743 116.572 258.008 116.777 258.209 117.023C258.413 117.265 258.569 117.504 258.675 117.739H258.749V113.364H261.163V125H258.777V123.602H258.675C258.561 123.845 258.4 124.085 258.192 124.324C257.987 124.559 257.72 124.754 257.391 124.909C257.065 125.064 256.667 125.142 256.197 125.142ZM256.964 123.216C257.355 123.216 257.684 123.11 257.953 122.898C258.226 122.682 258.434 122.381 258.578 121.994C258.726 121.608 258.8 121.155 258.8 120.636C258.8 120.117 258.728 119.667 258.584 119.284C258.44 118.902 258.232 118.606 257.959 118.398C257.686 118.189 257.355 118.085 256.964 118.085C256.567 118.085 256.232 118.193 255.959 118.409C255.686 118.625 255.48 118.924 255.339 119.307C255.199 119.689 255.129 120.133 255.129 120.636C255.129 121.144 255.199 121.593 255.339 121.983C255.483 122.369 255.69 122.672 255.959 122.892C256.232 123.108 256.567 123.216 256.964 123.216ZM267.097 125.17C266.214 125.17 265.451 124.983 264.807 124.608C264.167 124.229 263.672 123.703 263.324 123.028C262.975 122.35 262.801 121.564 262.801 120.67C262.801 119.769 262.975 118.981 263.324 118.307C263.672 117.629 264.167 117.102 264.807 116.727C265.451 116.348 266.214 116.159 267.097 116.159C267.979 116.159 268.741 116.348 269.381 116.727C270.025 117.102 270.521 117.629 270.869 118.307C271.218 118.981 271.392 119.769 271.392 120.67C271.392 121.564 271.218 122.35 270.869 123.028C270.521 123.703 270.025 124.229 269.381 124.608C268.741 124.983 267.979 125.17 267.097 125.17ZM267.108 123.295C267.509 123.295 267.845 123.182 268.114 122.955C268.383 122.723 268.585 122.409 268.722 122.011C268.862 121.614 268.932 121.161 268.932 120.653C268.932 120.146 268.862 119.693 268.722 119.295C268.585 118.898 268.383 118.583 268.114 118.352C267.845 118.121 267.509 118.006 267.108 118.006C266.703 118.006 266.362 118.121 266.085 118.352C265.813 118.583 265.606 118.898 265.466 119.295C265.33 119.693 265.261 120.146 265.261 120.653C265.261 121.161 265.33 121.614 265.466 122.011C265.606 122.409 265.813 122.723 266.085 122.955C266.362 123.182 266.703 123.295 267.108 123.295ZM272.966 125V116.273H275.312V117.795H275.403C275.563 117.254 275.83 116.845 276.205 116.568C276.58 116.288 277.011 116.148 277.5 116.148C277.621 116.148 277.752 116.155 277.892 116.17C278.032 116.186 278.155 116.206 278.261 116.233V118.381C278.148 118.347 277.991 118.316 277.79 118.29C277.589 118.263 277.405 118.25 277.239 118.25C276.883 118.25 276.564 118.328 276.284 118.483C276.008 118.634 275.788 118.847 275.625 119.119C275.466 119.392 275.386 119.706 275.386 120.062V125H272.966ZM283.084 125.17C282.186 125.17 281.413 124.989 280.766 124.625C280.122 124.258 279.625 123.739 279.277 123.068C278.929 122.394 278.754 121.597 278.754 120.676C278.754 119.778 278.929 118.991 279.277 118.312C279.625 117.634 280.116 117.106 280.749 116.727C281.385 116.348 282.131 116.159 282.987 116.159C283.563 116.159 284.099 116.252 284.595 116.438C285.095 116.619 285.531 116.894 285.902 117.261C286.277 117.629 286.569 118.091 286.777 118.648C286.985 119.201 287.089 119.848 287.089 120.591V121.256H279.72V119.756H284.811C284.811 119.407 284.735 119.098 284.584 118.83C284.432 118.561 284.222 118.35 283.953 118.199C283.688 118.044 283.379 117.966 283.027 117.966C282.66 117.966 282.334 118.051 282.05 118.222C281.769 118.388 281.55 118.614 281.391 118.898C281.232 119.178 281.15 119.491 281.146 119.835V121.261C281.146 121.693 281.226 122.066 281.385 122.381C281.548 122.695 281.777 122.938 282.072 123.108C282.368 123.278 282.718 123.364 283.124 123.364C283.393 123.364 283.639 123.326 283.862 123.25C284.086 123.174 284.277 123.061 284.436 122.909C284.595 122.758 284.716 122.572 284.8 122.352L287.038 122.5C286.925 123.038 286.692 123.508 286.339 123.909C285.991 124.307 285.54 124.617 284.987 124.841C284.438 125.061 283.804 125.17 283.084 125.17ZM295.93 118.761L293.714 118.898C293.677 118.708 293.595 118.538 293.47 118.386C293.345 118.231 293.18 118.108 292.976 118.017C292.775 117.922 292.535 117.875 292.254 117.875C291.879 117.875 291.563 117.955 291.305 118.114C291.048 118.269 290.919 118.477 290.919 118.739C290.919 118.947 291.002 119.123 291.169 119.267C291.336 119.411 291.622 119.527 292.027 119.614L293.607 119.932C294.455 120.106 295.088 120.386 295.504 120.773C295.921 121.159 296.129 121.667 296.129 122.295C296.129 122.867 295.961 123.369 295.624 123.801C295.29 124.233 294.832 124.57 294.249 124.812C293.669 125.051 293 125.17 292.243 125.17C291.088 125.17 290.167 124.93 289.482 124.449C288.8 123.964 288.4 123.305 288.283 122.472L290.663 122.347C290.735 122.699 290.91 122.968 291.186 123.153C291.463 123.335 291.817 123.426 292.249 123.426C292.673 123.426 293.014 123.345 293.271 123.182C293.533 123.015 293.665 122.801 293.669 122.54C293.665 122.32 293.572 122.14 293.391 122C293.209 121.856 292.929 121.746 292.55 121.67L291.038 121.369C290.186 121.199 289.552 120.903 289.135 120.483C288.722 120.062 288.516 119.527 288.516 118.875C288.516 118.314 288.667 117.831 288.97 117.426C289.277 117.021 289.707 116.708 290.26 116.489C290.817 116.269 291.468 116.159 292.214 116.159C293.317 116.159 294.184 116.392 294.817 116.858C295.453 117.324 295.824 117.958 295.93 118.761Z" fill="black"/>
<path d="M318.409 125V113.364H325.432V114.614H319.818V118.545H325.068V119.795H319.818V123.75H325.523V125H318.409ZM329.131 113.364V125H327.79V113.364H329.131ZM335.246 125.182C334.405 125.182 333.679 124.996 333.07 124.625C332.464 124.25 331.996 123.727 331.666 123.057C331.34 122.383 331.178 121.598 331.178 120.705C331.178 119.811 331.34 119.023 331.666 118.341C331.996 117.655 332.454 117.121 333.041 116.739C333.632 116.352 334.321 116.159 335.109 116.159C335.564 116.159 336.013 116.235 336.456 116.386C336.899 116.538 337.303 116.784 337.666 117.125C338.03 117.462 338.32 117.909 338.536 118.466C338.751 119.023 338.859 119.708 338.859 120.523V121.091H332.132V119.932H337.496C337.496 119.439 337.397 119 337.2 118.614C337.007 118.227 336.731 117.922 336.371 117.699C336.015 117.475 335.594 117.364 335.109 117.364C334.575 117.364 334.113 117.496 333.723 117.761C333.337 118.023 333.039 118.364 332.831 118.784C332.623 119.205 332.518 119.655 332.518 120.136V120.909C332.518 121.568 332.632 122.127 332.859 122.585C333.09 123.04 333.411 123.386 333.82 123.625C334.229 123.86 334.704 123.977 335.246 123.977C335.598 123.977 335.916 123.928 336.2 123.83C336.488 123.727 336.736 123.576 336.945 123.375C337.153 123.17 337.314 122.917 337.428 122.614L338.723 122.977C338.587 123.417 338.357 123.803 338.036 124.136C337.714 124.466 337.316 124.723 336.842 124.909C336.369 125.091 335.837 125.182 335.246 125.182ZM344.695 116.273V117.409H340.172V116.273H344.695ZM341.49 114.182H342.831V122.5C342.831 122.879 342.886 123.163 342.996 123.352C343.109 123.538 343.253 123.663 343.428 123.727C343.606 123.788 343.793 123.818 343.99 123.818C344.138 123.818 344.259 123.811 344.354 123.795C344.448 123.777 344.524 123.761 344.581 123.75L344.854 124.955C344.763 124.989 344.636 125.023 344.473 125.057C344.31 125.095 344.104 125.114 343.854 125.114C343.475 125.114 343.104 125.032 342.74 124.869C342.38 124.706 342.081 124.458 341.842 124.125C341.607 123.792 341.49 123.371 341.49 122.864V114.182ZM346.712 125V116.273H348.007V117.591H348.098C348.257 117.159 348.545 116.809 348.962 116.54C349.378 116.271 349.848 116.136 350.371 116.136C350.469 116.136 350.592 116.138 350.74 116.142C350.888 116.146 351 116.152 351.075 116.159V117.523C351.03 117.511 350.926 117.494 350.763 117.472C350.604 117.445 350.435 117.432 350.257 117.432C349.833 117.432 349.454 117.521 349.121 117.699C348.791 117.873 348.53 118.116 348.337 118.426C348.147 118.733 348.053 119.083 348.053 119.477V125H346.712ZM355.945 125.182C355.157 125.182 354.465 124.994 353.871 124.619C353.28 124.244 352.818 123.72 352.484 123.045C352.155 122.371 351.99 121.583 351.99 120.682C351.99 119.773 352.155 118.979 352.484 118.301C352.818 117.623 353.28 117.097 353.871 116.722C354.465 116.347 355.157 116.159 355.945 116.159C356.732 116.159 357.422 116.347 358.013 116.722C358.607 117.097 359.07 117.623 359.399 118.301C359.732 118.979 359.899 119.773 359.899 120.682C359.899 121.583 359.732 122.371 359.399 123.045C359.07 123.72 358.607 124.244 358.013 124.619C357.422 124.994 356.732 125.182 355.945 125.182ZM355.945 123.977C356.543 123.977 357.036 123.824 357.422 123.517C357.808 123.21 358.094 122.807 358.28 122.307C358.465 121.807 358.558 121.265 358.558 120.682C358.558 120.098 358.465 119.555 358.28 119.051C358.094 118.547 357.808 118.14 357.422 117.83C357.036 117.519 356.543 117.364 355.945 117.364C355.346 117.364 354.854 117.519 354.467 117.83C354.081 118.14 353.795 118.547 353.609 119.051C353.424 119.555 353.331 120.098 353.331 120.682C353.331 121.265 353.424 121.807 353.609 122.307C353.795 122.807 354.081 123.21 354.467 123.517C354.854 123.824 355.346 123.977 355.945 123.977ZM357.126 115.227L355.945 113.636L354.763 115.227H353.49V115.136L355.331 112.773H356.558L358.399 115.136V115.227H357.126ZM363.287 119.75V125H361.946V116.273H363.241V117.636H363.355C363.56 117.193 363.87 116.837 364.287 116.568C364.704 116.295 365.241 116.159 365.901 116.159C366.491 116.159 367.009 116.28 367.452 116.523C367.895 116.761 368.24 117.125 368.486 117.614C368.732 118.098 368.855 118.712 368.855 119.455V125H367.514V119.545C367.514 118.86 367.336 118.326 366.98 117.943C366.624 117.557 366.135 117.364 365.514 117.364C365.086 117.364 364.704 117.456 364.366 117.642C364.033 117.828 363.77 118.098 363.577 118.455C363.384 118.811 363.287 119.242 363.287 119.75ZM371.305 125V116.273H372.646V125H371.305ZM371.987 114.818C371.726 114.818 371.5 114.729 371.311 114.551C371.125 114.373 371.033 114.159 371.033 113.909C371.033 113.659 371.125 113.445 371.311 113.267C371.5 113.089 371.726 113 371.987 113C372.249 113 372.472 113.089 372.658 113.267C372.847 113.445 372.942 113.659 372.942 113.909C372.942 114.159 372.847 114.373 372.658 114.551C372.472 114.729 372.249 114.818 371.987 114.818ZM378.648 125.182C377.83 125.182 377.125 124.989 376.534 124.602C375.943 124.216 375.489 123.684 375.17 123.006C374.852 122.328 374.693 121.553 374.693 120.682C374.693 119.795 374.856 119.013 375.182 118.335C375.511 117.653 375.97 117.121 376.557 116.739C377.148 116.352 377.837 116.159 378.625 116.159C379.239 116.159 379.792 116.273 380.284 116.5C380.777 116.727 381.18 117.045 381.494 117.455C381.809 117.864 382.004 118.341 382.08 118.886H380.739C380.636 118.489 380.409 118.136 380.057 117.83C379.708 117.519 379.239 117.364 378.648 117.364C378.125 117.364 377.667 117.5 377.273 117.773C376.883 118.042 376.578 118.422 376.358 118.915C376.142 119.403 376.034 119.977 376.034 120.636C376.034 121.311 376.14 121.898 376.352 122.398C376.568 122.898 376.871 123.286 377.261 123.562C377.655 123.839 378.117 123.977 378.648 123.977C378.996 123.977 379.312 123.917 379.597 123.795C379.881 123.674 380.121 123.5 380.318 123.273C380.515 123.045 380.655 122.773 380.739 122.455H382.08C382.004 122.97 381.816 123.434 381.517 123.847C381.222 124.256 380.83 124.581 380.341 124.824C379.856 125.062 379.292 125.182 378.648 125.182ZM387.585 125.182C386.797 125.182 386.106 124.994 385.511 124.619C384.92 124.244 384.458 123.72 384.125 123.045C383.795 122.371 383.631 121.583 383.631 120.682C383.631 119.773 383.795 118.979 384.125 118.301C384.458 117.623 384.92 117.097 385.511 116.722C386.106 116.347 386.797 116.159 387.585 116.159C388.373 116.159 389.063 116.347 389.653 116.722C390.248 117.097 390.71 117.623 391.04 118.301C391.373 118.979 391.54 119.773 391.54 120.682C391.54 121.583 391.373 122.371 391.04 123.045C390.71 123.72 390.248 124.244 389.653 124.619C389.063 124.994 388.373 125.182 387.585 125.182ZM387.585 123.977C388.184 123.977 388.676 123.824 389.062 123.517C389.449 123.21 389.735 122.807 389.92 122.307C390.106 121.807 390.199 121.265 390.199 120.682C390.199 120.098 390.106 119.555 389.92 119.051C389.735 118.547 389.449 118.14 389.062 117.83C388.676 117.519 388.184 117.364 387.585 117.364C386.987 117.364 386.494 117.519 386.108 117.83C385.722 118.14 385.436 118.547 385.25 119.051C385.064 119.555 384.972 120.098 384.972 120.682C384.972 121.265 385.064 121.807 385.25 122.307C385.436 122.807 385.722 123.21 386.108 123.517C386.494 123.824 386.987 123.977 387.585 123.977ZM399.768 118.227L398.564 118.568C398.488 118.367 398.376 118.172 398.229 117.983C398.085 117.79 397.888 117.631 397.638 117.506C397.388 117.381 397.068 117.318 396.678 117.318C396.143 117.318 395.698 117.441 395.342 117.688C394.99 117.93 394.814 118.239 394.814 118.614C394.814 118.947 394.935 119.21 395.178 119.403C395.42 119.597 395.799 119.758 396.314 119.886L397.609 120.205C398.39 120.394 398.971 120.684 399.354 121.074C399.736 121.46 399.928 121.958 399.928 122.568C399.928 123.068 399.784 123.515 399.496 123.909C399.212 124.303 398.814 124.614 398.303 124.841C397.791 125.068 397.196 125.182 396.518 125.182C395.628 125.182 394.892 124.989 394.308 124.602C393.725 124.216 393.356 123.652 393.2 122.909L394.473 122.591C394.594 123.061 394.823 123.413 395.161 123.648C395.501 123.883 395.946 124 396.496 124C397.121 124 397.617 123.867 397.984 123.602C398.356 123.333 398.541 123.011 398.541 122.636C398.541 122.333 398.435 122.08 398.223 121.875C398.011 121.667 397.685 121.511 397.246 121.409L395.791 121.068C394.992 120.879 394.405 120.585 394.03 120.188C393.659 119.786 393.473 119.284 393.473 118.682C393.473 118.189 393.611 117.754 393.888 117.375C394.168 116.996 394.549 116.699 395.03 116.483C395.515 116.267 396.064 116.159 396.678 116.159C397.541 116.159 398.219 116.348 398.712 116.727C399.208 117.106 399.56 117.606 399.768 118.227Z" fill="black"/>
<path d="M422.409 125V113.364H423.818V123.75H429.227V125H422.409ZM431.227 125V116.273H432.568V125H431.227ZM431.909 114.818C431.648 114.818 431.422 114.729 431.233 114.551C431.047 114.373 430.955 114.159 430.955 113.909C430.955 113.659 431.047 113.445 431.233 113.267C431.422 113.089 431.648 113 431.909 113C432.17 113 432.394 113.089 432.58 113.267C432.769 113.445 432.864 113.659 432.864 113.909C432.864 114.159 432.769 114.373 432.58 114.551C432.394 114.729 432.17 114.818 431.909 114.818ZM442.161 116.273L438.933 125H437.57L434.342 116.273H435.797L438.206 123.227H438.297L440.706 116.273H442.161ZM443.93 125V116.273H445.226V117.591H445.317C445.476 117.159 445.764 116.809 446.18 116.54C446.597 116.271 447.067 116.136 447.589 116.136C447.688 116.136 447.811 116.138 447.959 116.142C448.107 116.146 448.218 116.152 448.294 116.159V117.523C448.249 117.511 448.144 117.494 447.982 117.472C447.822 117.445 447.654 117.432 447.476 117.432C447.052 117.432 446.673 117.521 446.339 117.699C446.01 117.873 445.749 118.116 445.555 118.426C445.366 118.733 445.271 119.083 445.271 119.477V125H443.93ZM453.163 125.182C452.375 125.182 451.684 124.994 451.089 124.619C450.499 124.244 450.036 123.72 449.703 123.045C449.374 122.371 449.209 121.583 449.209 120.682C449.209 119.773 449.374 118.979 449.703 118.301C450.036 117.623 450.499 117.097 451.089 116.722C451.684 116.347 452.375 116.159 453.163 116.159C453.951 116.159 454.641 116.347 455.232 116.722C455.826 117.097 456.288 117.623 456.618 118.301C456.951 118.979 457.118 119.773 457.118 120.682C457.118 121.583 456.951 122.371 456.618 123.045C456.288 123.72 455.826 124.244 455.232 124.619C454.641 124.994 453.951 125.182 453.163 125.182ZM453.163 123.977C453.762 123.977 454.254 123.824 454.641 123.517C455.027 123.21 455.313 122.807 455.499 122.307C455.684 121.807 455.777 121.265 455.777 120.682C455.777 120.098 455.684 119.555 455.499 119.051C455.313 118.547 455.027 118.14 454.641 117.83C454.254 117.519 453.762 117.364 453.163 117.364C452.565 117.364 452.072 117.519 451.686 117.83C451.3 118.14 451.014 118.547 450.828 119.051C450.643 119.555 450.55 120.098 450.55 120.682C450.55 121.265 450.643 121.807 450.828 122.307C451.014 122.807 451.3 123.21 451.686 123.517C452.072 123.824 452.565 123.977 453.163 123.977ZM465.347 118.227L464.142 118.568C464.066 118.367 463.955 118.172 463.807 117.983C463.663 117.79 463.466 117.631 463.216 117.506C462.966 117.381 462.646 117.318 462.256 117.318C461.722 117.318 461.277 117.441 460.92 117.688C460.568 117.93 460.392 118.239 460.392 118.614C460.392 118.947 460.513 119.21 460.756 119.403C460.998 119.597 461.377 119.758 461.892 119.886L463.188 120.205C463.968 120.394 464.549 120.684 464.932 121.074C465.314 121.46 465.506 121.958 465.506 122.568C465.506 123.068 465.362 123.515 465.074 123.909C464.79 124.303 464.392 124.614 463.881 124.841C463.369 125.068 462.775 125.182 462.097 125.182C461.206 125.182 460.47 124.989 459.886 124.602C459.303 124.216 458.934 123.652 458.778 122.909L460.051 122.591C460.172 123.061 460.402 123.413 460.739 123.648C461.08 123.883 461.525 124 462.074 124C462.699 124 463.195 123.867 463.562 123.602C463.934 123.333 464.119 123.011 464.119 122.636C464.119 122.333 464.013 122.08 463.801 121.875C463.589 121.667 463.263 121.511 462.824 121.409L461.369 121.068C460.57 120.879 459.983 120.585 459.608 120.188C459.237 119.786 459.051 119.284 459.051 118.682C459.051 118.189 459.189 117.754 459.466 117.375C459.746 116.996 460.127 116.699 460.608 116.483C461.093 116.267 461.642 116.159 462.256 116.159C463.119 116.159 463.797 116.348 464.29 116.727C464.786 117.106 465.138 117.606 465.347 118.227Z" fill="black"/>
<path d="M170.773 177H169.364C169.28 176.595 169.134 176.239 168.926 175.932C168.722 175.625 168.472 175.367 168.176 175.159C167.884 174.947 167.561 174.788 167.205 174.682C166.848 174.576 166.477 174.523 166.091 174.523C165.386 174.523 164.748 174.701 164.176 175.057C163.608 175.413 163.155 175.938 162.818 176.631C162.485 177.324 162.318 178.174 162.318 179.182C162.318 180.189 162.485 181.04 162.818 181.733C163.155 182.426 163.608 182.951 164.176 183.307C164.748 183.663 165.386 183.841 166.091 183.841C166.477 183.841 166.848 183.788 167.205 183.682C167.561 183.576 167.884 183.419 168.176 183.21C168.472 182.998 168.722 182.739 168.926 182.432C169.134 182.121 169.28 181.765 169.364 181.364H170.773C170.667 181.958 170.473 182.491 170.193 182.96C169.913 183.43 169.564 183.83 169.148 184.159C168.731 184.485 168.263 184.733 167.744 184.903C167.229 185.074 166.678 185.159 166.091 185.159C165.098 185.159 164.216 184.917 163.443 184.432C162.67 183.947 162.063 183.258 161.619 182.364C161.176 181.47 160.955 180.409 160.955 179.182C160.955 177.955 161.176 176.894 161.619 176C162.063 175.106 162.67 174.417 163.443 173.932C164.216 173.447 165.098 173.205 166.091 173.205C166.678 173.205 167.229 173.29 167.744 173.46C168.263 173.631 168.731 173.881 169.148 174.21C169.564 174.536 169.913 174.934 170.193 175.403C170.473 175.869 170.667 176.402 170.773 177ZM176.413 185.182C175.625 185.182 174.934 184.994 174.339 184.619C173.749 184.244 173.286 183.72 172.953 183.045C172.624 182.371 172.459 181.583 172.459 180.682C172.459 179.773 172.624 178.979 172.953 178.301C173.286 177.623 173.749 177.097 174.339 176.722C174.934 176.347 175.625 176.159 176.413 176.159C177.201 176.159 177.891 176.347 178.482 176.722C179.076 177.097 179.538 177.623 179.868 178.301C180.201 178.979 180.368 179.773 180.368 180.682C180.368 181.583 180.201 182.371 179.868 183.045C179.538 183.72 179.076 184.244 178.482 184.619C177.891 184.994 177.201 185.182 176.413 185.182ZM176.413 183.977C177.012 183.977 177.504 183.824 177.891 183.517C178.277 183.21 178.563 182.807 178.749 182.307C178.934 181.807 179.027 181.265 179.027 180.682C179.027 180.098 178.934 179.555 178.749 179.051C178.563 178.547 178.277 178.14 177.891 177.83C177.504 177.519 177.012 177.364 176.413 177.364C175.815 177.364 175.322 177.519 174.936 177.83C174.55 178.14 174.264 178.547 174.078 179.051C173.893 179.555 173.8 180.098 173.8 180.682C173.8 181.265 173.893 181.807 174.078 182.307C174.264 182.807 174.55 183.21 174.936 183.517C175.322 183.824 175.815 183.977 176.413 183.977ZM182.415 185V176.273H183.71V177.636H183.824C184.006 177.17 184.299 176.809 184.705 176.551C185.11 176.29 185.597 176.159 186.165 176.159C186.741 176.159 187.22 176.29 187.602 176.551C187.989 176.809 188.29 177.17 188.506 177.636H188.597C188.82 177.186 189.155 176.828 189.602 176.562C190.049 176.294 190.585 176.159 191.21 176.159C191.991 176.159 192.629 176.403 193.125 176.892C193.621 177.377 193.869 178.133 193.869 179.159V185H192.528V179.159C192.528 178.515 192.352 178.055 192 177.778C191.648 177.502 191.233 177.364 190.756 177.364C190.142 177.364 189.667 177.549 189.33 177.92C188.992 178.288 188.824 178.754 188.824 179.318V185H187.46V179.023C187.46 178.527 187.299 178.127 186.977 177.824C186.655 177.517 186.241 177.364 185.733 177.364C185.384 177.364 185.059 177.456 184.756 177.642C184.456 177.828 184.214 178.085 184.028 178.415C183.847 178.741 183.756 179.117 183.756 179.545V185H182.415ZM196.321 188.273V176.273H197.616V177.659H197.776C197.874 177.508 198.01 177.314 198.185 177.08C198.363 176.841 198.616 176.629 198.946 176.443C199.279 176.254 199.73 176.159 200.298 176.159C201.033 176.159 201.681 176.343 202.241 176.71C202.802 177.078 203.24 177.598 203.554 178.273C203.868 178.947 204.026 179.742 204.026 180.659C204.026 181.583 203.868 182.384 203.554 183.062C203.24 183.737 202.804 184.259 202.247 184.631C201.69 184.998 201.048 185.182 200.321 185.182C199.76 185.182 199.312 185.089 198.974 184.903C198.637 184.714 198.378 184.5 198.196 184.261C198.014 184.019 197.874 183.818 197.776 183.659H197.662V188.273H196.321ZM197.639 180.636C197.639 181.295 197.736 181.877 197.929 182.381C198.122 182.881 198.404 183.273 198.776 183.557C199.147 183.837 199.601 183.977 200.139 183.977C200.7 183.977 201.168 183.83 201.543 183.534C201.921 183.235 202.205 182.833 202.395 182.33C202.588 181.822 202.685 181.258 202.685 180.636C202.685 180.023 202.59 179.47 202.401 178.977C202.215 178.481 201.933 178.089 201.554 177.801C201.179 177.509 200.707 177.364 200.139 177.364C199.594 177.364 199.135 177.502 198.764 177.778C198.393 178.051 198.113 178.434 197.923 178.926C197.734 179.415 197.639 179.985 197.639 180.636ZM211.571 181.432V176.273H212.912V185H211.571V183.523H211.48C211.276 183.966 210.957 184.343 210.526 184.653C210.094 184.96 209.548 185.114 208.889 185.114C208.344 185.114 207.859 184.994 207.435 184.756C207.01 184.513 206.677 184.15 206.435 183.665C206.192 183.176 206.071 182.561 206.071 181.818V176.273H207.412V181.727C207.412 182.364 207.59 182.871 207.946 183.25C208.306 183.629 208.764 183.818 209.321 183.818C209.654 183.818 209.993 183.733 210.338 183.562C210.687 183.392 210.978 183.131 211.213 182.778C211.452 182.426 211.571 181.977 211.571 181.432ZM219.163 176.273V177.409H214.641V176.273H219.163ZM215.959 174.182H217.3V182.5C217.3 182.879 217.355 183.163 217.464 183.352C217.578 183.538 217.722 183.663 217.896 183.727C218.074 183.788 218.262 183.818 218.459 183.818C218.607 183.818 218.728 183.811 218.822 183.795C218.917 183.777 218.993 183.761 219.05 183.75L219.322 184.955C219.232 184.989 219.105 185.023 218.942 185.057C218.779 185.095 218.572 185.114 218.322 185.114C217.944 185.114 217.572 185.032 217.209 184.869C216.849 184.706 216.55 184.458 216.311 184.125C216.076 183.792 215.959 183.371 215.959 182.864V174.182ZM223.749 185.205C223.196 185.205 222.694 185.1 222.243 184.892C221.792 184.68 221.434 184.375 221.169 183.977C220.904 183.576 220.771 183.091 220.771 182.523C220.771 182.023 220.87 181.617 221.067 181.307C221.264 180.992 221.527 180.746 221.857 180.568C222.186 180.39 222.55 180.258 222.947 180.17C223.349 180.08 223.752 180.008 224.158 179.955C224.688 179.886 225.118 179.835 225.447 179.801C225.781 179.763 226.023 179.701 226.175 179.614C226.33 179.527 226.408 179.375 226.408 179.159V179.114C226.408 178.553 226.254 178.117 225.947 177.807C225.644 177.496 225.184 177.341 224.567 177.341C223.927 177.341 223.425 177.481 223.061 177.761C222.697 178.042 222.442 178.341 222.294 178.659L221.021 178.205C221.249 177.674 221.552 177.261 221.93 176.966C222.313 176.667 222.73 176.458 223.18 176.341C223.635 176.22 224.082 176.159 224.521 176.159C224.802 176.159 225.124 176.193 225.487 176.261C225.855 176.326 226.209 176.46 226.55 176.665C226.894 176.869 227.18 177.178 227.408 177.591C227.635 178.004 227.749 178.557 227.749 179.25V185H226.408V183.818H226.339C226.249 184.008 226.097 184.21 225.885 184.426C225.673 184.642 225.391 184.826 225.038 184.977C224.686 185.129 224.256 185.205 223.749 185.205ZM223.953 184C224.483 184 224.93 183.896 225.294 183.688C225.661 183.479 225.938 183.21 226.124 182.881C226.313 182.551 226.408 182.205 226.408 181.841V180.614C226.351 180.682 226.226 180.744 226.033 180.801C225.843 180.854 225.624 180.902 225.374 180.943C225.127 180.981 224.887 181.015 224.652 181.045C224.421 181.072 224.233 181.095 224.089 181.114C223.741 181.159 223.415 181.233 223.112 181.335C222.813 181.434 222.571 181.583 222.385 181.784C222.203 181.981 222.112 182.25 222.112 182.591C222.112 183.057 222.285 183.409 222.629 183.648C222.978 183.883 223.419 184 223.953 184ZM233.491 185.182C232.764 185.182 232.122 184.998 231.565 184.631C231.009 184.259 230.573 183.737 230.259 183.062C229.944 182.384 229.787 181.583 229.787 180.659C229.787 179.742 229.944 178.947 230.259 178.273C230.573 177.598 231.01 177.078 231.571 176.71C232.132 176.343 232.779 176.159 233.514 176.159C234.082 176.159 234.531 176.254 234.861 176.443C235.194 176.629 235.448 176.841 235.622 177.08C235.8 177.314 235.938 177.508 236.037 177.659H236.151V173.364H237.491V185H236.196V183.659H236.037C235.938 183.818 235.798 184.019 235.616 184.261C235.435 184.5 235.175 184.714 234.838 184.903C234.501 185.089 234.052 185.182 233.491 185.182ZM233.673 183.977C234.211 183.977 234.666 183.837 235.037 183.557C235.408 183.273 235.69 182.881 235.884 182.381C236.077 181.877 236.173 181.295 236.173 180.636C236.173 179.985 236.079 179.415 235.889 178.926C235.7 178.434 235.42 178.051 235.048 177.778C234.677 177.502 234.219 177.364 233.673 177.364C233.105 177.364 232.632 177.509 232.253 177.801C231.878 178.089 231.596 178.481 231.406 178.977C231.221 179.47 231.128 180.023 231.128 180.636C231.128 181.258 231.223 181.822 231.412 182.33C231.605 182.833 231.889 183.235 232.264 183.534C232.643 183.83 233.113 183.977 233.673 183.977ZM243.679 185.182C242.891 185.182 242.2 184.994 241.605 184.619C241.014 184.244 240.552 183.72 240.219 183.045C239.889 182.371 239.724 181.583 239.724 180.682C239.724 179.773 239.889 178.979 240.219 178.301C240.552 177.623 241.014 177.097 241.605 176.722C242.2 176.347 242.891 176.159 243.679 176.159C244.467 176.159 245.156 176.347 245.747 176.722C246.342 177.097 246.804 177.623 247.134 178.301C247.467 178.979 247.634 179.773 247.634 180.682C247.634 181.583 247.467 182.371 247.134 183.045C246.804 183.72 246.342 184.244 245.747 184.619C245.156 184.994 244.467 185.182 243.679 185.182ZM243.679 183.977C244.277 183.977 244.77 183.824 245.156 183.517C245.543 183.21 245.829 182.807 246.014 182.307C246.2 181.807 246.293 181.265 246.293 180.682C246.293 180.098 246.2 179.555 246.014 179.051C245.829 178.547 245.543 178.14 245.156 177.83C244.77 177.519 244.277 177.364 243.679 177.364C243.08 177.364 242.588 177.519 242.202 177.83C241.815 178.14 241.529 178.547 241.344 179.051C241.158 179.555 241.065 180.098 241.065 180.682C241.065 181.265 241.158 181.807 241.344 182.307C241.529 182.807 241.815 183.21 242.202 183.517C242.588 183.824 243.08 183.977 243.679 183.977ZM249.68 185V176.273H250.976V177.591H251.067C251.226 177.159 251.514 176.809 251.93 176.54C252.347 176.271 252.817 176.136 253.339 176.136C253.438 176.136 253.561 176.138 253.709 176.142C253.857 176.146 253.968 176.152 254.044 176.159V177.523C253.999 177.511 253.894 177.494 253.732 177.472C253.572 177.445 253.404 177.432 253.226 177.432C252.802 177.432 252.423 177.521 252.089 177.699C251.76 177.873 251.499 178.116 251.305 178.426C251.116 178.733 251.021 179.083 251.021 179.477V185H249.68ZM264.202 173.364V185H262.793V174.841H262.724L259.884 176.727V175.295L262.793 173.364H264.202Z" fill="black"/>
<path d="M170.773 196H169.364C169.28 195.595 169.134 195.239 168.926 194.932C168.722 194.625 168.472 194.367 168.176 194.159C167.884 193.947 167.561 193.788 167.205 193.682C166.848 193.576 166.477 193.523 166.091 193.523C165.386 193.523 164.748 193.701 164.176 194.057C163.608 194.413 163.155 194.938 162.818 195.631C162.485 196.324 162.318 197.174 162.318 198.182C162.318 199.189 162.485 200.04 162.818 200.733C163.155 201.426 163.608 201.951 164.176 202.307C164.748 202.663 165.386 202.841 166.091 202.841C166.477 202.841 166.848 202.788 167.205 202.682C167.561 202.576 167.884 202.419 168.176 202.21C168.472 201.998 168.722 201.739 168.926 201.432C169.134 201.121 169.28 200.765 169.364 200.364H170.773C170.667 200.958 170.473 201.491 170.193 201.96C169.913 202.43 169.564 202.83 169.148 203.159C168.731 203.485 168.263 203.733 167.744 203.903C167.229 204.074 166.678 204.159 166.091 204.159C165.098 204.159 164.216 203.917 163.443 203.432C162.67 202.947 162.063 202.258 161.619 201.364C161.176 200.47 160.955 199.409 160.955 198.182C160.955 196.955 161.176 195.894 161.619 195C162.063 194.106 162.67 193.417 163.443 192.932C164.216 192.447 165.098 192.205 166.091 192.205C166.678 192.205 167.229 192.29 167.744 192.46C168.263 192.631 168.731 192.881 169.148 193.21C169.564 193.536 169.913 193.934 170.193 194.403C170.473 194.869 170.667 195.402 170.773 196ZM176.413 204.182C175.625 204.182 174.934 203.994 174.339 203.619C173.749 203.244 173.286 202.72 172.953 202.045C172.624 201.371 172.459 200.583 172.459 199.682C172.459 198.773 172.624 197.979 172.953 197.301C173.286 196.623 173.749 196.097 174.339 195.722C174.934 195.347 175.625 195.159 176.413 195.159C177.201 195.159 177.891 195.347 178.482 195.722C179.076 196.097 179.538 196.623 179.868 197.301C180.201 197.979 180.368 198.773 180.368 199.682C180.368 200.583 180.201 201.371 179.868 202.045C179.538 202.72 179.076 203.244 178.482 203.619C177.891 203.994 177.201 204.182 176.413 204.182ZM176.413 202.977C177.012 202.977 177.504 202.824 177.891 202.517C178.277 202.21 178.563 201.807 178.749 201.307C178.934 200.807 179.027 200.265 179.027 199.682C179.027 199.098 178.934 198.555 178.749 198.051C178.563 197.547 178.277 197.14 177.891 196.83C177.504 196.519 177.012 196.364 176.413 196.364C175.815 196.364 175.322 196.519 174.936 196.83C174.55 197.14 174.264 197.547 174.078 198.051C173.893 198.555 173.8 199.098 173.8 199.682C173.8 200.265 173.893 200.807 174.078 201.307C174.264 201.807 174.55 202.21 174.936 202.517C175.322 202.824 175.815 202.977 176.413 202.977ZM182.415 204V195.273H183.71V196.636H183.824C184.006 196.17 184.299 195.809 184.705 195.551C185.11 195.29 185.597 195.159 186.165 195.159C186.741 195.159 187.22 195.29 187.602 195.551C187.989 195.809 188.29 196.17 188.506 196.636H188.597C188.82 196.186 189.155 195.828 189.602 195.562C190.049 195.294 190.585 195.159 191.21 195.159C191.991 195.159 192.629 195.403 193.125 195.892C193.621 196.377 193.869 197.133 193.869 198.159V204H192.528V198.159C192.528 197.515 192.352 197.055 192 196.778C191.648 196.502 191.233 196.364 190.756 196.364C190.142 196.364 189.667 196.549 189.33 196.92C188.992 197.288 188.824 197.754 188.824 198.318V204H187.46V198.023C187.46 197.527 187.299 197.127 186.977 196.824C186.655 196.517 186.241 196.364 185.733 196.364C185.384 196.364 185.059 196.456 184.756 196.642C184.456 196.828 184.214 197.085 184.028 197.415C183.847 197.741 183.756 198.117 183.756 198.545V204H182.415ZM196.321 207.273V195.273H197.616V196.659H197.776C197.874 196.508 198.01 196.314 198.185 196.08C198.363 195.841 198.616 195.629 198.946 195.443C199.279 195.254 199.73 195.159 200.298 195.159C201.033 195.159 201.681 195.343 202.241 195.71C202.802 196.078 203.24 196.598 203.554 197.273C203.868 197.947 204.026 198.742 204.026 199.659C204.026 200.583 203.868 201.384 203.554 202.062C203.24 202.737 202.804 203.259 202.247 203.631C201.69 203.998 201.048 204.182 200.321 204.182C199.76 204.182 199.312 204.089 198.974 203.903C198.637 203.714 198.378 203.5 198.196 203.261C198.014 203.019 197.874 202.818 197.776 202.659H197.662V207.273H196.321ZM197.639 199.636C197.639 200.295 197.736 200.877 197.929 201.381C198.122 201.881 198.404 202.273 198.776 202.557C199.147 202.837 199.601 202.977 200.139 202.977C200.7 202.977 201.168 202.83 201.543 202.534C201.921 202.235 202.205 201.833 202.395 201.33C202.588 200.822 202.685 200.258 202.685 199.636C202.685 199.023 202.59 198.47 202.401 197.977C202.215 197.481 201.933 197.089 201.554 196.801C201.179 196.509 200.707 196.364 200.139 196.364C199.594 196.364 199.135 196.502 198.764 196.778C198.393 197.051 198.113 197.434 197.923 197.926C197.734 198.415 197.639 198.985 197.639 199.636ZM211.571 200.432V195.273H212.912V204H211.571V202.523H211.48C211.276 202.966 210.957 203.343 210.526 203.653C210.094 203.96 209.548 204.114 208.889 204.114C208.344 204.114 207.859 203.994 207.435 203.756C207.01 203.513 206.677 203.15 206.435 202.665C206.192 202.176 206.071 201.561 206.071 200.818V195.273H207.412V200.727C207.412 201.364 207.59 201.871 207.946 202.25C208.306 202.629 208.764 202.818 209.321 202.818C209.654 202.818 209.993 202.733 210.338 202.562C210.687 202.392 210.978 202.131 211.213 201.778C211.452 201.426 211.571 200.977 211.571 200.432ZM219.163 195.273V196.409H214.641V195.273H219.163ZM215.959 193.182H217.3V201.5C217.3 201.879 217.355 202.163 217.464 202.352C217.578 202.538 217.722 202.663 217.896 202.727C218.074 202.788 218.262 202.818 218.459 202.818C218.607 202.818 218.728 202.811 218.822 202.795C218.917 202.777 218.993 202.761 219.05 202.75L219.322 203.955C219.232 203.989 219.105 204.023 218.942 204.057C218.779 204.095 218.572 204.114 218.322 204.114C217.944 204.114 217.572 204.032 217.209 203.869C216.849 203.706 216.55 203.458 216.311 203.125C216.076 202.792 215.959 202.371 215.959 201.864V193.182ZM223.749 204.205C223.196 204.205 222.694 204.1 222.243 203.892C221.792 203.68 221.434 203.375 221.169 202.977C220.904 202.576 220.771 202.091 220.771 201.523C220.771 201.023 220.87 200.617 221.067 200.307C221.264 199.992 221.527 199.746 221.857 199.568C222.186 199.39 222.55 199.258 222.947 199.17C223.349 199.08 223.752 199.008 224.158 198.955C224.688 198.886 225.118 198.835 225.447 198.801C225.781 198.763 226.023 198.701 226.175 198.614C226.33 198.527 226.408 198.375 226.408 198.159V198.114C226.408 197.553 226.254 197.117 225.947 196.807C225.644 196.496 225.184 196.341 224.567 196.341C223.927 196.341 223.425 196.481 223.061 196.761C222.697 197.042 222.442 197.341 222.294 197.659L221.021 197.205C221.249 196.674 221.552 196.261 221.93 195.966C222.313 195.667 222.73 195.458 223.18 195.341C223.635 195.22 224.082 195.159 224.521 195.159C224.802 195.159 225.124 195.193 225.487 195.261C225.855 195.326 226.209 195.46 226.55 195.665C226.894 195.869 227.18 196.178 227.408 196.591C227.635 197.004 227.749 197.557 227.749 198.25V204H226.408V202.818H226.339C226.249 203.008 226.097 203.21 225.885 203.426C225.673 203.642 225.391 203.826 225.038 203.977C224.686 204.129 224.256 204.205 223.749 204.205ZM223.953 203C224.483 203 224.93 202.896 225.294 202.688C225.661 202.479 225.938 202.21 226.124 201.881C226.313 201.551 226.408 201.205 226.408 200.841V199.614C226.351 199.682 226.226 199.744 226.033 199.801C225.843 199.854 225.624 199.902 225.374 199.943C225.127 199.981 224.887 200.015 224.652 200.045C224.421 200.072 224.233 200.095 224.089 200.114C223.741 200.159 223.415 200.233 223.112 200.335C222.813 200.434 222.571 200.583 222.385 200.784C222.203 200.981 222.112 201.25 222.112 201.591C222.112 202.057 222.285 202.409 222.629 202.648C222.978 202.883 223.419 203 223.953 203ZM233.491 204.182C232.764 204.182 232.122 203.998 231.565 203.631C231.009 203.259 230.573 202.737 230.259 202.062C229.944 201.384 229.787 200.583 229.787 199.659C229.787 198.742 229.944 197.947 230.259 197.273C230.573 196.598 231.01 196.078 231.571 195.71C232.132 195.343 232.779 195.159 233.514 195.159C234.082 195.159 234.531 195.254 234.861 195.443C235.194 195.629 235.448 195.841 235.622 196.08C235.8 196.314 235.938 196.508 236.037 196.659H236.151V192.364H237.491V204H236.196V202.659H236.037C235.938 202.818 235.798 203.019 235.616 203.261C235.435 203.5 235.175 203.714 234.838 203.903C234.501 204.089 234.052 204.182 233.491 204.182ZM233.673 202.977C234.211 202.977 234.666 202.837 235.037 202.557C235.408 202.273 235.69 201.881 235.884 201.381C236.077 200.877 236.173 200.295 236.173 199.636C236.173 198.985 236.079 198.415 235.889 197.926C235.7 197.434 235.42 197.051 235.048 196.778C234.677 196.502 234.219 196.364 233.673 196.364C233.105 196.364 232.632 196.509 232.253 196.801C231.878 197.089 231.596 197.481 231.406 197.977C231.221 198.47 231.128 199.023 231.128 199.636C231.128 200.258 231.223 200.822 231.412 201.33C231.605 201.833 231.889 202.235 232.264 202.534C232.643 202.83 233.113 202.977 233.673 202.977ZM243.679 204.182C242.891 204.182 242.2 203.994 241.605 203.619C241.014 203.244 240.552 202.72 240.219 202.045C239.889 201.371 239.724 200.583 239.724 199.682C239.724 198.773 239.889 197.979 240.219 197.301C240.552 196.623 241.014 196.097 241.605 195.722C242.2 195.347 242.891 195.159 243.679 195.159C244.467 195.159 245.156 195.347 245.747 195.722C246.342 196.097 246.804 196.623 247.134 197.301C247.467 197.979 247.634 198.773 247.634 199.682C247.634 200.583 247.467 201.371 247.134 202.045C246.804 202.72 246.342 203.244 245.747 203.619C245.156 203.994 244.467 204.182 243.679 204.182ZM243.679 202.977C244.277 202.977 244.77 202.824 245.156 202.517C245.543 202.21 245.829 201.807 246.014 201.307C246.2 200.807 246.293 200.265 246.293 199.682C246.293 199.098 246.2 198.555 246.014 198.051C245.829 197.547 245.543 197.14 245.156 196.83C244.77 196.519 244.277 196.364 243.679 196.364C243.08 196.364 242.588 196.519 242.202 196.83C241.815 197.14 241.529 197.547 241.344 198.051C241.158 198.555 241.065 199.098 241.065 199.682C241.065 200.265 241.158 200.807 241.344 201.307C241.529 201.807 241.815 202.21 242.202 202.517C242.588 202.824 243.08 202.977 243.679 202.977ZM249.68 204V195.273H250.976V196.591H251.067C251.226 196.159 251.514 195.809 251.93 195.54C252.347 195.271 252.817 195.136 253.339 195.136C253.438 195.136 253.561 195.138 253.709 195.142C253.857 195.146 253.968 195.152 254.044 195.159V196.523C253.999 196.511 253.894 196.494 253.732 196.472C253.572 196.445 253.404 196.432 253.226 196.432C252.802 196.432 252.423 196.521 252.089 196.699C251.76 196.873 251.499 197.116 251.305 197.426C251.116 197.733 251.021 198.083 251.021 198.477V204H249.68ZM260.111 204V202.977L263.952 198.773C264.402 198.28 264.774 197.852 265.065 197.489C265.357 197.121 265.573 196.777 265.713 196.455C265.857 196.129 265.929 195.788 265.929 195.432C265.929 195.023 265.83 194.669 265.634 194.369C265.44 194.07 265.175 193.839 264.838 193.676C264.501 193.513 264.122 193.432 263.702 193.432C263.255 193.432 262.865 193.525 262.531 193.71C262.202 193.892 261.946 194.148 261.764 194.477C261.586 194.807 261.497 195.193 261.497 195.636H260.156C260.156 194.955 260.313 194.356 260.628 193.841C260.942 193.326 261.37 192.924 261.912 192.636C262.457 192.348 263.069 192.205 263.747 192.205C264.429 192.205 265.033 192.348 265.56 192.636C266.086 192.924 266.499 193.312 266.798 193.801C267.098 194.29 267.247 194.833 267.247 195.432C267.247 195.86 267.17 196.278 267.014 196.688C266.863 197.093 266.598 197.545 266.219 198.045C265.844 198.542 265.323 199.148 264.656 199.864L262.043 202.659V202.75H267.452V204H260.111Z" fill="black"/>
<path d="M170.773 215H169.364C169.28 214.595 169.134 214.239 168.926 213.932C168.722 213.625 168.472 213.367 168.176 213.159C167.884 212.947 167.561 212.788 167.205 212.682C166.848 212.576 166.477 212.523 166.091 212.523C165.386 212.523 164.748 212.701 164.176 213.057C163.608 213.413 163.155 213.938 162.818 214.631C162.485 215.324 162.318 216.174 162.318 217.182C162.318 218.189 162.485 219.04 162.818 219.733C163.155 220.426 163.608 220.951 164.176 221.307C164.748 221.663 165.386 221.841 166.091 221.841C166.477 221.841 166.848 221.788 167.205 221.682C167.561 221.576 167.884 221.419 168.176 221.21C168.472 220.998 168.722 220.739 168.926 220.432C169.134 220.121 169.28 219.765 169.364 219.364H170.773C170.667 219.958 170.473 220.491 170.193 220.96C169.913 221.43 169.564 221.83 169.148 222.159C168.731 222.485 168.263 222.733 167.744 222.903C167.229 223.074 166.678 223.159 166.091 223.159C165.098 223.159 164.216 222.917 163.443 222.432C162.67 221.947 162.063 221.258 161.619 220.364C161.176 219.47 160.955 218.409 160.955 217.182C160.955 215.955 161.176 214.894 161.619 214C162.063 213.106 162.67 212.417 163.443 211.932C164.216 211.447 165.098 211.205 166.091 211.205C166.678 211.205 167.229 211.29 167.744 211.46C168.263 211.631 168.731 211.881 169.148 212.21C169.564 212.536 169.913 212.934 170.193 213.403C170.473 213.869 170.667 214.402 170.773 215ZM176.413 223.182C175.625 223.182 174.934 222.994 174.339 222.619C173.749 222.244 173.286 221.72 172.953 221.045C172.624 220.371 172.459 219.583 172.459 218.682C172.459 217.773 172.624 216.979 172.953 216.301C173.286 215.623 173.749 215.097 174.339 214.722C174.934 214.347 175.625 214.159 176.413 214.159C177.201 214.159 177.891 214.347 178.482 214.722C179.076 215.097 179.538 215.623 179.868 216.301C180.201 216.979 180.368 217.773 180.368 218.682C180.368 219.583 180.201 220.371 179.868 221.045C179.538 221.72 179.076 222.244 178.482 222.619C177.891 222.994 177.201 223.182 176.413 223.182ZM176.413 221.977C177.012 221.977 177.504 221.824 177.891 221.517C178.277 221.21 178.563 220.807 178.749 220.307C178.934 219.807 179.027 219.265 179.027 218.682C179.027 218.098 178.934 217.555 178.749 217.051C178.563 216.547 178.277 216.14 177.891 215.83C177.504 215.519 177.012 215.364 176.413 215.364C175.815 215.364 175.322 215.519 174.936 215.83C174.55 216.14 174.264 216.547 174.078 217.051C173.893 217.555 173.8 218.098 173.8 218.682C173.8 219.265 173.893 219.807 174.078 220.307C174.264 220.807 174.55 221.21 174.936 221.517C175.322 221.824 175.815 221.977 176.413 221.977ZM182.415 223V214.273H183.71V215.636H183.824C184.006 215.17 184.299 214.809 184.705 214.551C185.11 214.29 185.597 214.159 186.165 214.159C186.741 214.159 187.22 214.29 187.602 214.551C187.989 214.809 188.29 215.17 188.506 215.636H188.597C188.82 215.186 189.155 214.828 189.602 214.562C190.049 214.294 190.585 214.159 191.21 214.159C191.991 214.159 192.629 214.403 193.125 214.892C193.621 215.377 193.869 216.133 193.869 217.159V223H192.528V217.159C192.528 216.515 192.352 216.055 192 215.778C191.648 215.502 191.233 215.364 190.756 215.364C190.142 215.364 189.667 215.549 189.33 215.92C188.992 216.288 188.824 216.754 188.824 217.318V223H187.46V217.023C187.46 216.527 187.299 216.127 186.977 215.824C186.655 215.517 186.241 215.364 185.733 215.364C185.384 215.364 185.059 215.456 184.756 215.642C184.456 215.828 184.214 216.085 184.028 216.415C183.847 216.741 183.756 217.117 183.756 217.545V223H182.415ZM196.321 226.273V214.273H197.616V215.659H197.776C197.874 215.508 198.01 215.314 198.185 215.08C198.363 214.841 198.616 214.629 198.946 214.443C199.279 214.254 199.73 214.159 200.298 214.159C201.033 214.159 201.681 214.343 202.241 214.71C202.802 215.078 203.24 215.598 203.554 216.273C203.868 216.947 204.026 217.742 204.026 218.659C204.026 219.583 203.868 220.384 203.554 221.062C203.24 221.737 202.804 222.259 202.247 222.631C201.69 222.998 201.048 223.182 200.321 223.182C199.76 223.182 199.312 223.089 198.974 222.903C198.637 222.714 198.378 222.5 198.196 222.261C198.014 222.019 197.874 221.818 197.776 221.659H197.662V226.273H196.321ZM197.639 218.636C197.639 219.295 197.736 219.877 197.929 220.381C198.122 220.881 198.404 221.273 198.776 221.557C199.147 221.837 199.601 221.977 200.139 221.977C200.7 221.977 201.168 221.83 201.543 221.534C201.921 221.235 202.205 220.833 202.395 220.33C202.588 219.822 202.685 219.258 202.685 218.636C202.685 218.023 202.59 217.47 202.401 216.977C202.215 216.481 201.933 216.089 201.554 215.801C201.179 215.509 200.707 215.364 200.139 215.364C199.594 215.364 199.135 215.502 198.764 215.778C198.393 216.051 198.113 216.434 197.923 216.926C197.734 217.415 197.639 217.985 197.639 218.636ZM211.571 219.432V214.273H212.912V223H211.571V221.523H211.48C211.276 221.966 210.957 222.343 210.526 222.653C210.094 222.96 209.548 223.114 208.889 223.114C208.344 223.114 207.859 222.994 207.435 222.756C207.01 222.513 206.677 222.15 206.435 221.665C206.192 221.176 206.071 220.561 206.071 219.818V214.273H207.412V219.727C207.412 220.364 207.59 220.871 207.946 221.25C208.306 221.629 208.764 221.818 209.321 221.818C209.654 221.818 209.993 221.733 210.338 221.562C210.687 221.392 210.978 221.131 211.213 220.778C211.452 220.426 211.571 219.977 211.571 219.432ZM219.163 214.273V215.409H214.641V214.273H219.163ZM215.959 212.182H217.3V220.5C217.3 220.879 217.355 221.163 217.464 221.352C217.578 221.538 217.722 221.663 217.896 221.727C218.074 221.788 218.262 221.818 218.459 221.818C218.607 221.818 218.728 221.811 218.822 221.795C218.917 221.777 218.993 221.761 219.05 221.75L219.322 222.955C219.232 222.989 219.105 223.023 218.942 223.057C218.779 223.095 218.572 223.114 218.322 223.114C217.944 223.114 217.572 223.032 217.209 222.869C216.849 222.706 216.55 222.458 216.311 222.125C216.076 221.792 215.959 221.371 215.959 220.864V212.182ZM223.749 223.205C223.196 223.205 222.694 223.1 222.243 222.892C221.792 222.68 221.434 222.375 221.169 221.977C220.904 221.576 220.771 221.091 220.771 220.523C220.771 220.023 220.87 219.617 221.067 219.307C221.264 218.992 221.527 218.746 221.857 218.568C222.186 218.39 222.55 218.258 222.947 218.17C223.349 218.08 223.752 218.008 224.158 217.955C224.688 217.886 225.118 217.835 225.447 217.801C225.781 217.763 226.023 217.701 226.175 217.614C226.33 217.527 226.408 217.375 226.408 217.159V217.114C226.408 216.553 226.254 216.117 225.947 215.807C225.644 215.496 225.184 215.341 224.567 215.341C223.927 215.341 223.425 215.481 223.061 215.761C222.697 216.042 222.442 216.341 222.294 216.659L221.021 216.205C221.249 215.674 221.552 215.261 221.93 214.966C222.313 214.667 222.73 214.458 223.18 214.341C223.635 214.22 224.082 214.159 224.521 214.159C224.802 214.159 225.124 214.193 225.487 214.261C225.855 214.326 226.209 214.46 226.55 214.665C226.894 214.869 227.18 215.178 227.408 215.591C227.635 216.004 227.749 216.557 227.749 217.25V223H226.408V221.818H226.339C226.249 222.008 226.097 222.21 225.885 222.426C225.673 222.642 225.391 222.826 225.038 222.977C224.686 223.129 224.256 223.205 223.749 223.205ZM223.953 222C224.483 222 224.93 221.896 225.294 221.688C225.661 221.479 225.938 221.21 226.124 220.881C226.313 220.551 226.408 220.205 226.408 219.841V218.614C226.351 218.682 226.226 218.744 226.033 218.801C225.843 218.854 225.624 218.902 225.374 218.943C225.127 218.981 224.887 219.015 224.652 219.045C224.421 219.072 224.233 219.095 224.089 219.114C223.741 219.159 223.415 219.233 223.112 219.335C222.813 219.434 222.571 219.583 222.385 219.784C222.203 219.981 222.112 220.25 222.112 220.591C222.112 221.057 222.285 221.409 222.629 221.648C222.978 221.883 223.419 222 223.953 222ZM233.491 223.182C232.764 223.182 232.122 222.998 231.565 222.631C231.009 222.259 230.573 221.737 230.259 221.062C229.944 220.384 229.787 219.583 229.787 218.659C229.787 217.742 229.944 216.947 230.259 216.273C230.573 215.598 231.01 215.078 231.571 214.71C232.132 214.343 232.779 214.159 233.514 214.159C234.082 214.159 234.531 214.254 234.861 214.443C235.194 214.629 235.448 214.841 235.622 215.08C235.8 215.314 235.938 215.508 236.037 215.659H236.151V211.364H237.491V223H236.196V221.659H236.037C235.938 221.818 235.798 222.019 235.616 222.261C235.435 222.5 235.175 222.714 234.838 222.903C234.501 223.089 234.052 223.182 233.491 223.182ZM233.673 221.977C234.211 221.977 234.666 221.837 235.037 221.557C235.408 221.273 235.69 220.881 235.884 220.381C236.077 219.877 236.173 219.295 236.173 218.636C236.173 217.985 236.079 217.415 235.889 216.926C235.7 216.434 235.42 216.051 235.048 215.778C234.677 215.502 234.219 215.364 233.673 215.364C233.105 215.364 232.632 215.509 232.253 215.801C231.878 216.089 231.596 216.481 231.406 216.977C231.221 217.47 231.128 218.023 231.128 218.636C231.128 219.258 231.223 219.822 231.412 220.33C231.605 220.833 231.889 221.235 232.264 221.534C232.643 221.83 233.113 221.977 233.673 221.977ZM243.679 223.182C242.891 223.182 242.2 222.994 241.605 222.619C241.014 222.244 240.552 221.72 240.219 221.045C239.889 220.371 239.724 219.583 239.724 218.682C239.724 217.773 239.889 216.979 240.219 216.301C240.552 215.623 241.014 215.097 241.605 214.722C242.2 214.347 242.891 214.159 243.679 214.159C244.467 214.159 245.156 214.347 245.747 214.722C246.342 215.097 246.804 215.623 247.134 216.301C247.467 216.979 247.634 217.773 247.634 218.682C247.634 219.583 247.467 220.371 247.134 221.045C246.804 221.72 246.342 222.244 245.747 222.619C245.156 222.994 244.467 223.182 243.679 223.182ZM243.679 221.977C244.277 221.977 244.77 221.824 245.156 221.517C245.543 221.21 245.829 220.807 246.014 220.307C246.2 219.807 246.293 219.265 246.293 218.682C246.293 218.098 246.2 217.555 246.014 217.051C245.829 216.547 245.543 216.14 245.156 215.83C244.77 215.519 244.277 215.364 243.679 215.364C243.08 215.364 242.588 215.519 242.202 215.83C241.815 216.14 241.529 216.547 241.344 217.051C241.158 217.555 241.065 218.098 241.065 218.682C241.065 219.265 241.158 219.807 241.344 220.307C241.529 220.807 241.815 221.21 242.202 221.517C242.588 221.824 243.08 221.977 243.679 221.977ZM249.68 223V214.273H250.976V215.591H251.067C251.226 215.159 251.514 214.809 251.93 214.54C252.347 214.271 252.817 214.136 253.339 214.136C253.438 214.136 253.561 214.138 253.709 214.142C253.857 214.146 253.968 214.152 254.044 214.159V215.523C253.999 215.511 253.894 215.494 253.732 215.472C253.572 215.445 253.404 215.432 253.226 215.432C252.802 215.432 252.423 215.521 252.089 215.699C251.76 215.873 251.499 216.116 251.305 216.426C251.116 216.733 251.021 217.083 251.021 217.477V223H249.68ZM264.043 223.159C263.293 223.159 262.624 223.03 262.037 222.773C261.454 222.515 260.99 222.157 260.645 221.699C260.304 221.237 260.118 220.701 260.088 220.091H261.52C261.55 220.466 261.679 220.79 261.906 221.062C262.134 221.331 262.431 221.54 262.798 221.688C263.166 221.835 263.573 221.909 264.02 221.909C264.52 221.909 264.963 221.822 265.349 221.648C265.736 221.473 266.039 221.231 266.259 220.92C266.478 220.61 266.588 220.25 266.588 219.841C266.588 219.413 266.482 219.036 266.27 218.71C266.058 218.381 265.747 218.123 265.338 217.938C264.929 217.752 264.429 217.659 263.838 217.659H262.906V216.409H263.838C264.3 216.409 264.705 216.326 265.054 216.159C265.406 215.992 265.681 215.758 265.878 215.455C266.079 215.152 266.179 214.795 266.179 214.386C266.179 213.992 266.092 213.65 265.918 213.358C265.743 213.066 265.497 212.839 265.179 212.676C264.865 212.513 264.493 212.432 264.065 212.432C263.664 212.432 263.285 212.506 262.929 212.653C262.577 212.797 262.289 213.008 262.065 213.284C261.842 213.557 261.721 213.886 261.702 214.273H260.338C260.361 213.663 260.545 213.129 260.889 212.67C261.234 212.208 261.685 211.848 262.241 211.591C262.802 211.333 263.418 211.205 264.088 211.205C264.808 211.205 265.425 211.35 265.94 211.642C266.455 211.93 266.851 212.311 267.128 212.784C267.404 213.258 267.543 213.769 267.543 214.318C267.543 214.973 267.37 215.532 267.026 215.994C266.685 216.456 266.221 216.777 265.634 216.955V217.045C266.368 217.167 266.942 217.479 267.355 217.983C267.768 218.483 267.974 219.102 267.974 219.841C267.974 220.473 267.802 221.042 267.457 221.545C267.116 222.045 266.651 222.439 266.06 222.727C265.469 223.015 264.796 223.159 264.043 223.159Z" fill="black"/>
<defs>
<clipPath id="clip0_1_21">
<rect width="30" height="30" fill="white" transform="translate(1090 20)"/>
</clipPath>
</defs>
</svg>
