<svg width="1280" height="720" viewBox="0 0 1280 720" fill="none" xmlns="http://www.w3.org/2000/svg">
<rect width="1280" height="720" fill="white"/>
<rect width="1280" height="70" fill="#2D28FF"/>
<path d="M163.472 29.3636V41H161.011V29.3636H163.472ZM167.871 35.9545V41H165.45V32.2727H167.757V33.8125H167.859C168.053 33.3049 168.376 32.9034 168.831 32.608C169.286 32.3087 169.837 32.1591 170.484 32.1591C171.09 32.1591 171.619 32.2917 172.07 32.5568C172.52 32.822 172.871 33.2008 173.121 33.6932C173.371 34.1818 173.496 34.7652 173.496 35.4432V41H171.075V35.875C171.079 35.3409 170.943 34.9242 170.666 34.625C170.39 34.322 170.009 34.1705 169.524 34.1705C169.198 34.1705 168.911 34.2405 168.661 34.3807C168.414 34.5208 168.221 34.7254 168.081 34.9943C167.945 35.2595 167.875 35.5795 167.871 35.9545ZM175.403 41V32.2727H177.824V41H175.403ZM175.75 31.1477L176.955 28.5625H179.193L177.46 31.1477H175.75ZM183.706 41.1705C182.812 41.1705 182.043 40.9811 181.399 40.6023C180.759 40.2197 180.267 39.6894 179.922 39.0114C179.581 38.3333 179.411 37.553 179.411 36.6705C179.411 35.7765 179.583 34.9924 179.928 34.3182C180.276 33.6402 180.77 33.1117 181.411 32.733C182.051 32.3504 182.812 32.1591 183.695 32.1591C184.456 32.1591 185.123 32.2973 185.695 32.5739C186.267 32.8504 186.719 33.2386 187.053 33.7386C187.386 34.2386 187.57 34.8258 187.604 35.5H185.32C185.255 35.0644 185.085 34.714 184.808 34.4489C184.536 34.1799 184.178 34.0455 183.734 34.0455C183.359 34.0455 183.032 34.1477 182.751 34.3523C182.475 34.553 182.259 34.8466 182.104 35.233C181.948 35.6193 181.871 36.0871 181.871 36.6364C181.871 37.1932 181.946 37.6667 182.098 38.0568C182.253 38.447 182.471 38.7443 182.751 38.9489C183.032 39.1534 183.359 39.2557 183.734 39.2557C184.011 39.2557 184.259 39.1989 184.479 39.0852C184.702 38.9716 184.886 38.8068 185.03 38.5909C185.178 38.3712 185.274 38.108 185.32 37.8011H187.604C187.566 38.4678 187.384 39.0549 187.058 39.5625C186.736 40.0663 186.291 40.4602 185.723 40.7443C185.155 41.0284 184.482 41.1705 183.706 41.1705ZM189.153 41V32.2727H191.574V41H189.153ZM190.369 31.1477C190.009 31.1477 189.701 31.0284 189.443 30.7898C189.189 30.5473 189.062 30.2576 189.062 29.9205C189.062 29.5871 189.189 29.3011 189.443 29.0625C189.701 28.8201 190.009 28.6989 190.369 28.6989C190.729 28.6989 191.036 28.8201 191.29 29.0625C191.547 29.3011 191.676 29.5871 191.676 29.9205C191.676 30.2576 191.547 30.5473 191.29 30.7898C191.036 31.0284 190.729 31.1477 190.369 31.1477ZM197.456 41.1705C196.573 41.1705 195.81 40.983 195.166 40.608C194.526 40.2292 194.032 39.7027 193.683 39.0284C193.335 38.3504 193.161 37.5644 193.161 36.6705C193.161 35.7689 193.335 34.9811 193.683 34.3068C194.032 33.6288 194.526 33.1023 195.166 32.7273C195.81 32.3485 196.573 32.1591 197.456 32.1591C198.339 32.1591 199.1 32.3485 199.74 32.7273C200.384 33.1023 200.88 33.6288 201.229 34.3068C201.577 34.9811 201.751 35.7689 201.751 36.6705C201.751 37.5644 201.577 38.3504 201.229 39.0284C200.88 39.7027 200.384 40.2292 199.74 40.608C199.1 40.983 198.339 41.1705 197.456 41.1705ZM197.467 39.2955C197.869 39.2955 198.204 39.1818 198.473 38.9545C198.742 38.7235 198.945 38.4091 199.081 38.0114C199.221 37.6136 199.291 37.161 199.291 36.6534C199.291 36.1458 199.221 35.6932 199.081 35.2955C198.945 34.8977 198.742 34.5833 198.473 34.3523C198.204 34.1212 197.869 34.0057 197.467 34.0057C197.062 34.0057 196.721 34.1212 196.445 34.3523C196.172 34.5833 195.965 34.8977 195.825 35.2955C195.689 35.6932 195.621 36.1458 195.621 36.6534C195.621 37.161 195.689 37.6136 195.825 38.0114C195.965 38.4091 196.172 38.7235 196.445 38.9545C196.721 39.1818 197.062 39.2955 197.467 39.2955Z" fill="white"/>
<path d="M224.409 41V29.3636H228.341C229.254 29.3636 230 29.5284 230.58 29.858C231.163 30.1837 231.595 30.625 231.875 31.1818C232.155 31.7386 232.295 32.3598 232.295 33.0455C232.295 33.7311 232.155 34.3542 231.875 34.9148C231.598 35.4754 231.17 35.9223 230.591 36.2557C230.011 36.5852 229.269 36.75 228.364 36.75H225.545V35.5H228.318C228.943 35.5 229.445 35.392 229.824 35.1761C230.203 34.9602 230.477 34.6686 230.648 34.3011C230.822 33.9299 230.909 33.5114 230.909 33.0455C230.909 32.5795 230.822 32.1629 230.648 31.7955C230.477 31.428 230.201 31.1402 229.818 30.9318C229.436 30.7197 228.928 30.6136 228.295 30.6136H225.818V41H224.409ZM234.384 41V32.2727H235.679V33.5909H235.77C235.929 33.1591 236.217 32.8087 236.634 32.5398C237.05 32.2708 237.52 32.1364 238.043 32.1364C238.141 32.1364 238.264 32.1383 238.412 32.142C238.56 32.1458 238.671 32.1515 238.747 32.1591V33.5227C238.702 33.5114 238.598 33.4943 238.435 33.4716C238.276 33.4451 238.107 33.4318 237.929 33.4318C237.505 33.4318 237.126 33.5208 236.793 33.6989C236.463 33.8731 236.202 34.1155 236.009 34.4261C235.819 34.733 235.724 35.0833 235.724 35.4773V41H234.384ZM243.616 41.1818C242.829 41.1818 242.137 40.9943 241.543 40.6193C240.952 40.2443 240.49 39.7197 240.156 39.0455C239.827 38.3712 239.662 37.5833 239.662 36.6818C239.662 35.7727 239.827 34.9792 240.156 34.3011C240.49 33.6231 240.952 33.0966 241.543 32.7216C242.137 32.3466 242.829 32.1591 243.616 32.1591C244.404 32.1591 245.094 32.3466 245.685 32.7216C246.279 33.0966 246.741 33.6231 247.071 34.3011C247.404 34.9792 247.571 35.7727 247.571 36.6818C247.571 37.5833 247.404 38.3712 247.071 39.0455C246.741 39.7197 246.279 40.2443 245.685 40.6193C245.094 40.9943 244.404 41.1818 243.616 41.1818ZM243.616 39.9773C244.215 39.9773 244.707 39.8239 245.094 39.517C245.48 39.2102 245.766 38.8068 245.952 38.3068C246.137 37.8068 246.23 37.2652 246.23 36.6818C246.23 36.0985 246.137 35.5549 245.952 35.0511C245.766 34.5473 245.48 34.1402 245.094 33.8295C244.707 33.5189 244.215 33.3636 243.616 33.3636C243.018 33.3636 242.526 33.5189 242.139 33.8295C241.753 34.1402 241.467 34.5473 241.281 35.0511C241.096 35.5549 241.003 36.0985 241.003 36.6818C241.003 37.2652 241.096 37.8068 241.281 38.3068C241.467 38.8068 241.753 39.2102 242.139 39.517C242.526 39.8239 243.018 39.9773 243.616 39.9773ZM252.913 41.1818C252.186 41.1818 251.544 40.9981 250.987 40.6307C250.43 40.2595 249.995 39.7367 249.68 39.0625C249.366 38.3845 249.209 37.5833 249.209 36.6591C249.209 35.7424 249.366 34.947 249.68 34.2727C249.995 33.5985 250.432 33.0777 250.993 32.7102C251.554 32.3428 252.201 32.1591 252.936 32.1591C253.504 32.1591 253.953 32.2538 254.283 32.4432C254.616 32.6288 254.87 32.8409 255.044 33.0795C255.222 33.3144 255.36 33.5076 255.459 33.6591H255.572V29.3636H256.913V41H255.618V39.6591H255.459C255.36 39.8182 255.22 40.0189 255.038 40.2614C254.857 40.5 254.597 40.714 254.26 40.9034C253.923 41.089 253.474 41.1818 252.913 41.1818ZM253.095 39.9773C253.633 39.9773 254.088 39.8371 254.459 39.5568C254.83 39.2727 255.112 38.8807 255.305 38.3807C255.499 37.8769 255.595 37.2955 255.595 36.6364C255.595 35.9848 255.5 35.4148 255.311 34.9261C255.122 34.4337 254.841 34.0511 254.47 33.7784C254.099 33.5019 253.641 33.3636 253.095 33.3636C252.527 33.3636 252.054 33.5095 251.675 33.8011C251.3 34.089 251.018 34.4811 250.828 34.9773C250.643 35.4697 250.55 36.0227 250.55 36.6364C250.55 37.2576 250.644 37.822 250.834 38.3295C251.027 38.8333 251.311 39.2348 251.686 39.5341C252.065 39.8295 252.535 39.9773 253.095 39.9773ZM265.055 37.4318V32.2727H266.396V41H265.055V39.5227H264.964C264.76 39.9659 264.442 40.3428 264.01 40.6534C263.578 40.9602 263.033 41.1136 262.374 41.1136C261.828 41.1136 261.343 40.9943 260.919 40.7557C260.495 40.5133 260.161 40.1496 259.919 39.6648C259.677 39.1761 259.555 38.5606 259.555 37.8182V32.2727H260.896V37.7273C260.896 38.3636 261.074 38.8712 261.43 39.25C261.79 39.6288 262.249 39.8182 262.805 39.8182C263.139 39.8182 263.478 39.733 263.822 39.5625C264.171 39.392 264.463 39.1307 264.697 38.7784C264.936 38.4261 265.055 37.9773 265.055 37.4318ZM272.648 32.2727V33.4091H268.125V32.2727H272.648ZM269.443 30.1818H270.784V38.5C270.784 38.8788 270.839 39.1629 270.949 39.3523C271.063 39.5379 271.206 39.6629 271.381 39.7273C271.559 39.7879 271.746 39.8182 271.943 39.8182C272.091 39.8182 272.212 39.8106 272.307 39.7955C272.402 39.7765 272.477 39.7614 272.534 39.75L272.807 40.9545C272.716 40.9886 272.589 41.0227 272.426 41.0568C272.263 41.0947 272.057 41.1136 271.807 41.1136C271.428 41.1136 271.057 41.0322 270.693 40.8693C270.333 40.7064 270.034 40.4583 269.795 40.125C269.561 39.7917 269.443 39.3712 269.443 38.8636V30.1818ZM278.116 41.1818C277.329 41.1818 276.637 40.9943 276.043 40.6193C275.452 40.2443 274.99 39.7197 274.656 39.0455C274.327 38.3712 274.162 37.5833 274.162 36.6818C274.162 35.7727 274.327 34.9792 274.656 34.3011C274.99 33.6231 275.452 33.0966 276.043 32.7216C276.637 32.3466 277.329 32.1591 278.116 32.1591C278.904 32.1591 279.594 32.3466 280.185 32.7216C280.779 33.0966 281.241 33.6231 281.571 34.3011C281.904 34.9792 282.071 35.7727 282.071 36.6818C282.071 37.5833 281.904 38.3712 281.571 39.0455C281.241 39.7197 280.779 40.2443 280.185 40.6193C279.594 40.9943 278.904 41.1818 278.116 41.1818ZM278.116 39.9773C278.715 39.9773 279.207 39.8239 279.594 39.517C279.98 39.2102 280.266 38.8068 280.452 38.3068C280.637 37.8068 280.73 37.2652 280.73 36.6818C280.73 36.0985 280.637 35.5549 280.452 35.0511C280.266 34.5473 279.98 34.1402 279.594 33.8295C279.207 33.5189 278.715 33.3636 278.116 33.3636C277.518 33.3636 277.026 33.5189 276.639 33.8295C276.253 34.1402 275.967 34.5473 275.781 35.0511C275.596 35.5549 275.503 36.0985 275.503 36.6818C275.503 37.2652 275.596 37.8068 275.781 38.3068C275.967 38.8068 276.253 39.2102 276.639 39.517C277.026 39.8239 277.518 39.9773 278.116 39.9773ZM290.3 34.2273L289.095 34.5682C289.019 34.3674 288.908 34.1723 288.76 33.983C288.616 33.7898 288.419 33.6307 288.169 33.5057C287.919 33.3807 287.599 33.3182 287.209 33.3182C286.675 33.3182 286.23 33.4413 285.874 33.6875C285.521 33.9299 285.345 34.2386 285.345 34.6136C285.345 34.947 285.466 35.2102 285.709 35.4034C285.951 35.5966 286.33 35.7576 286.845 35.8864L288.141 36.2045C288.921 36.3939 289.502 36.6837 289.885 37.0739C290.268 37.4602 290.459 37.9583 290.459 38.5682C290.459 39.0682 290.315 39.5152 290.027 39.9091C289.743 40.303 289.345 40.6136 288.834 40.8409C288.322 41.0682 287.728 41.1818 287.05 41.1818C286.16 41.1818 285.423 40.9886 284.839 40.6023C284.256 40.2159 283.887 39.6515 283.732 38.9091L285.004 38.5909C285.125 39.0606 285.355 39.4129 285.692 39.6477C286.033 39.8826 286.478 40 287.027 40C287.652 40 288.148 39.8674 288.516 39.6023C288.887 39.3333 289.072 39.0114 289.072 38.6364C289.072 38.3333 288.966 38.0795 288.754 37.875C288.542 37.6667 288.216 37.5114 287.777 37.4091L286.322 37.0682C285.523 36.8788 284.936 36.5852 284.561 36.1875C284.19 35.786 284.004 35.2841 284.004 34.6818C284.004 34.1894 284.143 33.7538 284.419 33.375C284.699 32.9962 285.08 32.6989 285.561 32.483C286.046 32.267 286.595 32.1591 287.209 32.1591C288.072 32.1591 288.75 32.3485 289.243 32.7273C289.739 33.1061 290.091 33.6061 290.3 34.2273Z" fill="white"/>
<path d="M319.773 32.2727C319.705 31.697 319.428 31.25 318.943 30.9318C318.458 30.6136 317.864 30.4545 317.159 30.4545C316.644 30.4545 316.193 30.5379 315.807 30.7045C315.424 30.8712 315.125 31.1004 314.909 31.392C314.697 31.6837 314.591 32.0152 314.591 32.3864C314.591 32.697 314.665 32.964 314.812 33.1875C314.964 33.4072 315.157 33.5909 315.392 33.7386C315.627 33.8826 315.873 34.0019 316.131 34.0966C316.388 34.1875 316.625 34.2614 316.841 34.3182L318.023 34.6364C318.326 34.7159 318.663 34.8258 319.034 34.9659C319.409 35.1061 319.767 35.2973 320.108 35.5398C320.453 35.7784 320.737 36.0852 320.96 36.4602C321.184 36.8352 321.295 37.2955 321.295 37.8409C321.295 38.4697 321.131 39.0379 320.801 39.5455C320.475 40.053 319.998 40.4564 319.369 40.7557C318.744 41.0549 317.985 41.2045 317.091 41.2045C316.258 41.2045 315.536 41.0701 314.926 40.8011C314.32 40.5322 313.843 40.1572 313.494 39.6761C313.15 39.1951 312.955 38.6364 312.909 38H314.364C314.402 38.4394 314.549 38.803 314.807 39.0909C315.068 39.375 315.398 39.5871 315.795 39.7273C316.197 39.8636 316.629 39.9318 317.091 39.9318C317.629 39.9318 318.112 39.8447 318.54 39.6705C318.968 39.4924 319.307 39.2462 319.557 38.9318C319.807 38.6136 319.932 38.2424 319.932 37.8182C319.932 37.4318 319.824 37.1174 319.608 36.875C319.392 36.6326 319.108 36.4356 318.756 36.2841C318.403 36.1326 318.023 36 317.614 35.8864L316.182 35.4773C315.273 35.2159 314.553 34.8428 314.023 34.358C313.492 33.8731 313.227 33.2386 313.227 32.4545C313.227 31.803 313.403 31.2348 313.756 30.75C314.112 30.2614 314.589 29.8826 315.188 29.6136C315.79 29.3409 316.462 29.2045 317.205 29.2045C317.955 29.2045 318.621 29.339 319.205 29.608C319.788 29.8731 320.25 30.2367 320.591 30.6989C320.936 31.161 321.117 31.6856 321.136 32.2727H319.773ZM326.976 41.1818C326.188 41.1818 325.497 40.9943 324.902 40.6193C324.311 40.2443 323.849 39.7197 323.516 39.0455C323.186 38.3712 323.021 37.5833 323.021 36.6818C323.021 35.7727 323.186 34.9792 323.516 34.3011C323.849 33.6231 324.311 33.0966 324.902 32.7216C325.497 32.3466 326.188 32.1591 326.976 32.1591C327.764 32.1591 328.453 32.3466 329.044 32.7216C329.639 33.0966 330.101 33.6231 330.43 34.3011C330.764 34.9792 330.93 35.7727 330.93 36.6818C330.93 37.5833 330.764 38.3712 330.43 39.0455C330.101 39.7197 329.639 40.2443 329.044 40.6193C328.453 40.9943 327.764 41.1818 326.976 41.1818ZM326.976 39.9773C327.574 39.9773 328.067 39.8239 328.453 39.517C328.839 39.2102 329.125 38.8068 329.311 38.3068C329.497 37.8068 329.589 37.2652 329.589 36.6818C329.589 36.0985 329.497 35.5549 329.311 35.0511C329.125 34.5473 328.839 34.1402 328.453 33.8295C328.067 33.5189 327.574 33.3636 326.976 33.3636C326.377 33.3636 325.885 33.5189 325.499 33.8295C325.112 34.1402 324.826 34.5473 324.641 35.0511C324.455 35.5549 324.362 36.0985 324.362 36.6818C324.362 37.2652 324.455 37.8068 324.641 38.3068C324.826 38.8068 325.112 39.2102 325.499 39.517C325.885 39.8239 326.377 39.9773 326.976 39.9773ZM333.159 41V29.3636H334.5V33.6591H334.614C334.712 33.5076 334.848 33.3144 335.023 33.0795C335.201 32.8409 335.455 32.6288 335.784 32.4432C336.117 32.2538 336.568 32.1591 337.136 32.1591C337.871 32.1591 338.519 32.3428 339.08 32.7102C339.64 33.0777 340.078 33.5985 340.392 34.2727C340.706 34.947 340.864 35.7424 340.864 36.6591C340.864 37.5833 340.706 38.3845 340.392 39.0625C340.078 39.7367 339.642 40.2595 339.085 40.6307C338.528 40.9981 337.886 41.1818 337.159 41.1818C336.598 41.1818 336.15 41.089 335.812 40.9034C335.475 40.714 335.216 40.5 335.034 40.2614C334.852 40.0189 334.712 39.8182 334.614 39.6591H334.455V41H333.159ZM334.477 36.6364C334.477 37.2955 334.574 37.8769 334.767 38.3807C334.96 38.8807 335.242 39.2727 335.614 39.5568C335.985 39.8371 336.439 39.9773 336.977 39.9773C337.538 39.9773 338.006 39.8295 338.381 39.5341C338.759 39.2348 339.044 38.8333 339.233 38.3295C339.426 37.822 339.523 37.2576 339.523 36.6364C339.523 36.0227 339.428 35.4697 339.239 34.9773C339.053 34.4811 338.771 34.089 338.392 33.8011C338.017 33.5095 337.545 33.3636 336.977 33.3636C336.432 33.3636 335.973 33.5019 335.602 33.7784C335.231 34.0511 334.951 34.4337 334.761 34.9261C334.572 35.4148 334.477 35.9848 334.477 36.6364ZM342.915 41V32.2727H344.21V33.5909H344.301C344.46 33.1591 344.748 32.8087 345.165 32.5398C345.581 32.2708 346.051 32.1364 346.574 32.1364C346.672 32.1364 346.795 32.1383 346.943 32.142C347.091 32.1458 347.203 32.1515 347.278 32.1591V33.5227C347.233 33.5114 347.129 33.4943 346.966 33.4716C346.807 33.4451 346.638 33.4318 346.46 33.4318C346.036 33.4318 345.657 33.5208 345.324 33.6989C344.994 33.8731 344.733 34.1155 344.54 34.4261C344.35 34.733 344.256 35.0833 344.256 35.4773V41H342.915ZM352.261 41.1818C351.42 41.1818 350.695 40.9962 350.085 40.625C349.479 40.25 349.011 39.7273 348.682 39.0568C348.356 38.3826 348.193 37.5985 348.193 36.7045C348.193 35.8106 348.356 35.0227 348.682 34.3409C349.011 33.6553 349.47 33.1212 350.057 32.7386C350.648 32.3523 351.337 32.1591 352.125 32.1591C352.58 32.1591 353.028 32.2348 353.472 32.3864C353.915 32.5379 354.318 32.7841 354.682 33.125C355.045 33.4621 355.335 33.9091 355.551 34.4659C355.767 35.0227 355.875 35.7083 355.875 36.5227V37.0909H349.148V35.9318H354.511C354.511 35.4394 354.413 35 354.216 34.6136C354.023 34.2273 353.746 33.9223 353.386 33.6989C353.03 33.4754 352.61 33.3636 352.125 33.3636C351.591 33.3636 351.129 33.4962 350.739 33.7614C350.352 34.0227 350.055 34.3636 349.847 34.7841C349.638 35.2045 349.534 35.6553 349.534 36.1364V36.9091C349.534 37.5682 349.648 38.1269 349.875 38.5852C350.106 39.0398 350.426 39.3864 350.835 39.625C351.244 39.8598 351.72 39.9773 352.261 39.9773C352.614 39.9773 352.932 39.928 353.216 39.8295C353.504 39.7273 353.752 39.5758 353.96 39.375C354.169 39.1705 354.33 38.9167 354.443 38.6136L355.739 38.9773C355.602 39.4167 355.373 39.803 355.051 40.1364C354.729 40.4659 354.331 40.7235 353.858 40.9091C353.384 41.0909 352.852 41.1818 352.261 41.1818ZM363.756 35.75V41H362.415V32.2727H363.71V33.6364H363.824C364.028 33.1932 364.339 32.8371 364.756 32.5682C365.172 32.2955 365.71 32.1591 366.369 32.1591C366.96 32.1591 367.477 32.2803 367.92 32.5227C368.364 32.7614 368.708 33.125 368.955 33.6136C369.201 34.0985 369.324 34.7121 369.324 35.4545V41H367.983V35.5455C367.983 34.8598 367.805 34.3258 367.449 33.9432C367.093 33.5568 366.604 33.3636 365.983 33.3636C365.555 33.3636 365.172 33.4564 364.835 33.642C364.502 33.8277 364.239 34.0985 364.045 34.4545C363.852 34.8106 363.756 35.2424 363.756 35.75ZM375.32 41.1818C374.532 41.1818 373.84 40.9943 373.246 40.6193C372.655 40.2443 372.193 39.7197 371.859 39.0455C371.53 38.3712 371.365 37.5833 371.365 36.6818C371.365 35.7727 371.53 34.9792 371.859 34.3011C372.193 33.6231 372.655 33.0966 373.246 32.7216C373.84 32.3466 374.532 32.1591 375.32 32.1591C376.107 32.1591 376.797 32.3466 377.388 32.7216C377.982 33.0966 378.445 33.6231 378.774 34.3011C379.107 34.9792 379.274 35.7727 379.274 36.6818C379.274 37.5833 379.107 38.3712 378.774 39.0455C378.445 39.7197 377.982 40.2443 377.388 40.6193C376.797 40.9943 376.107 41.1818 375.32 41.1818ZM375.32 39.9773C375.918 39.9773 376.411 39.8239 376.797 39.517C377.183 39.2102 377.469 38.8068 377.655 38.3068C377.84 37.8068 377.933 37.2652 377.933 36.6818C377.933 36.0985 377.84 35.5549 377.655 35.0511C377.469 34.5473 377.183 34.1402 376.797 33.8295C376.411 33.5189 375.918 33.3636 375.32 33.3636C374.721 33.3636 374.229 33.5189 373.842 33.8295C373.456 34.1402 373.17 34.5473 372.984 35.0511C372.799 35.5549 372.706 36.0985 372.706 36.6818C372.706 37.2652 372.799 37.8068 372.984 38.3068C373.17 38.8068 373.456 39.2102 373.842 39.517C374.229 39.8239 374.721 39.9773 375.32 39.9773ZM374.706 31.0909L376.092 28.4545H377.661L375.888 31.0909H374.706ZM387.503 34.2273L386.298 34.5682C386.223 34.3674 386.111 34.1723 385.963 33.983C385.819 33.7898 385.622 33.6307 385.372 33.5057C385.122 33.3807 384.802 33.3182 384.412 33.3182C383.878 33.3182 383.433 33.4413 383.077 33.6875C382.724 33.9299 382.548 34.2386 382.548 34.6136C382.548 34.947 382.67 35.2102 382.912 35.4034C383.154 35.5966 383.533 35.7576 384.048 35.8864L385.344 36.2045C386.124 36.3939 386.705 36.6837 387.088 37.0739C387.471 37.4602 387.662 37.9583 387.662 38.5682C387.662 39.0682 387.518 39.5152 387.23 39.9091C386.946 40.303 386.548 40.6136 386.037 40.8409C385.526 41.0682 384.931 41.1818 384.253 41.1818C383.363 41.1818 382.626 40.9886 382.043 40.6023C381.459 40.2159 381.09 39.6515 380.935 38.9091L382.207 38.5909C382.329 39.0606 382.558 39.4129 382.895 39.6477C383.236 39.8826 383.681 40 384.23 40C384.855 40 385.351 39.8674 385.719 39.6023C386.09 39.3333 386.276 39.0114 386.276 38.6364C386.276 38.3333 386.17 38.0795 385.957 37.875C385.745 37.6667 385.42 37.5114 384.98 37.4091L383.526 37.0682C382.726 36.8788 382.139 36.5852 381.764 36.1875C381.393 35.786 381.207 35.2841 381.207 34.6818C381.207 34.1894 381.346 33.7538 381.622 33.375C381.902 32.9962 382.283 32.6989 382.764 32.483C383.249 32.267 383.798 32.1591 384.412 32.1591C385.276 32.1591 385.954 32.3485 386.446 32.7273C386.942 33.1061 387.295 33.6061 387.503 34.2273Z" fill="white"/>
<g clip-path="url(#clip0_1_2)">
<path d="M1119.47 31.7924L1115.72 28.7331V23.8404C1115.72 23.2894 1115.27 22.8411 1114.72 22.8411H1112.36C1111.81 22.8411 1111.36 23.2894 1111.36 23.8404V25.1791L1106.34 21.0913C1105.98 20.7957 1105.5 20.6328 1105 20.6328C1104.49 20.6328 1104.02 20.7947 1103.66 21.0888L1090.53 31.7923C1089.93 32.2784 1089.97 32.7018 1090.04 32.9109C1090.11 33.1196 1090.35 33.4697 1091.12 33.4697H1092.92V47.5454C1092.92 48.55 1093.73 49.3671 1094.73 49.3671H1100.41C1101.41 49.3671 1102.18 48.5669 1102.18 47.5454V41.7732C1102.18 41.2785 1102.64 40.828 1103.14 40.828H1106.95C1107.43 40.828 1107.82 41.2521 1107.82 41.7732V47.5454C1107.82 48.5329 1108.67 49.3671 1109.68 49.3671H1115.27C1116.27 49.3671 1117.08 48.5499 1117.08 47.5454V33.4697H1118.88C1119.65 33.4697 1119.89 33.1196 1119.96 32.9109C1120.03 32.7018 1120.07 32.2784 1119.47 31.7924Z" fill="white"/>
</g>
<path d="M161.517 113V95.5455H168.506C169.79 95.5455 170.861 95.7358 171.719 96.1165C172.577 96.4972 173.222 97.0256 173.653 97.7017C174.085 98.3722 174.301 99.1449 174.301 100.02C174.301 100.702 174.165 101.301 173.892 101.818C173.619 102.33 173.244 102.75 172.767 103.08C172.295 103.403 171.756 103.634 171.148 103.77V103.94C171.813 103.969 172.435 104.156 173.014 104.503C173.599 104.849 174.074 105.335 174.438 105.96C174.801 106.58 174.983 107.318 174.983 108.176C174.983 109.102 174.753 109.929 174.293 110.656C173.838 111.378 173.165 111.949 172.273 112.369C171.381 112.79 170.281 113 168.974 113H161.517ZM165.207 109.983H168.216C169.244 109.983 169.994 109.787 170.466 109.395C170.938 108.997 171.173 108.469 171.173 107.81C171.173 107.327 171.057 106.901 170.824 106.531C170.591 106.162 170.259 105.872 169.827 105.662C169.401 105.452 168.892 105.347 168.301 105.347H165.207V109.983ZM165.207 102.849H167.943C168.449 102.849 168.898 102.761 169.29 102.585C169.688 102.403 170 102.148 170.227 101.818C170.46 101.489 170.577 101.094 170.577 100.634C170.577 100.003 170.352 99.4943 169.903 99.108C169.46 98.7216 168.83 98.5284 168.011 98.5284H165.207V102.849ZM183.282 113.256C181.935 113.256 180.776 112.983 179.805 112.438C178.839 111.886 178.094 111.108 177.572 110.102C177.049 109.091 176.788 107.895 176.788 106.514C176.788 105.168 177.049 103.986 177.572 102.969C178.094 101.952 178.83 101.159 179.779 100.591C180.734 100.023 181.853 99.7386 183.137 99.7386C184.001 99.7386 184.805 99.8778 185.549 100.156C186.299 100.429 186.952 100.841 187.509 101.392C188.072 101.943 188.509 102.636 188.822 103.472C189.134 104.301 189.29 105.273 189.29 106.386V107.384H178.237V105.134H185.873C185.873 104.611 185.759 104.148 185.532 103.744C185.305 103.341 184.989 103.026 184.586 102.798C184.188 102.565 183.725 102.449 183.197 102.449C182.646 102.449 182.157 102.577 181.731 102.832C181.31 103.082 180.981 103.42 180.742 103.847C180.504 104.267 180.381 104.736 180.376 105.253V107.392C180.376 108.04 180.495 108.599 180.734 109.071C180.978 109.543 181.322 109.906 181.765 110.162C182.208 110.418 182.734 110.545 183.342 110.545C183.745 110.545 184.114 110.489 184.45 110.375C184.785 110.261 185.072 110.091 185.31 109.864C185.549 109.636 185.731 109.358 185.856 109.028L189.214 109.25C189.043 110.057 188.694 110.761 188.165 111.364C187.643 111.96 186.967 112.426 186.137 112.761C185.313 113.091 184.362 113.256 183.282 113.256ZM191.66 113V99.9091H195.12V102.219H195.273C195.546 101.452 196.001 100.847 196.637 100.403C197.273 99.9602 198.035 99.7386 198.921 99.7386C199.819 99.7386 200.583 99.9631 201.214 100.412C201.844 100.855 202.265 101.457 202.475 102.219H202.612C202.879 101.469 203.362 100.869 204.06 100.42C204.765 99.9659 205.597 99.7386 206.558 99.7386C207.779 99.7386 208.771 100.128 209.532 100.906C210.299 101.679 210.683 102.776 210.683 104.196V113H207.06V104.912C207.06 104.185 206.867 103.639 206.481 103.276C206.094 102.912 205.612 102.73 205.032 102.73C204.373 102.73 203.859 102.94 203.489 103.361C203.12 103.776 202.935 104.324 202.935 105.006V113H199.415V104.835C199.415 104.193 199.231 103.682 198.862 103.301C198.498 102.92 198.018 102.73 197.421 102.73C197.018 102.73 196.654 102.832 196.33 103.037C196.012 103.236 195.759 103.517 195.572 103.881C195.384 104.239 195.29 104.659 195.29 105.142V113H191.66ZM221.707 104.392V107.273H213.746V104.392H221.707ZM237.005 99.9091L232.428 113H228.337L223.761 99.9091H227.596L230.315 109.276H230.451L233.161 99.9091H237.005ZM238.863 113V99.9091H242.494V113H238.863ZM240.687 98.2216C240.147 98.2216 239.684 98.0426 239.298 97.6847C238.917 97.321 238.727 96.8864 238.727 96.3807C238.727 95.8807 238.917 95.4517 239.298 95.0938C239.684 94.7301 240.147 94.5483 240.687 94.5483C241.227 94.5483 241.687 94.7301 242.067 95.0938C242.454 95.4517 242.647 95.8807 242.647 96.3807C242.647 96.8864 242.454 97.321 242.067 97.6847C241.687 98.0426 241.227 98.2216 240.687 98.2216ZM249.033 105.432V113H245.402V99.9091H248.862V102.219H249.016C249.305 101.457 249.791 100.855 250.473 100.412C251.155 99.9631 251.982 99.7386 252.953 99.7386C253.862 99.7386 254.655 99.9375 255.331 100.335C256.007 100.733 256.533 101.301 256.908 102.04C257.283 102.773 257.47 103.648 257.47 104.665V113H253.839V105.312C253.845 104.511 253.641 103.886 253.226 103.438C252.811 102.983 252.24 102.756 251.513 102.756C251.024 102.756 250.592 102.861 250.217 103.071C249.848 103.281 249.558 103.588 249.348 103.991C249.143 104.389 249.038 104.869 249.033 105.432ZM265.156 113.213C264.161 113.213 263.261 112.957 262.454 112.446C261.653 111.929 261.016 111.17 260.545 110.17C260.079 109.165 259.846 107.932 259.846 106.472C259.846 104.972 260.087 103.724 260.57 102.73C261.053 101.73 261.695 100.983 262.496 100.489C263.303 99.9886 264.187 99.7386 265.147 99.7386C265.88 99.7386 266.491 99.8636 266.979 100.114C267.474 100.358 267.871 100.665 268.173 101.034C268.479 101.398 268.712 101.756 268.871 102.108H268.982V95.5455H272.604V113H269.025V110.903H268.871C268.701 111.267 268.46 111.628 268.147 111.986C267.84 112.338 267.44 112.631 266.945 112.864C266.457 113.097 265.86 113.213 265.156 113.213ZM266.306 110.324C266.891 110.324 267.386 110.165 267.789 109.847C268.198 109.523 268.511 109.071 268.727 108.491C268.948 107.912 269.059 107.233 269.059 106.455C269.059 105.676 268.951 105 268.735 104.426C268.519 103.852 268.207 103.409 267.798 103.097C267.388 102.784 266.891 102.628 266.306 102.628C265.71 102.628 265.207 102.79 264.798 103.114C264.388 103.437 264.079 103.886 263.869 104.46C263.658 105.034 263.553 105.699 263.553 106.455C263.553 107.216 263.658 107.889 263.869 108.474C264.085 109.054 264.394 109.509 264.798 109.838C265.207 110.162 265.71 110.324 266.306 110.324ZM281.504 113.256C280.18 113.256 279.036 112.974 278.07 112.412C277.109 111.844 276.368 111.054 275.845 110.043C275.322 109.026 275.061 107.847 275.061 106.506C275.061 105.153 275.322 103.972 275.845 102.96C276.368 101.943 277.109 101.153 278.07 100.591C279.036 100.023 280.18 99.7386 281.504 99.7386C282.828 99.7386 283.97 100.023 284.93 100.591C285.896 101.153 286.641 101.943 287.163 102.96C287.686 103.972 287.947 105.153 287.947 106.506C287.947 107.847 287.686 109.026 287.163 110.043C286.641 111.054 285.896 111.844 284.93 112.412C283.97 112.974 282.828 113.256 281.504 113.256ZM281.521 110.443C282.124 110.443 282.626 110.273 283.03 109.932C283.433 109.585 283.737 109.114 283.942 108.517C284.152 107.92 284.257 107.241 284.257 106.48C284.257 105.719 284.152 105.04 283.942 104.443C283.737 103.847 283.433 103.375 283.03 103.028C282.626 102.682 282.124 102.509 281.521 102.509C280.913 102.509 280.402 102.682 279.987 103.028C279.578 103.375 279.268 103.847 279.058 104.443C278.854 105.04 278.751 105.719 278.751 106.48C278.751 107.241 278.854 107.92 279.058 108.517C279.268 109.114 279.578 109.585 279.987 109.932C280.402 110.273 280.913 110.443 281.521 110.443ZM301.2 103.642L297.876 103.847C297.82 103.562 297.697 103.307 297.51 103.08C297.322 102.847 297.075 102.662 296.768 102.526C296.467 102.384 296.107 102.312 295.686 102.312C295.124 102.312 294.649 102.432 294.263 102.67C293.876 102.903 293.683 103.216 293.683 103.608C293.683 103.92 293.808 104.185 294.058 104.401C294.308 104.616 294.737 104.79 295.345 104.92L297.714 105.398C298.987 105.659 299.936 106.08 300.561 106.659C301.186 107.239 301.499 108 301.499 108.943C301.499 109.801 301.246 110.554 300.74 111.202C300.24 111.849 299.553 112.355 298.678 112.719C297.808 113.077 296.805 113.256 295.669 113.256C293.936 113.256 292.555 112.895 291.527 112.173C290.504 111.446 289.905 110.457 289.729 109.207L293.3 109.02C293.408 109.548 293.669 109.952 294.084 110.23C294.499 110.503 295.03 110.639 295.678 110.639C296.314 110.639 296.825 110.517 297.212 110.273C297.604 110.023 297.803 109.702 297.808 109.31C297.803 108.98 297.663 108.71 297.391 108.5C297.118 108.284 296.697 108.119 296.129 108.006L293.862 107.554C292.584 107.298 291.632 106.855 291.007 106.224C290.388 105.594 290.078 104.79 290.078 103.812C290.078 102.972 290.305 102.247 290.76 101.639C291.22 101.031 291.865 100.562 292.695 100.233C293.53 99.9034 294.507 99.7386 295.626 99.7386C297.28 99.7386 298.581 100.088 299.53 100.787C300.484 101.486 301.041 102.437 301.2 103.642ZM308.123 95.5455L307.79 107.767H304.671L304.33 95.5455H308.123ZM306.231 113.222C305.668 113.222 305.185 113.023 304.782 112.625C304.379 112.222 304.18 111.739 304.185 111.176C304.18 110.619 304.379 110.142 304.782 109.744C305.185 109.347 305.668 109.148 306.231 109.148C306.771 109.148 307.245 109.347 307.654 109.744C308.063 110.142 308.271 110.619 308.276 111.176C308.271 111.551 308.171 111.895 307.978 112.207C307.79 112.514 307.543 112.761 307.237 112.949C306.93 113.131 306.594 113.222 306.231 113.222Z" fill="black"/>
<defs>
<clipPath id="clip0_1_2">
<rect width="30" height="30" fill="white" transform="translate(1090 20)"/>
</clipPath>
</defs>
</svg>
